G04 #@! TF.GenerationSoftware,KiCad,Pcbnew,(5.1.5)-3*
G04 #@! TF.CreationDate,2020-06-26T18:21:24+09:00*
G04 #@! TF.ProjectId,TK80LED,544b3830-4c45-4442-9e6b-696361645f70,rev?*
G04 #@! TF.SameCoordinates,Original*
G04 #@! TF.FileFunction,Legend,Top*
G04 #@! TF.FilePolarity,Positive*
%FSLAX46Y46*%
G04 Gerber Fmt 4.6, Leading zero omitted, Abs format (unit mm)*
G04 Created by KiCad (PCBNEW (5.1.5)-3) date 2020-06-26 18:21:24*
%MOMM*%
%LPD*%
G04 APERTURE LIST*
%ADD10C,0.200000*%
%ADD11C,0.150000*%
%ADD12C,0.120000*%
%ADD13C,0.127000*%
%ADD14C,1.312000*%
%ADD15R,1.312000X1.312000*%
%ADD16O,1.702000X1.702000*%
%ADD17C,1.702000*%
%ADD18C,3.102000*%
%ADD19O,1.302000X2.102000*%
%ADD20R,1.302000X2.102000*%
%ADD21R,1.302000X1.302000*%
%ADD22C,1.302000*%
%ADD23O,2.102000X1.302000*%
%ADD24R,2.102000X1.302000*%
G04 APERTURE END LIST*
D10*
X52685714Y-66142857D02*
X54057142Y-66142857D01*
X53371428Y-66904761D02*
X53371428Y-65380952D01*
X55771428Y-64904761D02*
X54914285Y-64904761D01*
X54828571Y-65857142D01*
X54914285Y-65761904D01*
X55085714Y-65666666D01*
X55514285Y-65666666D01*
X55685714Y-65761904D01*
X55771428Y-65857142D01*
X55857142Y-66047619D01*
X55857142Y-66523809D01*
X55771428Y-66714285D01*
X55685714Y-66809523D01*
X55514285Y-66904761D01*
X55085714Y-66904761D01*
X54914285Y-66809523D01*
X54828571Y-66714285D01*
X56371428Y-64904761D02*
X56971428Y-66904761D01*
X57571428Y-64904761D01*
D11*
X32202380Y-52672857D02*
X31202380Y-52672857D01*
X31916666Y-52339523D01*
X31202380Y-52006190D01*
X32202380Y-52006190D01*
X31916666Y-51577619D02*
X31916666Y-51101428D01*
X32202380Y-51672857D02*
X31202380Y-51339523D01*
X32202380Y-51006190D01*
X31202380Y-50768095D02*
X32202380Y-50101428D01*
X31202380Y-50101428D02*
X32202380Y-50768095D01*
X31202380Y-49815714D02*
X31202380Y-49149047D01*
X32202380Y-49577619D01*
X31297619Y-48815714D02*
X31250000Y-48768095D01*
X31202380Y-48672857D01*
X31202380Y-48434761D01*
X31250000Y-48339523D01*
X31297619Y-48291904D01*
X31392857Y-48244285D01*
X31488095Y-48244285D01*
X31630952Y-48291904D01*
X32202380Y-48863333D01*
X32202380Y-48244285D01*
X32202380Y-47291904D02*
X32202380Y-47863333D01*
X32202380Y-47577619D02*
X31202380Y-47577619D01*
X31345238Y-47672857D01*
X31440476Y-47768095D01*
X31488095Y-47863333D01*
X32202380Y-46815714D02*
X32202380Y-46625238D01*
X32154761Y-46530000D01*
X32107142Y-46482380D01*
X31964285Y-46387142D01*
X31773809Y-46339523D01*
X31392857Y-46339523D01*
X31297619Y-46387142D01*
X31250000Y-46434761D01*
X31202380Y-46530000D01*
X31202380Y-46720476D01*
X31250000Y-46815714D01*
X31297619Y-46863333D01*
X31392857Y-46910952D01*
X31630952Y-46910952D01*
X31726190Y-46863333D01*
X31773809Y-46815714D01*
X31821428Y-46720476D01*
X31821428Y-46530000D01*
X31773809Y-46434761D01*
X31726190Y-46387142D01*
X31630952Y-46339523D01*
X10303333Y-54062380D02*
X10874761Y-54062380D01*
X10589047Y-55062380D02*
X10589047Y-54062380D01*
X11541428Y-54538571D02*
X11684285Y-54586190D01*
X11731904Y-54633809D01*
X11779523Y-54729047D01*
X11779523Y-54871904D01*
X11731904Y-54967142D01*
X11684285Y-55014761D01*
X11589047Y-55062380D01*
X11208095Y-55062380D01*
X11208095Y-54062380D01*
X11541428Y-54062380D01*
X11636666Y-54110000D01*
X11684285Y-54157619D01*
X11731904Y-54252857D01*
X11731904Y-54348095D01*
X11684285Y-54443333D01*
X11636666Y-54490952D01*
X11541428Y-54538571D01*
X11208095Y-54538571D01*
X12208095Y-55062380D02*
X12208095Y-54062380D01*
X12446190Y-54062380D01*
X12589047Y-54110000D01*
X12684285Y-54205238D01*
X12731904Y-54300476D01*
X12779523Y-54490952D01*
X12779523Y-54633809D01*
X12731904Y-54824285D01*
X12684285Y-54919523D01*
X12589047Y-55014761D01*
X12446190Y-55062380D01*
X12208095Y-55062380D01*
X13636666Y-54062380D02*
X13446190Y-54062380D01*
X13350952Y-54110000D01*
X13303333Y-54157619D01*
X13208095Y-54300476D01*
X13160476Y-54490952D01*
X13160476Y-54871904D01*
X13208095Y-54967142D01*
X13255714Y-55014761D01*
X13350952Y-55062380D01*
X13541428Y-55062380D01*
X13636666Y-55014761D01*
X13684285Y-54967142D01*
X13731904Y-54871904D01*
X13731904Y-54633809D01*
X13684285Y-54538571D01*
X13636666Y-54490952D01*
X13541428Y-54443333D01*
X13350952Y-54443333D01*
X13255714Y-54490952D01*
X13208095Y-54538571D01*
X13160476Y-54633809D01*
X14112857Y-54157619D02*
X14160476Y-54110000D01*
X14255714Y-54062380D01*
X14493809Y-54062380D01*
X14589047Y-54110000D01*
X14636666Y-54157619D01*
X14684285Y-54252857D01*
X14684285Y-54348095D01*
X14636666Y-54490952D01*
X14065238Y-55062380D01*
X14684285Y-55062380D01*
X15303333Y-54062380D02*
X15398571Y-54062380D01*
X15493809Y-54110000D01*
X15541428Y-54157619D01*
X15589047Y-54252857D01*
X15636666Y-54443333D01*
X15636666Y-54681428D01*
X15589047Y-54871904D01*
X15541428Y-54967142D01*
X15493809Y-55014761D01*
X15398571Y-55062380D01*
X15303333Y-55062380D01*
X15208095Y-55014761D01*
X15160476Y-54967142D01*
X15112857Y-54871904D01*
X15065238Y-54681428D01*
X15065238Y-54443333D01*
X15112857Y-54252857D01*
X15160476Y-54157619D01*
X15208095Y-54110000D01*
X15303333Y-54062380D01*
X16208095Y-54490952D02*
X16112857Y-54443333D01*
X16065238Y-54395714D01*
X16017619Y-54300476D01*
X16017619Y-54252857D01*
X16065238Y-54157619D01*
X16112857Y-54110000D01*
X16208095Y-54062380D01*
X16398571Y-54062380D01*
X16493809Y-54110000D01*
X16541428Y-54157619D01*
X16589047Y-54252857D01*
X16589047Y-54300476D01*
X16541428Y-54395714D01*
X16493809Y-54443333D01*
X16398571Y-54490952D01*
X16208095Y-54490952D01*
X16112857Y-54538571D01*
X16065238Y-54586190D01*
X16017619Y-54681428D01*
X16017619Y-54871904D01*
X16065238Y-54967142D01*
X16112857Y-55014761D01*
X16208095Y-55062380D01*
X16398571Y-55062380D01*
X16493809Y-55014761D01*
X16541428Y-54967142D01*
X16589047Y-54871904D01*
X16589047Y-54681428D01*
X16541428Y-54586190D01*
X16493809Y-54538571D01*
X16398571Y-54490952D01*
X16922380Y-54062380D02*
X17541428Y-54062380D01*
X17208095Y-54443333D01*
X17350952Y-54443333D01*
X17446190Y-54490952D01*
X17493809Y-54538571D01*
X17541428Y-54633809D01*
X17541428Y-54871904D01*
X17493809Y-54967142D01*
X17446190Y-55014761D01*
X17350952Y-55062380D01*
X17065238Y-55062380D01*
X16970000Y-55014761D01*
X16922380Y-54967142D01*
D10*
X5657142Y-3904761D02*
X5657142Y-1904761D01*
X6342857Y-1904761D01*
X6514285Y-2000000D01*
X6600000Y-2095238D01*
X6685714Y-2285714D01*
X6685714Y-2571428D01*
X6600000Y-2761904D01*
X6514285Y-2857142D01*
X6342857Y-2952380D01*
X5657142Y-2952380D01*
X7371428Y-3333333D02*
X8228571Y-3333333D01*
X7200000Y-3904761D02*
X7800000Y-1904761D01*
X8400000Y-3904761D01*
X8742857Y-1904761D02*
X9771428Y-1904761D01*
X9257142Y-3904761D02*
X9257142Y-1904761D01*
X10371428Y-3714285D02*
X10457142Y-3809523D01*
X10371428Y-3904761D01*
X10285714Y-3809523D01*
X10371428Y-3714285D01*
X10371428Y-3904761D01*
X11228571Y-3904761D02*
X11228571Y-1904761D01*
X11914285Y-1904761D01*
X12085714Y-2000000D01*
X12171428Y-2095238D01*
X12257142Y-2285714D01*
X12257142Y-2571428D01*
X12171428Y-2761904D01*
X12085714Y-2857142D01*
X11914285Y-2952380D01*
X11228571Y-2952380D01*
X13028571Y-2857142D02*
X13628571Y-2857142D01*
X13885714Y-3904761D02*
X13028571Y-3904761D01*
X13028571Y-1904761D01*
X13885714Y-1904761D01*
X14657142Y-3904761D02*
X14657142Y-1904761D01*
X15685714Y-3904761D01*
X15685714Y-1904761D01*
X16542857Y-3904761D02*
X16542857Y-1904761D01*
X16971428Y-1904761D01*
X17228571Y-2000000D01*
X17400000Y-2190476D01*
X17485714Y-2380952D01*
X17571428Y-2761904D01*
X17571428Y-3047619D01*
X17485714Y-3428571D01*
X17400000Y-3619047D01*
X17228571Y-3809523D01*
X16971428Y-3904761D01*
X16542857Y-3904761D01*
X18342857Y-3714285D02*
X18428571Y-3809523D01*
X18342857Y-3904761D01*
X18257142Y-3809523D01*
X18342857Y-3714285D01*
X18342857Y-3904761D01*
X124628571Y-17000000D02*
X124457142Y-16904761D01*
X124200000Y-16904761D01*
X123942857Y-17000000D01*
X123771428Y-17190476D01*
X123685714Y-17380952D01*
X123600000Y-17761904D01*
X123600000Y-18047619D01*
X123685714Y-18428571D01*
X123771428Y-18619047D01*
X123942857Y-18809523D01*
X124200000Y-18904761D01*
X124371428Y-18904761D01*
X124628571Y-18809523D01*
X124714285Y-18714285D01*
X124714285Y-18047619D01*
X124371428Y-18047619D01*
X125485714Y-18904761D02*
X125485714Y-16904761D01*
X126514285Y-18904761D01*
X126514285Y-16904761D01*
X127371428Y-18904761D02*
X127371428Y-16904761D01*
X127800000Y-16904761D01*
X128057142Y-17000000D01*
X128228571Y-17190476D01*
X128314285Y-17380952D01*
X128400000Y-17761904D01*
X128400000Y-18047619D01*
X128314285Y-18428571D01*
X128228571Y-18619047D01*
X128057142Y-18809523D01*
X127800000Y-18904761D01*
X127371428Y-18904761D01*
X95728571Y-3904761D02*
X95728571Y-1904761D01*
X96328571Y-3333333D01*
X96928571Y-1904761D01*
X96928571Y-3904761D01*
X97700000Y-3333333D02*
X98557142Y-3333333D01*
X97528571Y-3904761D02*
X98128571Y-1904761D01*
X98728571Y-3904761D01*
X99328571Y-3904761D02*
X99328571Y-1904761D01*
X99757142Y-1904761D01*
X100014285Y-2000000D01*
X100185714Y-2190476D01*
X100271428Y-2380952D01*
X100357142Y-2761904D01*
X100357142Y-3047619D01*
X100271428Y-3428571D01*
X100185714Y-3619047D01*
X100014285Y-3809523D01*
X99757142Y-3904761D01*
X99328571Y-3904761D01*
X101128571Y-2857142D02*
X101728571Y-2857142D01*
X101985714Y-3904761D02*
X101128571Y-3904761D01*
X101128571Y-1904761D01*
X101985714Y-1904761D01*
X105500000Y-3904761D02*
X105500000Y-1904761D01*
X106357142Y-3904761D02*
X106357142Y-1904761D01*
X107385714Y-3904761D01*
X107385714Y-1904761D01*
X111500000Y-1904761D02*
X111500000Y-3333333D01*
X111414285Y-3619047D01*
X111242857Y-3809523D01*
X110985714Y-3904761D01*
X110814285Y-3904761D01*
X112271428Y-3333333D02*
X113128571Y-3333333D01*
X112100000Y-3904761D02*
X112700000Y-1904761D01*
X113300000Y-3904761D01*
X113900000Y-3904761D02*
X113900000Y-1904761D01*
X114585714Y-1904761D01*
X114757142Y-2000000D01*
X114842857Y-2095238D01*
X114928571Y-2285714D01*
X114928571Y-2571428D01*
X114842857Y-2761904D01*
X114757142Y-2857142D01*
X114585714Y-2952380D01*
X113900000Y-2952380D01*
X115614285Y-3333333D02*
X116471428Y-3333333D01*
X115442857Y-3904761D02*
X116042857Y-1904761D01*
X116642857Y-3904761D01*
X117242857Y-3904761D02*
X117242857Y-1904761D01*
X118271428Y-3904761D01*
X118271428Y-1904761D01*
X57628571Y-3000000D02*
X57457142Y-2904761D01*
X57200000Y-2904761D01*
X56942857Y-3000000D01*
X56771428Y-3190476D01*
X56685714Y-3380952D01*
X56600000Y-3761904D01*
X56600000Y-4047619D01*
X56685714Y-4428571D01*
X56771428Y-4619047D01*
X56942857Y-4809523D01*
X57200000Y-4904761D01*
X57371428Y-4904761D01*
X57628571Y-4809523D01*
X57714285Y-4714285D01*
X57714285Y-4047619D01*
X57371428Y-4047619D01*
X58485714Y-4904761D02*
X58485714Y-2904761D01*
X59514285Y-4904761D01*
X59514285Y-2904761D01*
X60371428Y-4904761D02*
X60371428Y-2904761D01*
X60800000Y-2904761D01*
X61057142Y-3000000D01*
X61228571Y-3190476D01*
X61314285Y-3380952D01*
X61400000Y-3761904D01*
X61400000Y-4047619D01*
X61314285Y-4428571D01*
X61228571Y-4619047D01*
X61057142Y-4809523D01*
X60800000Y-4904761D01*
X60371428Y-4904761D01*
D11*
X43902380Y-49386666D02*
X43902380Y-48815238D01*
X44902380Y-49100952D02*
X43902380Y-49100952D01*
X44378571Y-48148571D02*
X44426190Y-48005714D01*
X44473809Y-47958095D01*
X44569047Y-47910476D01*
X44711904Y-47910476D01*
X44807142Y-47958095D01*
X44854761Y-48005714D01*
X44902380Y-48100952D01*
X44902380Y-48481904D01*
X43902380Y-48481904D01*
X43902380Y-48148571D01*
X43950000Y-48053333D01*
X43997619Y-48005714D01*
X44092857Y-47958095D01*
X44188095Y-47958095D01*
X44283333Y-48005714D01*
X44330952Y-48053333D01*
X44378571Y-48148571D01*
X44378571Y-48481904D01*
X44902380Y-47481904D02*
X43902380Y-47481904D01*
X43902380Y-47243809D01*
X43950000Y-47100952D01*
X44045238Y-47005714D01*
X44140476Y-46958095D01*
X44330952Y-46910476D01*
X44473809Y-46910476D01*
X44664285Y-46958095D01*
X44759523Y-47005714D01*
X44854761Y-47100952D01*
X44902380Y-47243809D01*
X44902380Y-47481904D01*
X43902380Y-46053333D02*
X43902380Y-46243809D01*
X43950000Y-46339047D01*
X43997619Y-46386666D01*
X44140476Y-46481904D01*
X44330952Y-46529523D01*
X44711904Y-46529523D01*
X44807142Y-46481904D01*
X44854761Y-46434285D01*
X44902380Y-46339047D01*
X44902380Y-46148571D01*
X44854761Y-46053333D01*
X44807142Y-46005714D01*
X44711904Y-45958095D01*
X44473809Y-45958095D01*
X44378571Y-46005714D01*
X44330952Y-46053333D01*
X44283333Y-46148571D01*
X44283333Y-46339047D01*
X44330952Y-46434285D01*
X44378571Y-46481904D01*
X44473809Y-46529523D01*
X43997619Y-45577142D02*
X43950000Y-45529523D01*
X43902380Y-45434285D01*
X43902380Y-45196190D01*
X43950000Y-45100952D01*
X43997619Y-45053333D01*
X44092857Y-45005714D01*
X44188095Y-45005714D01*
X44330952Y-45053333D01*
X44902380Y-45624761D01*
X44902380Y-45005714D01*
X43902380Y-44672380D02*
X43902380Y-44005714D01*
X44902380Y-44434285D01*
X44330952Y-43481904D02*
X44283333Y-43577142D01*
X44235714Y-43624761D01*
X44140476Y-43672380D01*
X44092857Y-43672380D01*
X43997619Y-43624761D01*
X43950000Y-43577142D01*
X43902380Y-43481904D01*
X43902380Y-43291428D01*
X43950000Y-43196190D01*
X43997619Y-43148571D01*
X44092857Y-43100952D01*
X44140476Y-43100952D01*
X44235714Y-43148571D01*
X44283333Y-43196190D01*
X44330952Y-43291428D01*
X44330952Y-43481904D01*
X44378571Y-43577142D01*
X44426190Y-43624761D01*
X44521428Y-43672380D01*
X44711904Y-43672380D01*
X44807142Y-43624761D01*
X44854761Y-43577142D01*
X44902380Y-43481904D01*
X44902380Y-43291428D01*
X44854761Y-43196190D01*
X44807142Y-43148571D01*
X44711904Y-43100952D01*
X44521428Y-43100952D01*
X44426190Y-43148571D01*
X44378571Y-43196190D01*
X44330952Y-43291428D01*
X43902380Y-42196190D02*
X43902380Y-42672380D01*
X44378571Y-42720000D01*
X44330952Y-42672380D01*
X44283333Y-42577142D01*
X44283333Y-42339047D01*
X44330952Y-42243809D01*
X44378571Y-42196190D01*
X44473809Y-42148571D01*
X44711904Y-42148571D01*
X44807142Y-42196190D01*
X44854761Y-42243809D01*
X44902380Y-42339047D01*
X44902380Y-42577142D01*
X44854761Y-42672380D01*
X44807142Y-42720000D01*
X57422023Y-60047142D02*
X57374404Y-60094761D01*
X57231547Y-60142380D01*
X57136309Y-60142380D01*
X56993452Y-60094761D01*
X56898214Y-59999523D01*
X56850595Y-59904285D01*
X56802976Y-59713809D01*
X56802976Y-59570952D01*
X56850595Y-59380476D01*
X56898214Y-59285238D01*
X56993452Y-59190000D01*
X57136309Y-59142380D01*
X57231547Y-59142380D01*
X57374404Y-59190000D01*
X57422023Y-59237619D01*
X58326785Y-60142380D02*
X57850595Y-60142380D01*
X57850595Y-59142380D01*
X58660119Y-60142380D02*
X58660119Y-59142380D01*
X59231547Y-60142380D02*
X58802976Y-59570952D01*
X59231547Y-59142380D02*
X58660119Y-59713809D01*
X57422023Y-57507142D02*
X57374404Y-57554761D01*
X57231547Y-57602380D01*
X57136309Y-57602380D01*
X56993452Y-57554761D01*
X56898214Y-57459523D01*
X56850595Y-57364285D01*
X56802976Y-57173809D01*
X56802976Y-57030952D01*
X56850595Y-56840476D01*
X56898214Y-56745238D01*
X56993452Y-56650000D01*
X57136309Y-56602380D01*
X57231547Y-56602380D01*
X57374404Y-56650000D01*
X57422023Y-56697619D01*
X57802976Y-57554761D02*
X57945833Y-57602380D01*
X58183928Y-57602380D01*
X58279166Y-57554761D01*
X58326785Y-57507142D01*
X58374404Y-57411904D01*
X58374404Y-57316666D01*
X58326785Y-57221428D01*
X58279166Y-57173809D01*
X58183928Y-57126190D01*
X57993452Y-57078571D01*
X57898214Y-57030952D01*
X57850595Y-56983333D01*
X57802976Y-56888095D01*
X57802976Y-56792857D01*
X57850595Y-56697619D01*
X57898214Y-56650000D01*
X57993452Y-56602380D01*
X58231547Y-56602380D01*
X58374404Y-56650000D01*
X59088690Y-57983333D02*
X59041071Y-57935714D01*
X58945833Y-57792857D01*
X58898214Y-57697619D01*
X58850595Y-57554761D01*
X58802976Y-57316666D01*
X58802976Y-57126190D01*
X58850595Y-56888095D01*
X58898214Y-56745238D01*
X58945833Y-56650000D01*
X59041071Y-56507142D01*
X59088690Y-56459523D01*
X59945833Y-57602380D02*
X59469642Y-57602380D01*
X59469642Y-56602380D01*
X60469642Y-56602380D02*
X60660119Y-56602380D01*
X60755357Y-56650000D01*
X60850595Y-56745238D01*
X60898214Y-56935714D01*
X60898214Y-57269047D01*
X60850595Y-57459523D01*
X60755357Y-57554761D01*
X60660119Y-57602380D01*
X60469642Y-57602380D01*
X60374404Y-57554761D01*
X60279166Y-57459523D01*
X60231547Y-57269047D01*
X60231547Y-56935714D01*
X60279166Y-56745238D01*
X60374404Y-56650000D01*
X60469642Y-56602380D01*
X61279166Y-57316666D02*
X61755357Y-57316666D01*
X61183928Y-57602380D02*
X61517261Y-56602380D01*
X61850595Y-57602380D01*
X62183928Y-57602380D02*
X62183928Y-56602380D01*
X62422023Y-56602380D01*
X62564880Y-56650000D01*
X62660119Y-56745238D01*
X62707738Y-56840476D01*
X62755357Y-57030952D01*
X62755357Y-57173809D01*
X62707738Y-57364285D01*
X62660119Y-57459523D01*
X62564880Y-57554761D01*
X62422023Y-57602380D01*
X62183928Y-57602380D01*
X63088690Y-57983333D02*
X63136309Y-57935714D01*
X63231547Y-57792857D01*
X63279166Y-57697619D01*
X63326785Y-57554761D01*
X63374404Y-57316666D01*
X63374404Y-57126190D01*
X63326785Y-56888095D01*
X63279166Y-56745238D01*
X63231547Y-56650000D01*
X63136309Y-56507142D01*
X63088690Y-56459523D01*
X56850595Y-55062380D02*
X56850595Y-54062380D01*
X57088690Y-54062380D01*
X57231547Y-54110000D01*
X57326785Y-54205238D01*
X57374404Y-54300476D01*
X57422023Y-54490952D01*
X57422023Y-54633809D01*
X57374404Y-54824285D01*
X57326785Y-54919523D01*
X57231547Y-55014761D01*
X57088690Y-55062380D01*
X56850595Y-55062380D01*
X57850595Y-55062380D02*
X57850595Y-54062380D01*
X58326785Y-55062380D02*
X58326785Y-54062380D01*
X58898214Y-55062380D01*
X58898214Y-54062380D01*
X57374404Y-51570000D02*
X57279166Y-51522380D01*
X57136309Y-51522380D01*
X56993452Y-51570000D01*
X56898214Y-51665238D01*
X56850595Y-51760476D01*
X56802976Y-51950952D01*
X56802976Y-52093809D01*
X56850595Y-52284285D01*
X56898214Y-52379523D01*
X56993452Y-52474761D01*
X57136309Y-52522380D01*
X57231547Y-52522380D01*
X57374404Y-52474761D01*
X57422023Y-52427142D01*
X57422023Y-52093809D01*
X57231547Y-52093809D01*
X57850595Y-52522380D02*
X57850595Y-51522380D01*
X58422023Y-52522380D01*
X58422023Y-51522380D01*
X58898214Y-52522380D02*
X58898214Y-51522380D01*
X59136309Y-51522380D01*
X59279166Y-51570000D01*
X59374404Y-51665238D01*
X59422023Y-51760476D01*
X59469642Y-51950952D01*
X59469642Y-52093809D01*
X59422023Y-52284285D01*
X59374404Y-52379523D01*
X59279166Y-52474761D01*
X59136309Y-52522380D01*
X58898214Y-52522380D01*
X56707738Y-48982380D02*
X57041071Y-49982380D01*
X57374404Y-48982380D01*
X58279166Y-49887142D02*
X58231547Y-49934761D01*
X58088690Y-49982380D01*
X57993452Y-49982380D01*
X57850595Y-49934761D01*
X57755357Y-49839523D01*
X57707738Y-49744285D01*
X57660119Y-49553809D01*
X57660119Y-49410952D01*
X57707738Y-49220476D01*
X57755357Y-49125238D01*
X57850595Y-49030000D01*
X57993452Y-48982380D01*
X58088690Y-48982380D01*
X58231547Y-49030000D01*
X58279166Y-49077619D01*
X59279166Y-49887142D02*
X59231547Y-49934761D01*
X59088690Y-49982380D01*
X58993452Y-49982380D01*
X58850595Y-49934761D01*
X58755357Y-49839523D01*
X58707738Y-49744285D01*
X58660119Y-49553809D01*
X58660119Y-49410952D01*
X58707738Y-49220476D01*
X58755357Y-49125238D01*
X58850595Y-49030000D01*
X58993452Y-48982380D01*
X59088690Y-48982380D01*
X59231547Y-49030000D01*
X59279166Y-49077619D01*
D12*
X30734000Y-64008000D02*
X30734000Y-65532000D01*
X32766000Y-64008000D02*
X30734000Y-64008000D01*
X32766000Y-65532000D02*
X32766000Y-64008000D01*
D13*
X35685000Y-33465000D02*
X27815000Y-33465000D01*
X35685000Y-65595000D02*
X27815000Y-65595000D01*
D10*
X36925000Y-63500000D02*
G75*
G03X36925000Y-63500000I-100000J0D01*
G01*
D12*
X15010000Y-63500000D02*
X15780000Y-63500000D01*
X23090000Y-63500000D02*
X22320000Y-63500000D01*
X21590000Y-44680000D02*
X21590000Y-43910000D01*
X21590000Y-36600000D02*
X21590000Y-37370000D01*
X19050000Y-36600000D02*
X19050000Y-37370000D01*
X19050000Y-44680000D02*
X19050000Y-43910000D01*
X16510000Y-44680000D02*
X16510000Y-43910000D01*
X16510000Y-36600000D02*
X16510000Y-37370000D01*
X13970000Y-36600000D02*
X13970000Y-37370000D01*
X13970000Y-44680000D02*
X13970000Y-43910000D01*
X11430000Y-44680000D02*
X11430000Y-43910000D01*
X11430000Y-36600000D02*
X11430000Y-37370000D01*
X8890000Y-36600000D02*
X8890000Y-37370000D01*
X8890000Y-44680000D02*
X8890000Y-43910000D01*
X6350000Y-44680000D02*
X6350000Y-43910000D01*
X6350000Y-36600000D02*
X6350000Y-37370000D01*
X3810000Y-36600000D02*
X3810000Y-37370000D01*
X3810000Y-44680000D02*
X3810000Y-43910000D01*
X41560000Y-65419000D02*
X41560000Y-64161000D01*
X39720000Y-65419000D02*
X39720000Y-64161000D01*
X68750001Y-6120000D02*
X68750000Y-29440000D01*
X81110000Y-6120000D02*
X68750001Y-6120000D01*
X81109999Y-29440000D02*
X81110000Y-6120000D01*
X68750000Y-29440000D02*
X81109999Y-29440000D01*
X49110000Y-65290000D02*
G75*
G03X49110000Y-65290000I-2120000J0D01*
G01*
X47830000Y-65290000D02*
X49070000Y-65290000D01*
X44910000Y-65290000D02*
X46150000Y-65290000D01*
X47830000Y-65250000D02*
X49070000Y-65250000D01*
X44910000Y-65250000D02*
X46150000Y-65250000D01*
X47830000Y-65210000D02*
X49069000Y-65210000D01*
X44911000Y-65210000D02*
X46150000Y-65210000D01*
X44913000Y-65170000D02*
X46150000Y-65170000D01*
X47830000Y-65170000D02*
X49067000Y-65170000D01*
X44916000Y-65130000D02*
X46150000Y-65130000D01*
X47830000Y-65130000D02*
X49064000Y-65130000D01*
X44919000Y-65090000D02*
X46150000Y-65090000D01*
X47830000Y-65090000D02*
X49061000Y-65090000D01*
X44923000Y-65050000D02*
X46150000Y-65050000D01*
X47830000Y-65050000D02*
X49057000Y-65050000D01*
X44928000Y-65010000D02*
X46150000Y-65010000D01*
X47830000Y-65010000D02*
X49052000Y-65010000D01*
X44934000Y-64970000D02*
X46150000Y-64970000D01*
X47830000Y-64970000D02*
X49046000Y-64970000D01*
X44940000Y-64930000D02*
X46150000Y-64930000D01*
X47830000Y-64930000D02*
X49040000Y-64930000D01*
X44948000Y-64890000D02*
X46150000Y-64890000D01*
X47830000Y-64890000D02*
X49032000Y-64890000D01*
X44956000Y-64850000D02*
X46150000Y-64850000D01*
X47830000Y-64850000D02*
X49024000Y-64850000D01*
X44965000Y-64810000D02*
X46150000Y-64810000D01*
X47830000Y-64810000D02*
X49015000Y-64810000D01*
X44974000Y-64770000D02*
X46150000Y-64770000D01*
X47830000Y-64770000D02*
X49006000Y-64770000D01*
X44985000Y-64730000D02*
X46150000Y-64730000D01*
X47830000Y-64730000D02*
X48995000Y-64730000D01*
X44996000Y-64690000D02*
X46150000Y-64690000D01*
X47830000Y-64690000D02*
X48984000Y-64690000D01*
X45008000Y-64650000D02*
X46150000Y-64650000D01*
X47830000Y-64650000D02*
X48972000Y-64650000D01*
X45022000Y-64610000D02*
X46150000Y-64610000D01*
X47830000Y-64610000D02*
X48958000Y-64610000D01*
X45036000Y-64569000D02*
X46150000Y-64569000D01*
X47830000Y-64569000D02*
X48944000Y-64569000D01*
X45050000Y-64529000D02*
X46150000Y-64529000D01*
X47830000Y-64529000D02*
X48930000Y-64529000D01*
X45066000Y-64489000D02*
X46150000Y-64489000D01*
X47830000Y-64489000D02*
X48914000Y-64489000D01*
X45083000Y-64449000D02*
X46150000Y-64449000D01*
X47830000Y-64449000D02*
X48897000Y-64449000D01*
X45101000Y-64409000D02*
X46150000Y-64409000D01*
X47830000Y-64409000D02*
X48879000Y-64409000D01*
X45120000Y-64369000D02*
X46150000Y-64369000D01*
X47830000Y-64369000D02*
X48860000Y-64369000D01*
X45139000Y-64329000D02*
X46150000Y-64329000D01*
X47830000Y-64329000D02*
X48841000Y-64329000D01*
X45160000Y-64289000D02*
X46150000Y-64289000D01*
X47830000Y-64289000D02*
X48820000Y-64289000D01*
X45182000Y-64249000D02*
X46150000Y-64249000D01*
X47830000Y-64249000D02*
X48798000Y-64249000D01*
X45205000Y-64209000D02*
X46150000Y-64209000D01*
X47830000Y-64209000D02*
X48775000Y-64209000D01*
X45230000Y-64169000D02*
X46150000Y-64169000D01*
X47830000Y-64169000D02*
X48750000Y-64169000D01*
X45255000Y-64129000D02*
X46150000Y-64129000D01*
X47830000Y-64129000D02*
X48725000Y-64129000D01*
X45282000Y-64089000D02*
X46150000Y-64089000D01*
X47830000Y-64089000D02*
X48698000Y-64089000D01*
X45310000Y-64049000D02*
X46150000Y-64049000D01*
X47830000Y-64049000D02*
X48670000Y-64049000D01*
X45340000Y-64009000D02*
X46150000Y-64009000D01*
X47830000Y-64009000D02*
X48640000Y-64009000D01*
X45371000Y-63969000D02*
X46150000Y-63969000D01*
X47830000Y-63969000D02*
X48609000Y-63969000D01*
X45403000Y-63929000D02*
X46150000Y-63929000D01*
X47830000Y-63929000D02*
X48577000Y-63929000D01*
X45438000Y-63889000D02*
X46150000Y-63889000D01*
X47830000Y-63889000D02*
X48542000Y-63889000D01*
X45474000Y-63849000D02*
X46150000Y-63849000D01*
X47830000Y-63849000D02*
X48506000Y-63849000D01*
X45512000Y-63809000D02*
X46150000Y-63809000D01*
X47830000Y-63809000D02*
X48468000Y-63809000D01*
X45552000Y-63769000D02*
X46150000Y-63769000D01*
X47830000Y-63769000D02*
X48428000Y-63769000D01*
X45594000Y-63729000D02*
X46150000Y-63729000D01*
X47830000Y-63729000D02*
X48386000Y-63729000D01*
X45639000Y-63689000D02*
X48341000Y-63689000D01*
X45686000Y-63649000D02*
X48294000Y-63649000D01*
X45736000Y-63609000D02*
X48244000Y-63609000D01*
X45790000Y-63569000D02*
X48190000Y-63569000D01*
X45848000Y-63529000D02*
X48132000Y-63529000D01*
X45910000Y-63489000D02*
X48070000Y-63489000D01*
X45977000Y-63449000D02*
X48003000Y-63449000D01*
X46050000Y-63409000D02*
X47930000Y-63409000D01*
X46131000Y-63369000D02*
X47849000Y-63369000D01*
X46222000Y-63329000D02*
X47758000Y-63329000D01*
X46326000Y-63289000D02*
X47654000Y-63289000D01*
X46453000Y-63249000D02*
X47527000Y-63249000D01*
X46620000Y-63209000D02*
X47360000Y-63209000D01*
X45795000Y-67559801D02*
X45795000Y-67159801D01*
X45595000Y-67359801D02*
X45995000Y-67359801D01*
X56110000Y-50800000D02*
X53110000Y-50800000D01*
X53110000Y-48430000D02*
X56110000Y-48430000D01*
X53110000Y-60790000D02*
X53110000Y-48430000D01*
X56110000Y-60790000D02*
X53110000Y-60790000D01*
X56110000Y-48430000D02*
X56110000Y-60790000D01*
X123420000Y-48430000D02*
X123420000Y-60790000D01*
X123420000Y-60790000D02*
X120420000Y-60790000D01*
X120420000Y-60790000D02*
X120420000Y-48430000D01*
X120420000Y-48430000D02*
X123420000Y-48430000D01*
X123420000Y-50800000D02*
X120420000Y-50800000D01*
X6520000Y-29440000D02*
X18879999Y-29440000D01*
X18879999Y-29440000D02*
X18880000Y-6120000D01*
X18880000Y-6120000D02*
X6520001Y-6120000D01*
X6520001Y-6120000D02*
X6520000Y-29440000D01*
X20490001Y-6120000D02*
X20490000Y-29440000D01*
X32850000Y-6120000D02*
X20490001Y-6120000D01*
X32849999Y-29440000D02*
X32850000Y-6120000D01*
X20490000Y-29440000D02*
X32849999Y-29440000D01*
X34460001Y-6120000D02*
X34460000Y-29440000D01*
X46820000Y-6120000D02*
X34460001Y-6120000D01*
X46819999Y-29440000D02*
X46820000Y-6120000D01*
X34460000Y-29440000D02*
X46819999Y-29440000D01*
X48430000Y-29440000D02*
X60789999Y-29440000D01*
X60789999Y-29440000D02*
X60790000Y-6120000D01*
X60790000Y-6120000D02*
X48430001Y-6120000D01*
X48430001Y-6120000D02*
X48430000Y-29440000D01*
X82720000Y-29440000D02*
X95079999Y-29440000D01*
X95079999Y-29440000D02*
X95080000Y-6120000D01*
X95080000Y-6120000D02*
X82720001Y-6120000D01*
X82720001Y-6120000D02*
X82720000Y-29440000D01*
X96690001Y-6120000D02*
X96690000Y-29440000D01*
X109050000Y-6120000D02*
X96690001Y-6120000D01*
X109049999Y-29440000D02*
X109050000Y-6120000D01*
X96690000Y-29440000D02*
X109049999Y-29440000D01*
X110660000Y-29440000D02*
X123019999Y-29440000D01*
X123019999Y-29440000D02*
X123020000Y-6120000D01*
X123020000Y-6120000D02*
X110660001Y-6120000D01*
X110660001Y-6120000D02*
X110660000Y-29440000D01*
X46203333Y-56980000D02*
X49709999Y-56980000D01*
X46203333Y-56620000D02*
X46203333Y-56980000D01*
X42696667Y-56620000D02*
X46203333Y-56620000D01*
X42696667Y-56980000D02*
X42696667Y-56620000D01*
X39190000Y-56980000D02*
X42696667Y-56980000D01*
X39190001Y-34460000D02*
X39190000Y-56980000D01*
X49710000Y-34460000D02*
X39190001Y-34460000D01*
X49709999Y-56980000D02*
X49710000Y-34460000D01*
X2710000Y-59869999D02*
X25230000Y-59870000D01*
X25230000Y-59870000D02*
X25230000Y-49350001D01*
X25230000Y-49350001D02*
X2710000Y-49350000D01*
X2710000Y-49350000D02*
X2710000Y-52856667D01*
X2710000Y-52856667D02*
X3070000Y-52856667D01*
X3070000Y-52856667D02*
X3070000Y-56363333D01*
X3070000Y-56363333D02*
X2710000Y-56363333D01*
X2710000Y-56363333D02*
X2710000Y-59869999D01*
D11*
X30773809Y-67762380D02*
X30773809Y-66762380D01*
X31821428Y-67667142D02*
X31773809Y-67714761D01*
X31630952Y-67762380D01*
X31535714Y-67762380D01*
X31392857Y-67714761D01*
X31297619Y-67619523D01*
X31250000Y-67524285D01*
X31202380Y-67333809D01*
X31202380Y-67190952D01*
X31250000Y-67000476D01*
X31297619Y-66905238D01*
X31392857Y-66810000D01*
X31535714Y-66762380D01*
X31630952Y-66762380D01*
X31773809Y-66810000D01*
X31821428Y-66857619D01*
X32773809Y-67762380D02*
X32202380Y-67762380D01*
X32488095Y-67762380D02*
X32488095Y-66762380D01*
X32392857Y-66905238D01*
X32297619Y-67000476D01*
X32202380Y-67048095D01*
X18963333Y-63952380D02*
X18630000Y-63476190D01*
X18391904Y-63952380D02*
X18391904Y-62952380D01*
X18772857Y-62952380D01*
X18868095Y-63000000D01*
X18915714Y-63047619D01*
X18963333Y-63142857D01*
X18963333Y-63285714D01*
X18915714Y-63380952D01*
X18868095Y-63428571D01*
X18772857Y-63476190D01*
X18391904Y-63476190D01*
X19915714Y-63952380D02*
X19344285Y-63952380D01*
X19630000Y-63952380D02*
X19630000Y-62952380D01*
X19534761Y-63095238D01*
X19439523Y-63190476D01*
X19344285Y-63238095D01*
X22042380Y-40806666D02*
X21566190Y-41140000D01*
X22042380Y-41378095D02*
X21042380Y-41378095D01*
X21042380Y-40997142D01*
X21090000Y-40901904D01*
X21137619Y-40854285D01*
X21232857Y-40806666D01*
X21375714Y-40806666D01*
X21470952Y-40854285D01*
X21518571Y-40901904D01*
X21566190Y-40997142D01*
X21566190Y-41378095D01*
X22042380Y-40330476D02*
X22042380Y-40140000D01*
X21994761Y-40044761D01*
X21947142Y-39997142D01*
X21804285Y-39901904D01*
X21613809Y-39854285D01*
X21232857Y-39854285D01*
X21137619Y-39901904D01*
X21090000Y-39949523D01*
X21042380Y-40044761D01*
X21042380Y-40235238D01*
X21090000Y-40330476D01*
X21137619Y-40378095D01*
X21232857Y-40425714D01*
X21470952Y-40425714D01*
X21566190Y-40378095D01*
X21613809Y-40330476D01*
X21661428Y-40235238D01*
X21661428Y-40044761D01*
X21613809Y-39949523D01*
X21566190Y-39901904D01*
X21470952Y-39854285D01*
X19502380Y-40806666D02*
X19026190Y-41140000D01*
X19502380Y-41378095D02*
X18502380Y-41378095D01*
X18502380Y-40997142D01*
X18550000Y-40901904D01*
X18597619Y-40854285D01*
X18692857Y-40806666D01*
X18835714Y-40806666D01*
X18930952Y-40854285D01*
X18978571Y-40901904D01*
X19026190Y-40997142D01*
X19026190Y-41378095D01*
X18930952Y-40235238D02*
X18883333Y-40330476D01*
X18835714Y-40378095D01*
X18740476Y-40425714D01*
X18692857Y-40425714D01*
X18597619Y-40378095D01*
X18550000Y-40330476D01*
X18502380Y-40235238D01*
X18502380Y-40044761D01*
X18550000Y-39949523D01*
X18597619Y-39901904D01*
X18692857Y-39854285D01*
X18740476Y-39854285D01*
X18835714Y-39901904D01*
X18883333Y-39949523D01*
X18930952Y-40044761D01*
X18930952Y-40235238D01*
X18978571Y-40330476D01*
X19026190Y-40378095D01*
X19121428Y-40425714D01*
X19311904Y-40425714D01*
X19407142Y-40378095D01*
X19454761Y-40330476D01*
X19502380Y-40235238D01*
X19502380Y-40044761D01*
X19454761Y-39949523D01*
X19407142Y-39901904D01*
X19311904Y-39854285D01*
X19121428Y-39854285D01*
X19026190Y-39901904D01*
X18978571Y-39949523D01*
X18930952Y-40044761D01*
X16962380Y-40806666D02*
X16486190Y-41140000D01*
X16962380Y-41378095D02*
X15962380Y-41378095D01*
X15962380Y-40997142D01*
X16010000Y-40901904D01*
X16057619Y-40854285D01*
X16152857Y-40806666D01*
X16295714Y-40806666D01*
X16390952Y-40854285D01*
X16438571Y-40901904D01*
X16486190Y-40997142D01*
X16486190Y-41378095D01*
X15962380Y-40473333D02*
X15962380Y-39806666D01*
X16962380Y-40235238D01*
X14422380Y-40806666D02*
X13946190Y-41140000D01*
X14422380Y-41378095D02*
X13422380Y-41378095D01*
X13422380Y-40997142D01*
X13470000Y-40901904D01*
X13517619Y-40854285D01*
X13612857Y-40806666D01*
X13755714Y-40806666D01*
X13850952Y-40854285D01*
X13898571Y-40901904D01*
X13946190Y-40997142D01*
X13946190Y-41378095D01*
X13422380Y-39949523D02*
X13422380Y-40140000D01*
X13470000Y-40235238D01*
X13517619Y-40282857D01*
X13660476Y-40378095D01*
X13850952Y-40425714D01*
X14231904Y-40425714D01*
X14327142Y-40378095D01*
X14374761Y-40330476D01*
X14422380Y-40235238D01*
X14422380Y-40044761D01*
X14374761Y-39949523D01*
X14327142Y-39901904D01*
X14231904Y-39854285D01*
X13993809Y-39854285D01*
X13898571Y-39901904D01*
X13850952Y-39949523D01*
X13803333Y-40044761D01*
X13803333Y-40235238D01*
X13850952Y-40330476D01*
X13898571Y-40378095D01*
X13993809Y-40425714D01*
X11882380Y-40806666D02*
X11406190Y-41140000D01*
X11882380Y-41378095D02*
X10882380Y-41378095D01*
X10882380Y-40997142D01*
X10930000Y-40901904D01*
X10977619Y-40854285D01*
X11072857Y-40806666D01*
X11215714Y-40806666D01*
X11310952Y-40854285D01*
X11358571Y-40901904D01*
X11406190Y-40997142D01*
X11406190Y-41378095D01*
X10882380Y-39901904D02*
X10882380Y-40378095D01*
X11358571Y-40425714D01*
X11310952Y-40378095D01*
X11263333Y-40282857D01*
X11263333Y-40044761D01*
X11310952Y-39949523D01*
X11358571Y-39901904D01*
X11453809Y-39854285D01*
X11691904Y-39854285D01*
X11787142Y-39901904D01*
X11834761Y-39949523D01*
X11882380Y-40044761D01*
X11882380Y-40282857D01*
X11834761Y-40378095D01*
X11787142Y-40425714D01*
X9342380Y-40806666D02*
X8866190Y-41140000D01*
X9342380Y-41378095D02*
X8342380Y-41378095D01*
X8342380Y-40997142D01*
X8390000Y-40901904D01*
X8437619Y-40854285D01*
X8532857Y-40806666D01*
X8675714Y-40806666D01*
X8770952Y-40854285D01*
X8818571Y-40901904D01*
X8866190Y-40997142D01*
X8866190Y-41378095D01*
X8675714Y-39949523D02*
X9342380Y-39949523D01*
X8294761Y-40187619D02*
X9009047Y-40425714D01*
X9009047Y-39806666D01*
X6802380Y-40806666D02*
X6326190Y-41140000D01*
X6802380Y-41378095D02*
X5802380Y-41378095D01*
X5802380Y-40997142D01*
X5850000Y-40901904D01*
X5897619Y-40854285D01*
X5992857Y-40806666D01*
X6135714Y-40806666D01*
X6230952Y-40854285D01*
X6278571Y-40901904D01*
X6326190Y-40997142D01*
X6326190Y-41378095D01*
X5802380Y-40473333D02*
X5802380Y-39854285D01*
X6183333Y-40187619D01*
X6183333Y-40044761D01*
X6230952Y-39949523D01*
X6278571Y-39901904D01*
X6373809Y-39854285D01*
X6611904Y-39854285D01*
X6707142Y-39901904D01*
X6754761Y-39949523D01*
X6802380Y-40044761D01*
X6802380Y-40330476D01*
X6754761Y-40425714D01*
X6707142Y-40473333D01*
X4262380Y-40806666D02*
X3786190Y-41140000D01*
X4262380Y-41378095D02*
X3262380Y-41378095D01*
X3262380Y-40997142D01*
X3310000Y-40901904D01*
X3357619Y-40854285D01*
X3452857Y-40806666D01*
X3595714Y-40806666D01*
X3690952Y-40854285D01*
X3738571Y-40901904D01*
X3786190Y-40997142D01*
X3786190Y-41378095D01*
X3357619Y-40425714D02*
X3310000Y-40378095D01*
X3262380Y-40282857D01*
X3262380Y-40044761D01*
X3310000Y-39949523D01*
X3357619Y-39901904D01*
X3452857Y-39854285D01*
X3548095Y-39854285D01*
X3690952Y-39901904D01*
X4262380Y-40473333D01*
X4262380Y-39854285D01*
X39347142Y-64936666D02*
X39394761Y-64984285D01*
X39442380Y-65127142D01*
X39442380Y-65222380D01*
X39394761Y-65365238D01*
X39299523Y-65460476D01*
X39204285Y-65508095D01*
X39013809Y-65555714D01*
X38870952Y-65555714D01*
X38680476Y-65508095D01*
X38585238Y-65460476D01*
X38490000Y-65365238D01*
X38442380Y-65222380D01*
X38442380Y-65127142D01*
X38490000Y-64984285D01*
X38537619Y-64936666D01*
X39442380Y-63984285D02*
X39442380Y-64555714D01*
X39442380Y-64270000D02*
X38442380Y-64270000D01*
X38585238Y-64365238D01*
X38680476Y-64460476D01*
X38728095Y-64555714D01*
X73251428Y-12334761D02*
X72537142Y-12334761D01*
X72537142Y-10334761D01*
X73751428Y-11287142D02*
X74251428Y-11287142D01*
X74465714Y-12334761D02*
X73751428Y-12334761D01*
X73751428Y-10334761D01*
X74465714Y-10334761D01*
X75108571Y-12334761D02*
X75108571Y-10334761D01*
X75465714Y-10334761D01*
X75680000Y-10430000D01*
X75822857Y-10620476D01*
X75894285Y-10810952D01*
X75965714Y-11191904D01*
X75965714Y-11477619D01*
X75894285Y-11858571D01*
X75822857Y-12049047D01*
X75680000Y-12239523D01*
X75465714Y-12334761D01*
X75108571Y-12334761D01*
X77322857Y-10334761D02*
X76608571Y-10334761D01*
X76537142Y-11287142D01*
X76608571Y-11191904D01*
X76751428Y-11096666D01*
X77108571Y-11096666D01*
X77251428Y-11191904D01*
X77322857Y-11287142D01*
X77394285Y-11477619D01*
X77394285Y-11953809D01*
X77322857Y-12144285D01*
X77251428Y-12239523D01*
X77108571Y-12334761D01*
X76751428Y-12334761D01*
X76608571Y-12239523D01*
X76537142Y-12144285D01*
X71572857Y-18387142D02*
X71787142Y-18458571D01*
X72144285Y-18458571D01*
X72287142Y-18387142D01*
X72358571Y-18315714D01*
X72430000Y-18172857D01*
X72430000Y-18030000D01*
X72358571Y-17887142D01*
X72287142Y-17815714D01*
X72144285Y-17744285D01*
X71858571Y-17672857D01*
X71715714Y-17601428D01*
X71644285Y-17530000D01*
X71572857Y-17387142D01*
X71572857Y-17244285D01*
X71644285Y-17101428D01*
X71715714Y-17030000D01*
X71858571Y-16958571D01*
X72215714Y-16958571D01*
X72430000Y-17030000D01*
X73072857Y-18458571D02*
X73072857Y-16958571D01*
X73930000Y-18458571D01*
X73930000Y-16958571D01*
X74501428Y-16958571D02*
X75501428Y-16958571D01*
X74858571Y-18458571D01*
X76858571Y-18458571D02*
X76001428Y-18458571D01*
X76430000Y-18458571D02*
X76430000Y-16958571D01*
X76287142Y-17172857D01*
X76144285Y-17315714D01*
X76001428Y-17387142D01*
X77358571Y-16958571D02*
X78287142Y-16958571D01*
X77787142Y-17530000D01*
X78001428Y-17530000D01*
X78144285Y-17601428D01*
X78215714Y-17672857D01*
X78287142Y-17815714D01*
X78287142Y-18172857D01*
X78215714Y-18315714D01*
X78144285Y-18387142D01*
X78001428Y-18458571D01*
X77572857Y-18458571D01*
X77430000Y-18387142D01*
X77358571Y-18315714D01*
X44097142Y-65456666D02*
X44144761Y-65504285D01*
X44192380Y-65647142D01*
X44192380Y-65742380D01*
X44144761Y-65885238D01*
X44049523Y-65980476D01*
X43954285Y-66028095D01*
X43763809Y-66075714D01*
X43620952Y-66075714D01*
X43430476Y-66028095D01*
X43335238Y-65980476D01*
X43240000Y-65885238D01*
X43192380Y-65742380D01*
X43192380Y-65647142D01*
X43240000Y-65504285D01*
X43287619Y-65456666D01*
X43287619Y-65075714D02*
X43240000Y-65028095D01*
X43192380Y-64932857D01*
X43192380Y-64694761D01*
X43240000Y-64599523D01*
X43287619Y-64551904D01*
X43382857Y-64504285D01*
X43478095Y-64504285D01*
X43620952Y-64551904D01*
X44192380Y-65123333D01*
X44192380Y-64504285D01*
X51562380Y-54943333D02*
X52276666Y-54943333D01*
X52419523Y-54990952D01*
X52514761Y-55086190D01*
X52562380Y-55229047D01*
X52562380Y-55324285D01*
X52562380Y-53943333D02*
X52562380Y-54514761D01*
X52562380Y-54229047D02*
X51562380Y-54229047D01*
X51705238Y-54324285D01*
X51800476Y-54419523D01*
X51848095Y-54514761D01*
X118872380Y-54943333D02*
X119586666Y-54943333D01*
X119729523Y-54990952D01*
X119824761Y-55086190D01*
X119872380Y-55229047D01*
X119872380Y-55324285D01*
X118967619Y-54514761D02*
X118920000Y-54467142D01*
X118872380Y-54371904D01*
X118872380Y-54133809D01*
X118920000Y-54038571D01*
X118967619Y-53990952D01*
X119062857Y-53943333D01*
X119158095Y-53943333D01*
X119300952Y-53990952D01*
X119872380Y-54562380D01*
X119872380Y-53943333D01*
X11021428Y-12334761D02*
X10307142Y-12334761D01*
X10307142Y-10334761D01*
X11521428Y-11287142D02*
X12021428Y-11287142D01*
X12235714Y-12334761D02*
X11521428Y-12334761D01*
X11521428Y-10334761D01*
X12235714Y-10334761D01*
X12878571Y-12334761D02*
X12878571Y-10334761D01*
X13235714Y-10334761D01*
X13450000Y-10430000D01*
X13592857Y-10620476D01*
X13664285Y-10810952D01*
X13735714Y-11191904D01*
X13735714Y-11477619D01*
X13664285Y-11858571D01*
X13592857Y-12049047D01*
X13450000Y-12239523D01*
X13235714Y-12334761D01*
X12878571Y-12334761D01*
X15164285Y-12334761D02*
X14307142Y-12334761D01*
X14735714Y-12334761D02*
X14735714Y-10334761D01*
X14592857Y-10620476D01*
X14450000Y-10810952D01*
X14307142Y-10906190D01*
X9342857Y-18387142D02*
X9557142Y-18458571D01*
X9914285Y-18458571D01*
X10057142Y-18387142D01*
X10128571Y-18315714D01*
X10200000Y-18172857D01*
X10200000Y-18030000D01*
X10128571Y-17887142D01*
X10057142Y-17815714D01*
X9914285Y-17744285D01*
X9628571Y-17672857D01*
X9485714Y-17601428D01*
X9414285Y-17530000D01*
X9342857Y-17387142D01*
X9342857Y-17244285D01*
X9414285Y-17101428D01*
X9485714Y-17030000D01*
X9628571Y-16958571D01*
X9985714Y-16958571D01*
X10200000Y-17030000D01*
X10842857Y-18458571D02*
X10842857Y-16958571D01*
X11700000Y-18458571D01*
X11700000Y-16958571D01*
X12271428Y-16958571D02*
X13271428Y-16958571D01*
X12628571Y-18458571D01*
X14628571Y-18458571D02*
X13771428Y-18458571D01*
X14200000Y-18458571D02*
X14200000Y-16958571D01*
X14057142Y-17172857D01*
X13914285Y-17315714D01*
X13771428Y-17387142D01*
X15128571Y-16958571D02*
X16057142Y-16958571D01*
X15557142Y-17530000D01*
X15771428Y-17530000D01*
X15914285Y-17601428D01*
X15985714Y-17672857D01*
X16057142Y-17815714D01*
X16057142Y-18172857D01*
X15985714Y-18315714D01*
X15914285Y-18387142D01*
X15771428Y-18458571D01*
X15342857Y-18458571D01*
X15200000Y-18387142D01*
X15128571Y-18315714D01*
X24991428Y-12334761D02*
X24277142Y-12334761D01*
X24277142Y-10334761D01*
X25491428Y-11287142D02*
X25991428Y-11287142D01*
X26205714Y-12334761D02*
X25491428Y-12334761D01*
X25491428Y-10334761D01*
X26205714Y-10334761D01*
X26848571Y-12334761D02*
X26848571Y-10334761D01*
X27205714Y-10334761D01*
X27420000Y-10430000D01*
X27562857Y-10620476D01*
X27634285Y-10810952D01*
X27705714Y-11191904D01*
X27705714Y-11477619D01*
X27634285Y-11858571D01*
X27562857Y-12049047D01*
X27420000Y-12239523D01*
X27205714Y-12334761D01*
X26848571Y-12334761D01*
X28277142Y-10525238D02*
X28348571Y-10430000D01*
X28491428Y-10334761D01*
X28848571Y-10334761D01*
X28991428Y-10430000D01*
X29062857Y-10525238D01*
X29134285Y-10715714D01*
X29134285Y-10906190D01*
X29062857Y-11191904D01*
X28205714Y-12334761D01*
X29134285Y-12334761D01*
X23312857Y-18387142D02*
X23527142Y-18458571D01*
X23884285Y-18458571D01*
X24027142Y-18387142D01*
X24098571Y-18315714D01*
X24170000Y-18172857D01*
X24170000Y-18030000D01*
X24098571Y-17887142D01*
X24027142Y-17815714D01*
X23884285Y-17744285D01*
X23598571Y-17672857D01*
X23455714Y-17601428D01*
X23384285Y-17530000D01*
X23312857Y-17387142D01*
X23312857Y-17244285D01*
X23384285Y-17101428D01*
X23455714Y-17030000D01*
X23598571Y-16958571D01*
X23955714Y-16958571D01*
X24170000Y-17030000D01*
X24812857Y-18458571D02*
X24812857Y-16958571D01*
X25670000Y-18458571D01*
X25670000Y-16958571D01*
X26241428Y-16958571D02*
X27241428Y-16958571D01*
X26598571Y-18458571D01*
X28598571Y-18458571D02*
X27741428Y-18458571D01*
X28170000Y-18458571D02*
X28170000Y-16958571D01*
X28027142Y-17172857D01*
X27884285Y-17315714D01*
X27741428Y-17387142D01*
X29098571Y-16958571D02*
X30027142Y-16958571D01*
X29527142Y-17530000D01*
X29741428Y-17530000D01*
X29884285Y-17601428D01*
X29955714Y-17672857D01*
X30027142Y-17815714D01*
X30027142Y-18172857D01*
X29955714Y-18315714D01*
X29884285Y-18387142D01*
X29741428Y-18458571D01*
X29312857Y-18458571D01*
X29170000Y-18387142D01*
X29098571Y-18315714D01*
X38961428Y-12334761D02*
X38247142Y-12334761D01*
X38247142Y-10334761D01*
X39461428Y-11287142D02*
X39961428Y-11287142D01*
X40175714Y-12334761D02*
X39461428Y-12334761D01*
X39461428Y-10334761D01*
X40175714Y-10334761D01*
X40818571Y-12334761D02*
X40818571Y-10334761D01*
X41175714Y-10334761D01*
X41390000Y-10430000D01*
X41532857Y-10620476D01*
X41604285Y-10810952D01*
X41675714Y-11191904D01*
X41675714Y-11477619D01*
X41604285Y-11858571D01*
X41532857Y-12049047D01*
X41390000Y-12239523D01*
X41175714Y-12334761D01*
X40818571Y-12334761D01*
X42175714Y-10334761D02*
X43104285Y-10334761D01*
X42604285Y-11096666D01*
X42818571Y-11096666D01*
X42961428Y-11191904D01*
X43032857Y-11287142D01*
X43104285Y-11477619D01*
X43104285Y-11953809D01*
X43032857Y-12144285D01*
X42961428Y-12239523D01*
X42818571Y-12334761D01*
X42390000Y-12334761D01*
X42247142Y-12239523D01*
X42175714Y-12144285D01*
X37282857Y-18387142D02*
X37497142Y-18458571D01*
X37854285Y-18458571D01*
X37997142Y-18387142D01*
X38068571Y-18315714D01*
X38140000Y-18172857D01*
X38140000Y-18030000D01*
X38068571Y-17887142D01*
X37997142Y-17815714D01*
X37854285Y-17744285D01*
X37568571Y-17672857D01*
X37425714Y-17601428D01*
X37354285Y-17530000D01*
X37282857Y-17387142D01*
X37282857Y-17244285D01*
X37354285Y-17101428D01*
X37425714Y-17030000D01*
X37568571Y-16958571D01*
X37925714Y-16958571D01*
X38140000Y-17030000D01*
X38782857Y-18458571D02*
X38782857Y-16958571D01*
X39640000Y-18458571D01*
X39640000Y-16958571D01*
X40211428Y-16958571D02*
X41211428Y-16958571D01*
X40568571Y-18458571D01*
X42568571Y-18458571D02*
X41711428Y-18458571D01*
X42140000Y-18458571D02*
X42140000Y-16958571D01*
X41997142Y-17172857D01*
X41854285Y-17315714D01*
X41711428Y-17387142D01*
X43068571Y-16958571D02*
X43997142Y-16958571D01*
X43497142Y-17530000D01*
X43711428Y-17530000D01*
X43854285Y-17601428D01*
X43925714Y-17672857D01*
X43997142Y-17815714D01*
X43997142Y-18172857D01*
X43925714Y-18315714D01*
X43854285Y-18387142D01*
X43711428Y-18458571D01*
X43282857Y-18458571D01*
X43140000Y-18387142D01*
X43068571Y-18315714D01*
X52931428Y-12334761D02*
X52217142Y-12334761D01*
X52217142Y-10334761D01*
X53431428Y-11287142D02*
X53931428Y-11287142D01*
X54145714Y-12334761D02*
X53431428Y-12334761D01*
X53431428Y-10334761D01*
X54145714Y-10334761D01*
X54788571Y-12334761D02*
X54788571Y-10334761D01*
X55145714Y-10334761D01*
X55360000Y-10430000D01*
X55502857Y-10620476D01*
X55574285Y-10810952D01*
X55645714Y-11191904D01*
X55645714Y-11477619D01*
X55574285Y-11858571D01*
X55502857Y-12049047D01*
X55360000Y-12239523D01*
X55145714Y-12334761D01*
X54788571Y-12334761D01*
X56931428Y-11001428D02*
X56931428Y-12334761D01*
X56574285Y-10239523D02*
X56217142Y-11668095D01*
X57145714Y-11668095D01*
X51252857Y-18387142D02*
X51467142Y-18458571D01*
X51824285Y-18458571D01*
X51967142Y-18387142D01*
X52038571Y-18315714D01*
X52110000Y-18172857D01*
X52110000Y-18030000D01*
X52038571Y-17887142D01*
X51967142Y-17815714D01*
X51824285Y-17744285D01*
X51538571Y-17672857D01*
X51395714Y-17601428D01*
X51324285Y-17530000D01*
X51252857Y-17387142D01*
X51252857Y-17244285D01*
X51324285Y-17101428D01*
X51395714Y-17030000D01*
X51538571Y-16958571D01*
X51895714Y-16958571D01*
X52110000Y-17030000D01*
X52752857Y-18458571D02*
X52752857Y-16958571D01*
X53610000Y-18458571D01*
X53610000Y-16958571D01*
X54181428Y-16958571D02*
X55181428Y-16958571D01*
X54538571Y-18458571D01*
X56538571Y-18458571D02*
X55681428Y-18458571D01*
X56110000Y-18458571D02*
X56110000Y-16958571D01*
X55967142Y-17172857D01*
X55824285Y-17315714D01*
X55681428Y-17387142D01*
X57038571Y-16958571D02*
X57967142Y-16958571D01*
X57467142Y-17530000D01*
X57681428Y-17530000D01*
X57824285Y-17601428D01*
X57895714Y-17672857D01*
X57967142Y-17815714D01*
X57967142Y-18172857D01*
X57895714Y-18315714D01*
X57824285Y-18387142D01*
X57681428Y-18458571D01*
X57252857Y-18458571D01*
X57110000Y-18387142D01*
X57038571Y-18315714D01*
X87221428Y-12334761D02*
X86507142Y-12334761D01*
X86507142Y-10334761D01*
X87721428Y-11287142D02*
X88221428Y-11287142D01*
X88435714Y-12334761D02*
X87721428Y-12334761D01*
X87721428Y-10334761D01*
X88435714Y-10334761D01*
X89078571Y-12334761D02*
X89078571Y-10334761D01*
X89435714Y-10334761D01*
X89650000Y-10430000D01*
X89792857Y-10620476D01*
X89864285Y-10810952D01*
X89935714Y-11191904D01*
X89935714Y-11477619D01*
X89864285Y-11858571D01*
X89792857Y-12049047D01*
X89650000Y-12239523D01*
X89435714Y-12334761D01*
X89078571Y-12334761D01*
X91221428Y-10334761D02*
X90935714Y-10334761D01*
X90792857Y-10430000D01*
X90721428Y-10525238D01*
X90578571Y-10810952D01*
X90507142Y-11191904D01*
X90507142Y-11953809D01*
X90578571Y-12144285D01*
X90650000Y-12239523D01*
X90792857Y-12334761D01*
X91078571Y-12334761D01*
X91221428Y-12239523D01*
X91292857Y-12144285D01*
X91364285Y-11953809D01*
X91364285Y-11477619D01*
X91292857Y-11287142D01*
X91221428Y-11191904D01*
X91078571Y-11096666D01*
X90792857Y-11096666D01*
X90650000Y-11191904D01*
X90578571Y-11287142D01*
X90507142Y-11477619D01*
X85542857Y-18387142D02*
X85757142Y-18458571D01*
X86114285Y-18458571D01*
X86257142Y-18387142D01*
X86328571Y-18315714D01*
X86400000Y-18172857D01*
X86400000Y-18030000D01*
X86328571Y-17887142D01*
X86257142Y-17815714D01*
X86114285Y-17744285D01*
X85828571Y-17672857D01*
X85685714Y-17601428D01*
X85614285Y-17530000D01*
X85542857Y-17387142D01*
X85542857Y-17244285D01*
X85614285Y-17101428D01*
X85685714Y-17030000D01*
X85828571Y-16958571D01*
X86185714Y-16958571D01*
X86400000Y-17030000D01*
X87042857Y-18458571D02*
X87042857Y-16958571D01*
X87900000Y-18458571D01*
X87900000Y-16958571D01*
X88471428Y-16958571D02*
X89471428Y-16958571D01*
X88828571Y-18458571D01*
X90828571Y-18458571D02*
X89971428Y-18458571D01*
X90400000Y-18458571D02*
X90400000Y-16958571D01*
X90257142Y-17172857D01*
X90114285Y-17315714D01*
X89971428Y-17387142D01*
X91328571Y-16958571D02*
X92257142Y-16958571D01*
X91757142Y-17530000D01*
X91971428Y-17530000D01*
X92114285Y-17601428D01*
X92185714Y-17672857D01*
X92257142Y-17815714D01*
X92257142Y-18172857D01*
X92185714Y-18315714D01*
X92114285Y-18387142D01*
X91971428Y-18458571D01*
X91542857Y-18458571D01*
X91400000Y-18387142D01*
X91328571Y-18315714D01*
X101191428Y-12334761D02*
X100477142Y-12334761D01*
X100477142Y-10334761D01*
X101691428Y-11287142D02*
X102191428Y-11287142D01*
X102405714Y-12334761D02*
X101691428Y-12334761D01*
X101691428Y-10334761D01*
X102405714Y-10334761D01*
X103048571Y-12334761D02*
X103048571Y-10334761D01*
X103405714Y-10334761D01*
X103620000Y-10430000D01*
X103762857Y-10620476D01*
X103834285Y-10810952D01*
X103905714Y-11191904D01*
X103905714Y-11477619D01*
X103834285Y-11858571D01*
X103762857Y-12049047D01*
X103620000Y-12239523D01*
X103405714Y-12334761D01*
X103048571Y-12334761D01*
X104405714Y-10334761D02*
X105405714Y-10334761D01*
X104762857Y-12334761D01*
X99512857Y-18387142D02*
X99727142Y-18458571D01*
X100084285Y-18458571D01*
X100227142Y-18387142D01*
X100298571Y-18315714D01*
X100370000Y-18172857D01*
X100370000Y-18030000D01*
X100298571Y-17887142D01*
X100227142Y-17815714D01*
X100084285Y-17744285D01*
X99798571Y-17672857D01*
X99655714Y-17601428D01*
X99584285Y-17530000D01*
X99512857Y-17387142D01*
X99512857Y-17244285D01*
X99584285Y-17101428D01*
X99655714Y-17030000D01*
X99798571Y-16958571D01*
X100155714Y-16958571D01*
X100370000Y-17030000D01*
X101012857Y-18458571D02*
X101012857Y-16958571D01*
X101870000Y-18458571D01*
X101870000Y-16958571D01*
X102441428Y-16958571D02*
X103441428Y-16958571D01*
X102798571Y-18458571D01*
X104798571Y-18458571D02*
X103941428Y-18458571D01*
X104370000Y-18458571D02*
X104370000Y-16958571D01*
X104227142Y-17172857D01*
X104084285Y-17315714D01*
X103941428Y-17387142D01*
X105298571Y-16958571D02*
X106227142Y-16958571D01*
X105727142Y-17530000D01*
X105941428Y-17530000D01*
X106084285Y-17601428D01*
X106155714Y-17672857D01*
X106227142Y-17815714D01*
X106227142Y-18172857D01*
X106155714Y-18315714D01*
X106084285Y-18387142D01*
X105941428Y-18458571D01*
X105512857Y-18458571D01*
X105370000Y-18387142D01*
X105298571Y-18315714D01*
X115161428Y-12334761D02*
X114447142Y-12334761D01*
X114447142Y-10334761D01*
X115661428Y-11287142D02*
X116161428Y-11287142D01*
X116375714Y-12334761D02*
X115661428Y-12334761D01*
X115661428Y-10334761D01*
X116375714Y-10334761D01*
X117018571Y-12334761D02*
X117018571Y-10334761D01*
X117375714Y-10334761D01*
X117590000Y-10430000D01*
X117732857Y-10620476D01*
X117804285Y-10810952D01*
X117875714Y-11191904D01*
X117875714Y-11477619D01*
X117804285Y-11858571D01*
X117732857Y-12049047D01*
X117590000Y-12239523D01*
X117375714Y-12334761D01*
X117018571Y-12334761D01*
X118732857Y-11191904D02*
X118590000Y-11096666D01*
X118518571Y-11001428D01*
X118447142Y-10810952D01*
X118447142Y-10715714D01*
X118518571Y-10525238D01*
X118590000Y-10430000D01*
X118732857Y-10334761D01*
X119018571Y-10334761D01*
X119161428Y-10430000D01*
X119232857Y-10525238D01*
X119304285Y-10715714D01*
X119304285Y-10810952D01*
X119232857Y-11001428D01*
X119161428Y-11096666D01*
X119018571Y-11191904D01*
X118732857Y-11191904D01*
X118590000Y-11287142D01*
X118518571Y-11382380D01*
X118447142Y-11572857D01*
X118447142Y-11953809D01*
X118518571Y-12144285D01*
X118590000Y-12239523D01*
X118732857Y-12334761D01*
X119018571Y-12334761D01*
X119161428Y-12239523D01*
X119232857Y-12144285D01*
X119304285Y-11953809D01*
X119304285Y-11572857D01*
X119232857Y-11382380D01*
X119161428Y-11287142D01*
X119018571Y-11191904D01*
X113482857Y-18387142D02*
X113697142Y-18458571D01*
X114054285Y-18458571D01*
X114197142Y-18387142D01*
X114268571Y-18315714D01*
X114340000Y-18172857D01*
X114340000Y-18030000D01*
X114268571Y-17887142D01*
X114197142Y-17815714D01*
X114054285Y-17744285D01*
X113768571Y-17672857D01*
X113625714Y-17601428D01*
X113554285Y-17530000D01*
X113482857Y-17387142D01*
X113482857Y-17244285D01*
X113554285Y-17101428D01*
X113625714Y-17030000D01*
X113768571Y-16958571D01*
X114125714Y-16958571D01*
X114340000Y-17030000D01*
X114982857Y-18458571D02*
X114982857Y-16958571D01*
X115840000Y-18458571D01*
X115840000Y-16958571D01*
X116411428Y-16958571D02*
X117411428Y-16958571D01*
X116768571Y-18458571D01*
X118768571Y-18458571D02*
X117911428Y-18458571D01*
X118340000Y-18458571D02*
X118340000Y-16958571D01*
X118197142Y-17172857D01*
X118054285Y-17315714D01*
X117911428Y-17387142D01*
X119268571Y-16958571D02*
X120197142Y-16958571D01*
X119697142Y-17530000D01*
X119911428Y-17530000D01*
X120054285Y-17601428D01*
X120125714Y-17672857D01*
X120197142Y-17815714D01*
X120197142Y-18172857D01*
X120125714Y-18315714D01*
X120054285Y-18387142D01*
X119911428Y-18458571D01*
X119482857Y-18458571D01*
X119340000Y-18387142D01*
X119268571Y-18315714D01*
X44354761Y-58527619D02*
X44259523Y-58480000D01*
X44164285Y-58384761D01*
X44021428Y-58241904D01*
X43926190Y-58194285D01*
X43830952Y-58194285D01*
X43878571Y-58432380D02*
X43783333Y-58384761D01*
X43688095Y-58289523D01*
X43640476Y-58099047D01*
X43640476Y-57765714D01*
X43688095Y-57575238D01*
X43783333Y-57480000D01*
X43878571Y-57432380D01*
X44069047Y-57432380D01*
X44164285Y-57480000D01*
X44259523Y-57575238D01*
X44307142Y-57765714D01*
X44307142Y-58099047D01*
X44259523Y-58289523D01*
X44164285Y-58384761D01*
X44069047Y-58432380D01*
X43878571Y-58432380D01*
X45259523Y-58432380D02*
X44688095Y-58432380D01*
X44973809Y-58432380D02*
X44973809Y-57432380D01*
X44878571Y-57575238D01*
X44783333Y-57670476D01*
X44688095Y-57718095D01*
X2257619Y-54705238D02*
X2210000Y-54800476D01*
X2114761Y-54895714D01*
X1971904Y-55038571D01*
X1924285Y-55133809D01*
X1924285Y-55229047D01*
X2162380Y-55181428D02*
X2114761Y-55276666D01*
X2019523Y-55371904D01*
X1829047Y-55419523D01*
X1495714Y-55419523D01*
X1305238Y-55371904D01*
X1210000Y-55276666D01*
X1162380Y-55181428D01*
X1162380Y-54990952D01*
X1210000Y-54895714D01*
X1305238Y-54800476D01*
X1495714Y-54752857D01*
X1829047Y-54752857D01*
X2019523Y-54800476D01*
X2114761Y-54895714D01*
X2162380Y-54990952D01*
X2162380Y-55181428D01*
X1257619Y-54371904D02*
X1210000Y-54324285D01*
X1162380Y-54229047D01*
X1162380Y-53990952D01*
X1210000Y-53895714D01*
X1257619Y-53848095D01*
X1352857Y-53800476D01*
X1448095Y-53800476D01*
X1590952Y-53848095D01*
X2162380Y-54419523D01*
X2162380Y-53800476D01*
%LPC*%
D14*
X27780000Y-63500000D03*
X27780000Y-60960000D03*
X27780000Y-58420000D03*
X27780000Y-55880000D03*
X27780000Y-53340000D03*
X27780000Y-50800000D03*
X27780000Y-48260000D03*
X27780000Y-45720000D03*
X27780000Y-43180000D03*
X27780000Y-40640000D03*
X27780000Y-38100000D03*
X27780000Y-35560000D03*
X35720000Y-35560000D03*
X35720000Y-38100000D03*
X35720000Y-40640000D03*
X35720000Y-43180000D03*
X35720000Y-45720000D03*
X35720000Y-48260000D03*
X35720000Y-50800000D03*
X35720000Y-53340000D03*
X35720000Y-55880000D03*
X35720000Y-58420000D03*
X35720000Y-60960000D03*
D15*
X35720000Y-63500000D03*
D16*
X13970000Y-63500000D03*
D17*
X24130000Y-63500000D03*
D16*
X21590000Y-45720000D03*
D17*
X21590000Y-35560000D03*
X19050000Y-35560000D03*
D16*
X19050000Y-45720000D03*
X16510000Y-45720000D03*
D17*
X16510000Y-35560000D03*
X13970000Y-35560000D03*
D16*
X13970000Y-45720000D03*
X11430000Y-45720000D03*
D17*
X11430000Y-35560000D03*
X8890000Y-35560000D03*
D16*
X8890000Y-45720000D03*
X6350000Y-45720000D03*
D17*
X6350000Y-35560000D03*
X3810000Y-35560000D03*
D16*
X3810000Y-45720000D03*
D17*
X40640000Y-63540000D03*
X40640000Y-66040000D03*
D18*
X55520000Y-37530000D03*
X121520000Y-37530000D03*
D19*
X80010000Y-27940000D03*
X80010000Y-7620000D03*
X77470000Y-27940000D03*
X77470000Y-7620000D03*
X74930000Y-27940000D03*
X74930000Y-7620000D03*
X72390000Y-27940000D03*
X72390000Y-7620000D03*
D20*
X69850000Y-27940000D03*
D19*
X69850000Y-7620000D03*
D18*
X3200000Y-66800000D03*
X126800000Y-66800000D03*
X126800000Y-3200000D03*
X3200000Y-3200000D03*
D21*
X46990000Y-66040000D03*
D22*
X46990000Y-64540000D03*
D23*
X54610000Y-59690000D03*
X54610000Y-57150000D03*
X54610000Y-54610000D03*
X54610000Y-52070000D03*
D24*
X54610000Y-49530000D03*
X121920000Y-49530000D03*
D23*
X121920000Y-52070000D03*
X121920000Y-54610000D03*
X121920000Y-57150000D03*
X121920000Y-59690000D03*
D19*
X7620000Y-7620000D03*
D20*
X7620000Y-27940000D03*
D19*
X10160000Y-7620000D03*
X10160000Y-27940000D03*
X12700000Y-7620000D03*
X12700000Y-27940000D03*
X15240000Y-7620000D03*
X15240000Y-27940000D03*
X17780000Y-7620000D03*
X17780000Y-27940000D03*
X31750000Y-27940000D03*
X31750000Y-7620000D03*
X29210000Y-27940000D03*
X29210000Y-7620000D03*
X26670000Y-27940000D03*
X26670000Y-7620000D03*
X24130000Y-27940000D03*
X24130000Y-7620000D03*
D20*
X21590000Y-27940000D03*
D19*
X21590000Y-7620000D03*
X45720000Y-27940000D03*
X45720000Y-7620000D03*
X43180000Y-27940000D03*
X43180000Y-7620000D03*
X40640000Y-27940000D03*
X40640000Y-7620000D03*
X38100000Y-27940000D03*
X38100000Y-7620000D03*
D20*
X35560000Y-27940000D03*
D19*
X35560000Y-7620000D03*
X49530000Y-7620000D03*
D20*
X49530000Y-27940000D03*
D19*
X52070000Y-7620000D03*
X52070000Y-27940000D03*
X54610000Y-7620000D03*
X54610000Y-27940000D03*
X57150000Y-7620000D03*
X57150000Y-27940000D03*
X59690000Y-7620000D03*
X59690000Y-27940000D03*
X83820000Y-7620000D03*
D20*
X83820000Y-27940000D03*
D19*
X86360000Y-7620000D03*
X86360000Y-27940000D03*
X88900000Y-7620000D03*
X88900000Y-27940000D03*
X91440000Y-7620000D03*
X91440000Y-27940000D03*
X93980000Y-7620000D03*
X93980000Y-27940000D03*
X107950000Y-27940000D03*
X107950000Y-7620000D03*
X105410000Y-27940000D03*
X105410000Y-7620000D03*
X102870000Y-27940000D03*
X102870000Y-7620000D03*
X100330000Y-27940000D03*
X100330000Y-7620000D03*
D20*
X97790000Y-27940000D03*
D19*
X97790000Y-7620000D03*
X111760000Y-7620000D03*
D20*
X111760000Y-27940000D03*
D19*
X114300000Y-7620000D03*
X114300000Y-27940000D03*
X116840000Y-7620000D03*
X116840000Y-27940000D03*
X119380000Y-7620000D03*
X119380000Y-27940000D03*
X121920000Y-7620000D03*
X121920000Y-27940000D03*
D23*
X48210000Y-35560000D03*
X40690000Y-35560000D03*
X48210000Y-38100000D03*
X40690000Y-38100000D03*
X48210000Y-40640000D03*
X40690000Y-40640000D03*
X48210000Y-43180000D03*
X40690000Y-43180000D03*
X48210000Y-45720000D03*
X40690000Y-45720000D03*
X48210000Y-48260000D03*
X40690000Y-48260000D03*
X48210000Y-50800000D03*
X40690000Y-50800000D03*
X48210000Y-53340000D03*
X40690000Y-53340000D03*
D24*
X48210000Y-55880000D03*
D23*
X40690000Y-55880000D03*
D19*
X3810000Y-50850000D03*
D20*
X3810000Y-58370000D03*
D19*
X6350000Y-50850000D03*
X6350000Y-58370000D03*
X8890000Y-50850000D03*
X8890000Y-58370000D03*
X11430000Y-50850000D03*
X11430000Y-58370000D03*
X13970000Y-50850000D03*
X13970000Y-58370000D03*
X16510000Y-50850000D03*
X16510000Y-58370000D03*
X19050000Y-50850000D03*
X19050000Y-58370000D03*
X21590000Y-50850000D03*
X21590000Y-58370000D03*
X24130000Y-50850000D03*
X24130000Y-58370000D03*
M02*
