M48
INCH,TZ
T1C0.0157
T2C0.0315
T3C0.0339
T4C0.1181
%
G90
G05
T1
X787Y-2953
X2000Y-15000
X3000Y-6000
X3000Y-8000
X3000Y-17000
X3500Y-9000
X3500Y-21000
X4000Y-7500
X4000Y-8500
X5000Y-6500
X5000Y-9000
X5000Y-22000
X5500Y-8000
X5500Y-21500
X6000Y-7000
X6000Y-19000
X6500Y-6000
X7000Y-7500
X7000Y-9500
X7000Y-16000
X8000Y-17500
X8500Y-6000
X8500Y-7000
X8500Y-8000
X9000Y-9500
X9500Y-8500
X10500Y-6500
X10500Y-9000
X11500Y-7000
X11500Y-13500
X12000Y-4000
X12000Y-17000
X12000Y-22500
X12500Y-7500
X12500Y-9500
X13000Y-22500
X13500Y-23500
X14000Y-6000
X14000Y-8000
X14500Y-4500
X15000Y-8500
X15000Y-13500
X15000Y-14500
X15000Y-18000
X15000Y-20500
X15000Y-22500
X16000Y-6500
X16000Y-9000
X16500Y-5500
X17000Y-7000
X17000Y-16000
X17000Y-16500
X17000Y-20000
X17000Y-20500
X17000Y-22000
X17500Y-5000
X17500Y-24000
X18000Y-7500
X18000Y-9500
X18000Y-23000
X19500Y-6000
X19500Y-8000
X20000Y-5500
X20000Y-17000
X20000Y-19500
X20500Y-8500
X20500Y-18500
X20500Y-24500
X21500Y-6500
X21500Y-9000
X22500Y-7000
X23500Y-7500
X23500Y-9500
X27500Y-6000
X27500Y-8000
X28500Y-8500
X29500Y-6500
X29500Y-9000
X30500Y-7000
X31000Y-4000
X31500Y-7500
X31500Y-9500
X33000Y-6000
X33000Y-8000
X34000Y-8500
X35000Y-6500
X35000Y-9000
X36000Y-7000
X36500Y-4500
X37000Y-7500
X37000Y-9500
X38500Y-6000
X38500Y-8000
X39500Y-8500
X40500Y-6500
X40500Y-9000
X41500Y-7000
X42000Y-5000
X42500Y-7500
X42500Y-9500
X44000Y-6000
X44000Y-8000
X45000Y-8500
X46000Y-6500
X46000Y-9000
X47000Y-7000
X47500Y-5500
X48000Y-7500
X48000Y-9500
T2
X50197Y-3937
X50500Y-14567
X8500Y-14000
X8500Y-18000
X16000Y-25016
X16000Y-26000
X5500Y-25000
X9500Y-25000
X18500Y-25409
X18500Y-26000
X33000Y-3000
X33000Y-11000
X34000Y-3000
X34000Y-11000
X35000Y-3000
X35000Y-11000
X36000Y-3000
X36000Y-11000
X37000Y-3000
X37000Y-11000
X38500Y-3000
X38500Y-11000
X39500Y-3000
X39500Y-11000
X40500Y-3000
X40500Y-11000
X41500Y-3000
X41500Y-11000
X42500Y-3000
X42500Y-11000
X14000Y-3000
X14000Y-11000
X15000Y-3000
X15000Y-11000
X16000Y-3000
X16000Y-11000
X17000Y-3000
X17000Y-11000
X18000Y-3000
X18000Y-11000
X1500Y-14000
X1500Y-18000
X1500Y-20020
X1500Y-22980
X2500Y-20020
X2500Y-22980
X3500Y-20020
X3500Y-22980
X4500Y-20020
X4500Y-22980
X5500Y-20020
X5500Y-22980
X6500Y-20020
X6500Y-22980
X7500Y-20020
X7500Y-22980
X8500Y-20020
X8500Y-22980
X9500Y-20020
X9500Y-22980
X8500Y-3000
X8500Y-11000
X9500Y-3000
X9500Y-11000
X10500Y-3000
X10500Y-11000
X11500Y-3000
X11500Y-11000
X12500Y-3000
X12500Y-11000
X3500Y-14000
X3500Y-18000
X16020Y-14000
X16020Y-15000
X16020Y-16000
X16020Y-17000
X16020Y-18000
X16020Y-19000
X16020Y-20000
X16020Y-21000
X16020Y-22000
X18980Y-14000
X18980Y-15000
X18980Y-16000
X18980Y-17000
X18980Y-18000
X18980Y-19000
X18980Y-20000
X18980Y-21000
X18980Y-22000
X7500Y-14000
X7500Y-18000
X19500Y-3000
X19500Y-11000
X20500Y-3000
X20500Y-11000
X21500Y-3000
X21500Y-11000
X22500Y-3000
X22500Y-11000
X23500Y-3000
X23500Y-11000
X3000Y-3000
X3000Y-11000
X4000Y-3000
X4000Y-11000
X5000Y-3000
X5000Y-11000
X6000Y-3000
X6000Y-11000
X7000Y-3000
X7000Y-11000
X5500Y-14000
X5500Y-18000
X27500Y-3000
X27500Y-11000
X28500Y-3000
X28500Y-11000
X29500Y-3000
X29500Y-11000
X30500Y-3000
X30500Y-11000
X31500Y-3000
X31500Y-11000
X2500Y-14000
X2500Y-18000
X4500Y-14000
X4500Y-18000
X44000Y-3000
X44000Y-11000
X45000Y-3000
X45000Y-11000
X46000Y-3000
X46000Y-11000
X47000Y-3000
X47000Y-11000
X48000Y-3000
X48000Y-11000
X6500Y-14000
X6500Y-18000
X48000Y-19500
X48000Y-20500
X48000Y-21500
X48000Y-22500
X48000Y-23500
X21500Y-19500
X21500Y-20500
X21500Y-21500
X21500Y-22500
X21500Y-23500
T3
X10937Y-14000
X10937Y-15000
X10937Y-16000
X10937Y-17000
X10937Y-18000
X10937Y-19000
X10937Y-20000
X10937Y-21000
X10937Y-22000
X10937Y-23000
X10937Y-24000
X10937Y-25000
X14063Y-14000
X14063Y-15000
X14063Y-16000
X14063Y-17000
X14063Y-18000
X14063Y-19000
X14063Y-20000
X14063Y-21000
X14063Y-22000
X14063Y-23000
X14063Y-24000
X14063Y-25000
T4
X1260Y-26299
X47843Y-14776
X21858Y-14776
X49921Y-26299
X1260Y-1260
X49921Y-1260
T0
M30
