G04 #@! TF.GenerationSoftware,KiCad,Pcbnew,(5.1.5)-3*
G04 #@! TF.CreationDate,2020-06-26T18:21:24+09:00*
G04 #@! TF.ProjectId,TK80LED,544b3830-4c45-4442-9e6b-696361645f70,rev?*
G04 #@! TF.SameCoordinates,Original*
G04 #@! TF.FileFunction,Soldermask,Top*
G04 #@! TF.FilePolarity,Negative*
%FSLAX46Y46*%
G04 Gerber Fmt 4.6, Leading zero omitted, Abs format (unit mm)*
G04 Created by KiCad (PCBNEW (5.1.5)-3) date 2020-06-26 18:21:24*
%MOMM*%
%LPD*%
G04 APERTURE LIST*
%ADD10C,0.100000*%
G04 APERTURE END LIST*
D10*
G36*
X127102585Y-65278802D02*
G01*
X127252410Y-65308604D01*
X127534674Y-65425521D01*
X127788705Y-65595259D01*
X128004741Y-65811295D01*
X128174479Y-66065326D01*
X128291396Y-66347590D01*
X128291396Y-66347591D01*
X128338119Y-66582480D01*
X128351000Y-66647240D01*
X128351000Y-66952760D01*
X128291396Y-67252410D01*
X128174479Y-67534674D01*
X128004741Y-67788705D01*
X127788705Y-68004741D01*
X127534674Y-68174479D01*
X127252410Y-68291396D01*
X127102585Y-68321198D01*
X126952761Y-68351000D01*
X126647239Y-68351000D01*
X126497415Y-68321198D01*
X126347590Y-68291396D01*
X126065326Y-68174479D01*
X125811295Y-68004741D01*
X125595259Y-67788705D01*
X125425521Y-67534674D01*
X125308604Y-67252410D01*
X125249000Y-66952760D01*
X125249000Y-66647240D01*
X125261882Y-66582480D01*
X125308604Y-66347591D01*
X125308604Y-66347590D01*
X125425521Y-66065326D01*
X125595259Y-65811295D01*
X125811295Y-65595259D01*
X126065326Y-65425521D01*
X126347590Y-65308604D01*
X126497415Y-65278802D01*
X126647239Y-65249000D01*
X126952761Y-65249000D01*
X127102585Y-65278802D01*
G37*
G36*
X3502585Y-65278802D02*
G01*
X3652410Y-65308604D01*
X3934674Y-65425521D01*
X4188705Y-65595259D01*
X4404741Y-65811295D01*
X4574479Y-66065326D01*
X4691396Y-66347590D01*
X4691396Y-66347591D01*
X4738119Y-66582480D01*
X4751000Y-66647240D01*
X4751000Y-66952760D01*
X4691396Y-67252410D01*
X4574479Y-67534674D01*
X4404741Y-67788705D01*
X4188705Y-68004741D01*
X3934674Y-68174479D01*
X3652410Y-68291396D01*
X3502585Y-68321198D01*
X3352761Y-68351000D01*
X3047239Y-68351000D01*
X2897415Y-68321198D01*
X2747590Y-68291396D01*
X2465326Y-68174479D01*
X2211295Y-68004741D01*
X1995259Y-67788705D01*
X1825521Y-67534674D01*
X1708604Y-67252410D01*
X1649000Y-66952760D01*
X1649000Y-66647240D01*
X1661882Y-66582480D01*
X1708604Y-66347591D01*
X1708604Y-66347590D01*
X1825521Y-66065326D01*
X1995259Y-65811295D01*
X2211295Y-65595259D01*
X2465326Y-65425521D01*
X2747590Y-65308604D01*
X2897415Y-65278802D01*
X3047239Y-65249000D01*
X3352761Y-65249000D01*
X3502585Y-65278802D01*
G37*
G36*
X40888228Y-65221703D02*
G01*
X41043100Y-65285853D01*
X41182481Y-65378985D01*
X41301015Y-65497519D01*
X41394147Y-65636900D01*
X41458297Y-65791772D01*
X41491000Y-65956184D01*
X41491000Y-66123816D01*
X41458297Y-66288228D01*
X41394147Y-66443100D01*
X41301015Y-66582481D01*
X41182481Y-66701015D01*
X41043100Y-66794147D01*
X40888228Y-66858297D01*
X40723816Y-66891000D01*
X40556184Y-66891000D01*
X40391772Y-66858297D01*
X40236900Y-66794147D01*
X40097519Y-66701015D01*
X39978985Y-66582481D01*
X39885853Y-66443100D01*
X39821703Y-66288228D01*
X39789000Y-66123816D01*
X39789000Y-65956184D01*
X39821703Y-65791772D01*
X39885853Y-65636900D01*
X39978985Y-65497519D01*
X40097519Y-65378985D01*
X40236900Y-65285853D01*
X40391772Y-65221703D01*
X40556184Y-65189000D01*
X40723816Y-65189000D01*
X40888228Y-65221703D01*
G37*
G36*
X47179890Y-63914017D02*
G01*
X47298364Y-63963091D01*
X47404988Y-64034335D01*
X47495665Y-64125012D01*
X47546449Y-64201015D01*
X47566910Y-64231638D01*
X47615983Y-64350110D01*
X47641000Y-64475882D01*
X47641000Y-64604118D01*
X47615983Y-64729890D01*
X47566909Y-64848364D01*
X47495665Y-64954988D01*
X47404988Y-65045665D01*
X47298364Y-65116909D01*
X47298363Y-65116910D01*
X47298362Y-65116910D01*
X47222056Y-65148517D01*
X47200445Y-65160068D01*
X47181503Y-65175613D01*
X47165958Y-65194555D01*
X47154407Y-65216166D01*
X47147294Y-65239615D01*
X47144892Y-65264001D01*
X47147294Y-65288387D01*
X47154407Y-65311836D01*
X47165958Y-65333447D01*
X47181503Y-65352389D01*
X47200445Y-65367934D01*
X47222056Y-65379485D01*
X47245505Y-65386598D01*
X47269891Y-65389000D01*
X47641000Y-65389000D01*
X47641000Y-66691000D01*
X46339000Y-66691000D01*
X46339000Y-65389000D01*
X46710109Y-65389000D01*
X46734495Y-65386598D01*
X46757944Y-65379485D01*
X46779555Y-65367934D01*
X46798497Y-65352389D01*
X46814042Y-65333447D01*
X46825593Y-65311836D01*
X46832706Y-65288387D01*
X46835108Y-65264001D01*
X46832706Y-65239615D01*
X46825593Y-65216166D01*
X46814042Y-65194555D01*
X46798497Y-65175613D01*
X46779555Y-65160068D01*
X46757944Y-65148517D01*
X46681638Y-65116910D01*
X46681637Y-65116910D01*
X46681636Y-65116909D01*
X46575012Y-65045665D01*
X46484335Y-64954988D01*
X46413091Y-64848364D01*
X46364017Y-64729890D01*
X46339000Y-64604118D01*
X46339000Y-64475882D01*
X46364017Y-64350110D01*
X46413090Y-64231638D01*
X46433552Y-64201015D01*
X46484335Y-64125012D01*
X46575012Y-64034335D01*
X46681636Y-63963091D01*
X46800110Y-63914017D01*
X46925881Y-63889000D01*
X47054119Y-63889000D01*
X47179890Y-63914017D01*
G37*
G36*
X40888228Y-62721703D02*
G01*
X41043100Y-62785853D01*
X41182481Y-62878985D01*
X41301015Y-62997519D01*
X41394147Y-63136900D01*
X41458297Y-63291772D01*
X41491000Y-63456184D01*
X41491000Y-63623816D01*
X41458297Y-63788228D01*
X41394147Y-63943100D01*
X41301015Y-64082481D01*
X41182481Y-64201015D01*
X41043100Y-64294147D01*
X40888228Y-64358297D01*
X40723816Y-64391000D01*
X40556184Y-64391000D01*
X40391772Y-64358297D01*
X40236900Y-64294147D01*
X40097519Y-64201015D01*
X39978985Y-64082481D01*
X39885853Y-63943100D01*
X39821703Y-63788228D01*
X39789000Y-63623816D01*
X39789000Y-63456184D01*
X39821703Y-63291772D01*
X39885853Y-63136900D01*
X39978985Y-62997519D01*
X40097519Y-62878985D01*
X40236900Y-62785853D01*
X40391772Y-62721703D01*
X40556184Y-62689000D01*
X40723816Y-62689000D01*
X40888228Y-62721703D01*
G37*
G36*
X24378228Y-62681703D02*
G01*
X24533100Y-62745853D01*
X24672481Y-62838985D01*
X24791015Y-62957519D01*
X24884147Y-63096900D01*
X24948297Y-63251772D01*
X24981000Y-63416184D01*
X24981000Y-63583816D01*
X24948297Y-63748228D01*
X24884147Y-63903100D01*
X24791015Y-64042481D01*
X24672481Y-64161015D01*
X24533100Y-64254147D01*
X24378228Y-64318297D01*
X24213816Y-64351000D01*
X24046184Y-64351000D01*
X23881772Y-64318297D01*
X23726900Y-64254147D01*
X23587519Y-64161015D01*
X23468985Y-64042481D01*
X23375853Y-63903100D01*
X23311703Y-63748228D01*
X23279000Y-63583816D01*
X23279000Y-63416184D01*
X23311703Y-63251772D01*
X23375853Y-63096900D01*
X23468985Y-62957519D01*
X23587519Y-62838985D01*
X23726900Y-62745853D01*
X23881772Y-62681703D01*
X24046184Y-62649000D01*
X24213816Y-62649000D01*
X24378228Y-62681703D01*
G37*
G36*
X14218228Y-62681703D02*
G01*
X14373100Y-62745853D01*
X14512481Y-62838985D01*
X14631015Y-62957519D01*
X14724147Y-63096900D01*
X14788297Y-63251772D01*
X14821000Y-63416184D01*
X14821000Y-63583816D01*
X14788297Y-63748228D01*
X14724147Y-63903100D01*
X14631015Y-64042481D01*
X14512481Y-64161015D01*
X14373100Y-64254147D01*
X14218228Y-64318297D01*
X14053816Y-64351000D01*
X13886184Y-64351000D01*
X13721772Y-64318297D01*
X13566900Y-64254147D01*
X13427519Y-64161015D01*
X13308985Y-64042481D01*
X13215853Y-63903100D01*
X13151703Y-63748228D01*
X13119000Y-63583816D01*
X13119000Y-63416184D01*
X13151703Y-63251772D01*
X13215853Y-63096900D01*
X13308985Y-62957519D01*
X13427519Y-62838985D01*
X13566900Y-62745853D01*
X13721772Y-62681703D01*
X13886184Y-62649000D01*
X14053816Y-62649000D01*
X14218228Y-62681703D01*
G37*
G36*
X36376000Y-64156000D02*
G01*
X35064000Y-64156000D01*
X35064000Y-62844000D01*
X36376000Y-62844000D01*
X36376000Y-64156000D01*
G37*
G36*
X27971347Y-62869209D02*
G01*
X28090734Y-62918661D01*
X28198173Y-62990449D01*
X28289551Y-63081827D01*
X28361339Y-63189266D01*
X28410791Y-63308653D01*
X28436000Y-63435388D01*
X28436000Y-63564612D01*
X28410791Y-63691347D01*
X28361339Y-63810734D01*
X28289551Y-63918173D01*
X28198173Y-64009551D01*
X28090734Y-64081339D01*
X28090733Y-64081340D01*
X28090732Y-64081340D01*
X28087977Y-64082481D01*
X27971347Y-64130791D01*
X27844612Y-64156000D01*
X27715388Y-64156000D01*
X27588653Y-64130791D01*
X27472023Y-64082481D01*
X27469268Y-64081340D01*
X27469267Y-64081340D01*
X27469266Y-64081339D01*
X27361827Y-64009551D01*
X27270449Y-63918173D01*
X27198661Y-63810734D01*
X27149209Y-63691347D01*
X27124000Y-63564612D01*
X27124000Y-63435388D01*
X27149209Y-63308653D01*
X27198661Y-63189266D01*
X27270449Y-63081827D01*
X27361827Y-62990449D01*
X27469266Y-62918661D01*
X27588653Y-62869209D01*
X27715388Y-62844000D01*
X27844612Y-62844000D01*
X27971347Y-62869209D01*
G37*
G36*
X27971347Y-60329209D02*
G01*
X28090734Y-60378661D01*
X28198173Y-60450449D01*
X28289551Y-60541827D01*
X28361339Y-60649266D01*
X28410791Y-60768653D01*
X28436000Y-60895388D01*
X28436000Y-61024612D01*
X28410791Y-61151347D01*
X28361339Y-61270734D01*
X28289551Y-61378173D01*
X28198173Y-61469551D01*
X28090734Y-61541339D01*
X27971347Y-61590791D01*
X27844612Y-61616000D01*
X27715388Y-61616000D01*
X27588653Y-61590791D01*
X27469266Y-61541339D01*
X27361827Y-61469551D01*
X27270449Y-61378173D01*
X27198661Y-61270734D01*
X27149209Y-61151347D01*
X27124000Y-61024612D01*
X27124000Y-60895388D01*
X27149209Y-60768653D01*
X27198661Y-60649266D01*
X27270449Y-60541827D01*
X27361827Y-60450449D01*
X27469266Y-60378661D01*
X27588653Y-60329209D01*
X27715388Y-60304000D01*
X27844612Y-60304000D01*
X27971347Y-60329209D01*
G37*
G36*
X35911347Y-60329209D02*
G01*
X36030734Y-60378661D01*
X36138173Y-60450449D01*
X36229551Y-60541827D01*
X36301339Y-60649266D01*
X36350791Y-60768653D01*
X36376000Y-60895388D01*
X36376000Y-61024612D01*
X36350791Y-61151347D01*
X36301339Y-61270734D01*
X36229551Y-61378173D01*
X36138173Y-61469551D01*
X36030734Y-61541339D01*
X35911347Y-61590791D01*
X35784612Y-61616000D01*
X35655388Y-61616000D01*
X35528653Y-61590791D01*
X35409266Y-61541339D01*
X35301827Y-61469551D01*
X35210449Y-61378173D01*
X35138661Y-61270734D01*
X35089209Y-61151347D01*
X35064000Y-61024612D01*
X35064000Y-60895388D01*
X35089209Y-60768653D01*
X35138661Y-60649266D01*
X35210449Y-60541827D01*
X35301827Y-60450449D01*
X35409266Y-60378661D01*
X35528653Y-60329209D01*
X35655388Y-60304000D01*
X35784612Y-60304000D01*
X35911347Y-60329209D01*
G37*
G36*
X122383855Y-59042140D02*
G01*
X122447618Y-59048420D01*
X122538404Y-59075960D01*
X122570336Y-59085646D01*
X122683425Y-59146094D01*
X122782554Y-59227446D01*
X122863906Y-59326575D01*
X122924354Y-59439664D01*
X122924355Y-59439668D01*
X122961580Y-59562382D01*
X122974149Y-59690000D01*
X122961580Y-59817618D01*
X122934040Y-59908404D01*
X122924354Y-59940336D01*
X122863906Y-60053425D01*
X122782554Y-60152554D01*
X122683425Y-60233906D01*
X122570336Y-60294354D01*
X122538537Y-60304000D01*
X122447618Y-60331580D01*
X122383855Y-60337860D01*
X122351974Y-60341000D01*
X121488026Y-60341000D01*
X121456145Y-60337860D01*
X121392382Y-60331580D01*
X121301463Y-60304000D01*
X121269664Y-60294354D01*
X121156575Y-60233906D01*
X121057446Y-60152554D01*
X120976094Y-60053425D01*
X120915646Y-59940336D01*
X120905960Y-59908404D01*
X120878420Y-59817618D01*
X120865851Y-59690000D01*
X120878420Y-59562382D01*
X120915645Y-59439668D01*
X120915646Y-59439664D01*
X120976094Y-59326575D01*
X121057446Y-59227446D01*
X121156575Y-59146094D01*
X121269664Y-59085646D01*
X121301596Y-59075960D01*
X121392382Y-59048420D01*
X121456145Y-59042140D01*
X121488026Y-59039000D01*
X122351974Y-59039000D01*
X122383855Y-59042140D01*
G37*
G36*
X55073855Y-59042140D02*
G01*
X55137618Y-59048420D01*
X55228404Y-59075960D01*
X55260336Y-59085646D01*
X55373425Y-59146094D01*
X55472554Y-59227446D01*
X55553906Y-59326575D01*
X55614354Y-59439664D01*
X55614355Y-59439668D01*
X55651580Y-59562382D01*
X55664149Y-59690000D01*
X55651580Y-59817618D01*
X55624040Y-59908404D01*
X55614354Y-59940336D01*
X55553906Y-60053425D01*
X55472554Y-60152554D01*
X55373425Y-60233906D01*
X55260336Y-60294354D01*
X55228537Y-60304000D01*
X55137618Y-60331580D01*
X55073855Y-60337860D01*
X55041974Y-60341000D01*
X54178026Y-60341000D01*
X54146145Y-60337860D01*
X54082382Y-60331580D01*
X53991463Y-60304000D01*
X53959664Y-60294354D01*
X53846575Y-60233906D01*
X53747446Y-60152554D01*
X53666094Y-60053425D01*
X53605646Y-59940336D01*
X53595960Y-59908404D01*
X53568420Y-59817618D01*
X53555851Y-59690000D01*
X53568420Y-59562382D01*
X53605645Y-59439668D01*
X53605646Y-59439664D01*
X53666094Y-59326575D01*
X53747446Y-59227446D01*
X53846575Y-59146094D01*
X53959664Y-59085646D01*
X53991596Y-59075960D01*
X54082382Y-59048420D01*
X54146145Y-59042140D01*
X54178026Y-59039000D01*
X55041974Y-59039000D01*
X55073855Y-59042140D01*
G37*
G36*
X14097617Y-57328420D02*
G01*
X14188403Y-57355960D01*
X14220335Y-57365646D01*
X14333424Y-57426094D01*
X14432554Y-57507447D01*
X14513906Y-57606575D01*
X14574354Y-57719664D01*
X14584040Y-57751596D01*
X14611580Y-57842382D01*
X14621000Y-57938027D01*
X14621000Y-58801973D01*
X14611580Y-58897618D01*
X14601894Y-58929548D01*
X14574354Y-59020336D01*
X14513906Y-59133425D01*
X14432554Y-59232554D01*
X14333425Y-59313906D01*
X14220336Y-59374354D01*
X14188404Y-59384040D01*
X14097618Y-59411580D01*
X13970000Y-59424149D01*
X13842383Y-59411580D01*
X13751597Y-59384040D01*
X13719665Y-59374354D01*
X13606576Y-59313906D01*
X13507447Y-59232554D01*
X13426095Y-59133425D01*
X13365647Y-59020336D01*
X13359884Y-59001339D01*
X13328420Y-58897618D01*
X13319000Y-58801973D01*
X13319000Y-57938028D01*
X13328420Y-57842383D01*
X13365645Y-57719669D01*
X13365646Y-57719665D01*
X13426094Y-57606576D01*
X13507447Y-57507446D01*
X13606575Y-57426094D01*
X13719664Y-57365646D01*
X13751596Y-57355960D01*
X13842382Y-57328420D01*
X13970000Y-57315851D01*
X14097617Y-57328420D01*
G37*
G36*
X19177617Y-57328420D02*
G01*
X19268403Y-57355960D01*
X19300335Y-57365646D01*
X19413424Y-57426094D01*
X19512554Y-57507447D01*
X19593906Y-57606575D01*
X19654354Y-57719664D01*
X19664040Y-57751596D01*
X19691580Y-57842382D01*
X19701000Y-57938027D01*
X19701000Y-58801973D01*
X19691580Y-58897618D01*
X19681894Y-58929548D01*
X19654354Y-59020336D01*
X19593906Y-59133425D01*
X19512554Y-59232554D01*
X19413425Y-59313906D01*
X19300336Y-59374354D01*
X19268404Y-59384040D01*
X19177618Y-59411580D01*
X19050000Y-59424149D01*
X18922383Y-59411580D01*
X18831597Y-59384040D01*
X18799665Y-59374354D01*
X18686576Y-59313906D01*
X18587447Y-59232554D01*
X18506095Y-59133425D01*
X18445647Y-59020336D01*
X18439884Y-59001339D01*
X18408420Y-58897618D01*
X18399000Y-58801973D01*
X18399000Y-57938028D01*
X18408420Y-57842383D01*
X18445645Y-57719669D01*
X18445646Y-57719665D01*
X18506094Y-57606576D01*
X18587447Y-57507446D01*
X18686575Y-57426094D01*
X18799664Y-57365646D01*
X18831596Y-57355960D01*
X18922382Y-57328420D01*
X19050000Y-57315851D01*
X19177617Y-57328420D01*
G37*
G36*
X11557617Y-57328420D02*
G01*
X11648403Y-57355960D01*
X11680335Y-57365646D01*
X11793424Y-57426094D01*
X11892554Y-57507447D01*
X11973906Y-57606575D01*
X12034354Y-57719664D01*
X12044040Y-57751596D01*
X12071580Y-57842382D01*
X12081000Y-57938027D01*
X12081000Y-58801973D01*
X12071580Y-58897618D01*
X12061894Y-58929548D01*
X12034354Y-59020336D01*
X11973906Y-59133425D01*
X11892554Y-59232554D01*
X11793425Y-59313906D01*
X11680336Y-59374354D01*
X11648404Y-59384040D01*
X11557618Y-59411580D01*
X11430000Y-59424149D01*
X11302383Y-59411580D01*
X11211597Y-59384040D01*
X11179665Y-59374354D01*
X11066576Y-59313906D01*
X10967447Y-59232554D01*
X10886095Y-59133425D01*
X10825647Y-59020336D01*
X10819884Y-59001339D01*
X10788420Y-58897618D01*
X10779000Y-58801973D01*
X10779000Y-57938028D01*
X10788420Y-57842383D01*
X10825645Y-57719669D01*
X10825646Y-57719665D01*
X10886094Y-57606576D01*
X10967447Y-57507446D01*
X11066575Y-57426094D01*
X11179664Y-57365646D01*
X11211596Y-57355960D01*
X11302382Y-57328420D01*
X11430000Y-57315851D01*
X11557617Y-57328420D01*
G37*
G36*
X9017617Y-57328420D02*
G01*
X9108403Y-57355960D01*
X9140335Y-57365646D01*
X9253424Y-57426094D01*
X9352554Y-57507447D01*
X9433906Y-57606575D01*
X9494354Y-57719664D01*
X9504040Y-57751596D01*
X9531580Y-57842382D01*
X9541000Y-57938027D01*
X9541000Y-58801973D01*
X9531580Y-58897618D01*
X9521894Y-58929548D01*
X9494354Y-59020336D01*
X9433906Y-59133425D01*
X9352554Y-59232554D01*
X9253425Y-59313906D01*
X9140336Y-59374354D01*
X9108404Y-59384040D01*
X9017618Y-59411580D01*
X8890000Y-59424149D01*
X8762383Y-59411580D01*
X8671597Y-59384040D01*
X8639665Y-59374354D01*
X8526576Y-59313906D01*
X8427447Y-59232554D01*
X8346095Y-59133425D01*
X8285647Y-59020336D01*
X8279884Y-59001339D01*
X8248420Y-58897618D01*
X8239000Y-58801973D01*
X8239000Y-57938028D01*
X8248420Y-57842383D01*
X8285645Y-57719669D01*
X8285646Y-57719665D01*
X8346094Y-57606576D01*
X8427447Y-57507446D01*
X8526575Y-57426094D01*
X8639664Y-57365646D01*
X8671596Y-57355960D01*
X8762382Y-57328420D01*
X8890000Y-57315851D01*
X9017617Y-57328420D01*
G37*
G36*
X6477617Y-57328420D02*
G01*
X6568403Y-57355960D01*
X6600335Y-57365646D01*
X6713424Y-57426094D01*
X6812554Y-57507447D01*
X6893906Y-57606575D01*
X6954354Y-57719664D01*
X6964040Y-57751596D01*
X6991580Y-57842382D01*
X7001000Y-57938027D01*
X7001000Y-58801973D01*
X6991580Y-58897618D01*
X6981894Y-58929548D01*
X6954354Y-59020336D01*
X6893906Y-59133425D01*
X6812554Y-59232554D01*
X6713425Y-59313906D01*
X6600336Y-59374354D01*
X6568404Y-59384040D01*
X6477618Y-59411580D01*
X6350000Y-59424149D01*
X6222383Y-59411580D01*
X6131597Y-59384040D01*
X6099665Y-59374354D01*
X5986576Y-59313906D01*
X5887447Y-59232554D01*
X5806095Y-59133425D01*
X5745647Y-59020336D01*
X5739884Y-59001339D01*
X5708420Y-58897618D01*
X5699000Y-58801973D01*
X5699000Y-57938028D01*
X5708420Y-57842383D01*
X5745645Y-57719669D01*
X5745646Y-57719665D01*
X5806094Y-57606576D01*
X5887447Y-57507446D01*
X5986575Y-57426094D01*
X6099664Y-57365646D01*
X6131596Y-57355960D01*
X6222382Y-57328420D01*
X6350000Y-57315851D01*
X6477617Y-57328420D01*
G37*
G36*
X16637617Y-57328420D02*
G01*
X16728403Y-57355960D01*
X16760335Y-57365646D01*
X16873424Y-57426094D01*
X16972554Y-57507447D01*
X17053906Y-57606575D01*
X17114354Y-57719664D01*
X17124040Y-57751596D01*
X17151580Y-57842382D01*
X17161000Y-57938027D01*
X17161000Y-58801973D01*
X17151580Y-58897618D01*
X17141894Y-58929548D01*
X17114354Y-59020336D01*
X17053906Y-59133425D01*
X16972554Y-59232554D01*
X16873425Y-59313906D01*
X16760336Y-59374354D01*
X16728404Y-59384040D01*
X16637618Y-59411580D01*
X16510000Y-59424149D01*
X16382383Y-59411580D01*
X16291597Y-59384040D01*
X16259665Y-59374354D01*
X16146576Y-59313906D01*
X16047447Y-59232554D01*
X15966095Y-59133425D01*
X15905647Y-59020336D01*
X15899884Y-59001339D01*
X15868420Y-58897618D01*
X15859000Y-58801973D01*
X15859000Y-57938028D01*
X15868420Y-57842383D01*
X15905645Y-57719669D01*
X15905646Y-57719665D01*
X15966094Y-57606576D01*
X16047447Y-57507446D01*
X16146575Y-57426094D01*
X16259664Y-57365646D01*
X16291596Y-57355960D01*
X16382382Y-57328420D01*
X16510000Y-57315851D01*
X16637617Y-57328420D01*
G37*
G36*
X21717617Y-57328420D02*
G01*
X21808403Y-57355960D01*
X21840335Y-57365646D01*
X21953424Y-57426094D01*
X22052554Y-57507447D01*
X22133906Y-57606575D01*
X22194354Y-57719664D01*
X22204040Y-57751596D01*
X22231580Y-57842382D01*
X22241000Y-57938027D01*
X22241000Y-58801973D01*
X22231580Y-58897618D01*
X22221894Y-58929548D01*
X22194354Y-59020336D01*
X22133906Y-59133425D01*
X22052554Y-59232554D01*
X21953425Y-59313906D01*
X21840336Y-59374354D01*
X21808404Y-59384040D01*
X21717618Y-59411580D01*
X21590000Y-59424149D01*
X21462383Y-59411580D01*
X21371597Y-59384040D01*
X21339665Y-59374354D01*
X21226576Y-59313906D01*
X21127447Y-59232554D01*
X21046095Y-59133425D01*
X20985647Y-59020336D01*
X20979884Y-59001339D01*
X20948420Y-58897618D01*
X20939000Y-58801973D01*
X20939000Y-57938028D01*
X20948420Y-57842383D01*
X20985645Y-57719669D01*
X20985646Y-57719665D01*
X21046094Y-57606576D01*
X21127447Y-57507446D01*
X21226575Y-57426094D01*
X21339664Y-57365646D01*
X21371596Y-57355960D01*
X21462382Y-57328420D01*
X21590000Y-57315851D01*
X21717617Y-57328420D01*
G37*
G36*
X24257617Y-57328420D02*
G01*
X24348403Y-57355960D01*
X24380335Y-57365646D01*
X24493424Y-57426094D01*
X24592554Y-57507447D01*
X24673906Y-57606575D01*
X24734354Y-57719664D01*
X24744040Y-57751596D01*
X24771580Y-57842382D01*
X24781000Y-57938027D01*
X24781000Y-58801973D01*
X24771580Y-58897618D01*
X24761894Y-58929548D01*
X24734354Y-59020336D01*
X24673906Y-59133425D01*
X24592554Y-59232554D01*
X24493425Y-59313906D01*
X24380336Y-59374354D01*
X24348404Y-59384040D01*
X24257618Y-59411580D01*
X24130000Y-59424149D01*
X24002383Y-59411580D01*
X23911597Y-59384040D01*
X23879665Y-59374354D01*
X23766576Y-59313906D01*
X23667447Y-59232554D01*
X23586095Y-59133425D01*
X23525647Y-59020336D01*
X23519884Y-59001339D01*
X23488420Y-58897618D01*
X23479000Y-58801973D01*
X23479000Y-57938028D01*
X23488420Y-57842383D01*
X23525645Y-57719669D01*
X23525646Y-57719665D01*
X23586094Y-57606576D01*
X23667447Y-57507446D01*
X23766575Y-57426094D01*
X23879664Y-57365646D01*
X23911596Y-57355960D01*
X24002382Y-57328420D01*
X24130000Y-57315851D01*
X24257617Y-57328420D01*
G37*
G36*
X4461000Y-59421000D02*
G01*
X3159000Y-59421000D01*
X3159000Y-57319000D01*
X4461000Y-57319000D01*
X4461000Y-59421000D01*
G37*
G36*
X35911347Y-57789209D02*
G01*
X36030734Y-57838661D01*
X36138173Y-57910449D01*
X36229551Y-58001827D01*
X36301339Y-58109266D01*
X36350791Y-58228653D01*
X36376000Y-58355388D01*
X36376000Y-58484612D01*
X36350791Y-58611347D01*
X36301339Y-58730734D01*
X36229551Y-58838173D01*
X36138173Y-58929551D01*
X36030734Y-59001339D01*
X35911347Y-59050791D01*
X35784612Y-59076000D01*
X35655388Y-59076000D01*
X35528653Y-59050791D01*
X35409266Y-59001339D01*
X35301827Y-58929551D01*
X35210449Y-58838173D01*
X35138661Y-58730734D01*
X35089209Y-58611347D01*
X35064000Y-58484612D01*
X35064000Y-58355388D01*
X35089209Y-58228653D01*
X35138661Y-58109266D01*
X35210449Y-58001827D01*
X35301827Y-57910449D01*
X35409266Y-57838661D01*
X35528653Y-57789209D01*
X35655388Y-57764000D01*
X35784612Y-57764000D01*
X35911347Y-57789209D01*
G37*
G36*
X27971347Y-57789209D02*
G01*
X28090734Y-57838661D01*
X28198173Y-57910449D01*
X28289551Y-58001827D01*
X28361339Y-58109266D01*
X28410791Y-58228653D01*
X28436000Y-58355388D01*
X28436000Y-58484612D01*
X28410791Y-58611347D01*
X28361339Y-58730734D01*
X28289551Y-58838173D01*
X28198173Y-58929551D01*
X28090734Y-59001339D01*
X27971347Y-59050791D01*
X27844612Y-59076000D01*
X27715388Y-59076000D01*
X27588653Y-59050791D01*
X27469266Y-59001339D01*
X27361827Y-58929551D01*
X27270449Y-58838173D01*
X27198661Y-58730734D01*
X27149209Y-58611347D01*
X27124000Y-58484612D01*
X27124000Y-58355388D01*
X27149209Y-58228653D01*
X27198661Y-58109266D01*
X27270449Y-58001827D01*
X27361827Y-57910449D01*
X27469266Y-57838661D01*
X27588653Y-57789209D01*
X27715388Y-57764000D01*
X27844612Y-57764000D01*
X27971347Y-57789209D01*
G37*
G36*
X122383855Y-56502140D02*
G01*
X122447618Y-56508420D01*
X122522054Y-56531000D01*
X122570336Y-56545646D01*
X122683425Y-56606094D01*
X122782554Y-56687446D01*
X122863906Y-56786575D01*
X122924354Y-56899664D01*
X122924355Y-56899668D01*
X122961580Y-57022382D01*
X122974149Y-57150000D01*
X122961580Y-57277618D01*
X122949982Y-57315851D01*
X122924354Y-57400336D01*
X122863906Y-57513425D01*
X122782554Y-57612554D01*
X122683425Y-57693906D01*
X122570336Y-57754354D01*
X122538537Y-57764000D01*
X122447618Y-57791580D01*
X122383855Y-57797860D01*
X122351974Y-57801000D01*
X121488026Y-57801000D01*
X121456145Y-57797860D01*
X121392382Y-57791580D01*
X121301463Y-57764000D01*
X121269664Y-57754354D01*
X121156575Y-57693906D01*
X121057446Y-57612554D01*
X120976094Y-57513425D01*
X120915646Y-57400336D01*
X120890018Y-57315851D01*
X120878420Y-57277618D01*
X120865851Y-57150000D01*
X120878420Y-57022382D01*
X120915645Y-56899668D01*
X120915646Y-56899664D01*
X120976094Y-56786575D01*
X121057446Y-56687446D01*
X121156575Y-56606094D01*
X121269664Y-56545646D01*
X121317946Y-56531000D01*
X121392382Y-56508420D01*
X121456145Y-56502140D01*
X121488026Y-56499000D01*
X122351974Y-56499000D01*
X122383855Y-56502140D01*
G37*
G36*
X55073855Y-56502140D02*
G01*
X55137618Y-56508420D01*
X55212054Y-56531000D01*
X55260336Y-56545646D01*
X55373425Y-56606094D01*
X55472554Y-56687446D01*
X55553906Y-56786575D01*
X55614354Y-56899664D01*
X55614355Y-56899668D01*
X55651580Y-57022382D01*
X55664149Y-57150000D01*
X55651580Y-57277618D01*
X55639982Y-57315851D01*
X55614354Y-57400336D01*
X55553906Y-57513425D01*
X55472554Y-57612554D01*
X55373425Y-57693906D01*
X55260336Y-57754354D01*
X55228537Y-57764000D01*
X55137618Y-57791580D01*
X55073855Y-57797860D01*
X55041974Y-57801000D01*
X54178026Y-57801000D01*
X54146145Y-57797860D01*
X54082382Y-57791580D01*
X53991463Y-57764000D01*
X53959664Y-57754354D01*
X53846575Y-57693906D01*
X53747446Y-57612554D01*
X53666094Y-57513425D01*
X53605646Y-57400336D01*
X53580018Y-57315851D01*
X53568420Y-57277618D01*
X53555851Y-57150000D01*
X53568420Y-57022382D01*
X53605645Y-56899668D01*
X53605646Y-56899664D01*
X53666094Y-56786575D01*
X53747446Y-56687446D01*
X53846575Y-56606094D01*
X53959664Y-56545646D01*
X54007946Y-56531000D01*
X54082382Y-56508420D01*
X54146145Y-56502140D01*
X54178026Y-56499000D01*
X55041974Y-56499000D01*
X55073855Y-56502140D01*
G37*
G36*
X35911347Y-55249209D02*
G01*
X36030734Y-55298661D01*
X36138173Y-55370449D01*
X36229551Y-55461827D01*
X36301339Y-55569266D01*
X36350791Y-55688653D01*
X36376000Y-55815388D01*
X36376000Y-55944612D01*
X36350791Y-56071347D01*
X36301339Y-56190734D01*
X36229551Y-56298173D01*
X36138173Y-56389551D01*
X36030734Y-56461339D01*
X35911347Y-56510791D01*
X35784612Y-56536000D01*
X35655388Y-56536000D01*
X35528653Y-56510791D01*
X35409266Y-56461339D01*
X35301827Y-56389551D01*
X35210449Y-56298173D01*
X35138661Y-56190734D01*
X35089209Y-56071347D01*
X35064000Y-55944612D01*
X35064000Y-55815388D01*
X35089209Y-55688653D01*
X35138661Y-55569266D01*
X35210449Y-55461827D01*
X35301827Y-55370449D01*
X35409266Y-55298661D01*
X35528653Y-55249209D01*
X35655388Y-55224000D01*
X35784612Y-55224000D01*
X35911347Y-55249209D01*
G37*
G36*
X27971347Y-55249209D02*
G01*
X28090734Y-55298661D01*
X28198173Y-55370449D01*
X28289551Y-55461827D01*
X28361339Y-55569266D01*
X28410791Y-55688653D01*
X28436000Y-55815388D01*
X28436000Y-55944612D01*
X28410791Y-56071347D01*
X28361339Y-56190734D01*
X28289551Y-56298173D01*
X28198173Y-56389551D01*
X28090734Y-56461339D01*
X27971347Y-56510791D01*
X27844612Y-56536000D01*
X27715388Y-56536000D01*
X27588653Y-56510791D01*
X27469266Y-56461339D01*
X27361827Y-56389551D01*
X27270449Y-56298173D01*
X27198661Y-56190734D01*
X27149209Y-56071347D01*
X27124000Y-55944612D01*
X27124000Y-55815388D01*
X27149209Y-55688653D01*
X27198661Y-55569266D01*
X27270449Y-55461827D01*
X27361827Y-55370449D01*
X27469266Y-55298661D01*
X27588653Y-55249209D01*
X27715388Y-55224000D01*
X27844612Y-55224000D01*
X27971347Y-55249209D01*
G37*
G36*
X49261000Y-56531000D02*
G01*
X47159000Y-56531000D01*
X47159000Y-55229000D01*
X49261000Y-55229000D01*
X49261000Y-56531000D01*
G37*
G36*
X41153855Y-55232140D02*
G01*
X41217618Y-55238420D01*
X41292054Y-55261000D01*
X41340336Y-55275646D01*
X41453425Y-55336094D01*
X41552554Y-55417446D01*
X41633906Y-55516575D01*
X41694354Y-55629664D01*
X41694355Y-55629668D01*
X41731580Y-55752382D01*
X41744149Y-55880000D01*
X41731580Y-56007618D01*
X41704040Y-56098404D01*
X41694354Y-56130336D01*
X41633906Y-56243425D01*
X41552554Y-56342554D01*
X41453425Y-56423906D01*
X41340336Y-56484354D01*
X41308404Y-56494040D01*
X41217618Y-56521580D01*
X41153855Y-56527860D01*
X41121974Y-56531000D01*
X40258026Y-56531000D01*
X40226145Y-56527860D01*
X40162382Y-56521580D01*
X40071596Y-56494040D01*
X40039664Y-56484354D01*
X39926575Y-56423906D01*
X39827446Y-56342554D01*
X39746094Y-56243425D01*
X39685646Y-56130336D01*
X39675960Y-56098404D01*
X39648420Y-56007618D01*
X39635851Y-55880000D01*
X39648420Y-55752382D01*
X39685645Y-55629668D01*
X39685646Y-55629664D01*
X39746094Y-55516575D01*
X39827446Y-55417446D01*
X39926575Y-55336094D01*
X40039664Y-55275646D01*
X40087946Y-55261000D01*
X40162382Y-55238420D01*
X40226145Y-55232140D01*
X40258026Y-55229000D01*
X41121974Y-55229000D01*
X41153855Y-55232140D01*
G37*
G36*
X122383855Y-53962140D02*
G01*
X122447618Y-53968420D01*
X122522054Y-53991000D01*
X122570336Y-54005646D01*
X122683425Y-54066094D01*
X122782554Y-54147446D01*
X122863906Y-54246575D01*
X122924354Y-54359664D01*
X122924355Y-54359668D01*
X122961580Y-54482382D01*
X122974149Y-54610000D01*
X122961580Y-54737618D01*
X122934040Y-54828404D01*
X122924354Y-54860336D01*
X122863906Y-54973425D01*
X122782554Y-55072554D01*
X122683425Y-55153906D01*
X122570336Y-55214354D01*
X122538537Y-55224000D01*
X122447618Y-55251580D01*
X122383855Y-55257860D01*
X122351974Y-55261000D01*
X121488026Y-55261000D01*
X121456145Y-55257860D01*
X121392382Y-55251580D01*
X121301463Y-55224000D01*
X121269664Y-55214354D01*
X121156575Y-55153906D01*
X121057446Y-55072554D01*
X120976094Y-54973425D01*
X120915646Y-54860336D01*
X120905960Y-54828404D01*
X120878420Y-54737618D01*
X120865851Y-54610000D01*
X120878420Y-54482382D01*
X120915645Y-54359668D01*
X120915646Y-54359664D01*
X120976094Y-54246575D01*
X121057446Y-54147446D01*
X121156575Y-54066094D01*
X121269664Y-54005646D01*
X121317946Y-53991000D01*
X121392382Y-53968420D01*
X121456145Y-53962140D01*
X121488026Y-53959000D01*
X122351974Y-53959000D01*
X122383855Y-53962140D01*
G37*
G36*
X55073855Y-53962140D02*
G01*
X55137618Y-53968420D01*
X55212054Y-53991000D01*
X55260336Y-54005646D01*
X55373425Y-54066094D01*
X55472554Y-54147446D01*
X55553906Y-54246575D01*
X55614354Y-54359664D01*
X55614355Y-54359668D01*
X55651580Y-54482382D01*
X55664149Y-54610000D01*
X55651580Y-54737618D01*
X55624040Y-54828404D01*
X55614354Y-54860336D01*
X55553906Y-54973425D01*
X55472554Y-55072554D01*
X55373425Y-55153906D01*
X55260336Y-55214354D01*
X55228537Y-55224000D01*
X55137618Y-55251580D01*
X55073855Y-55257860D01*
X55041974Y-55261000D01*
X54178026Y-55261000D01*
X54146145Y-55257860D01*
X54082382Y-55251580D01*
X53991463Y-55224000D01*
X53959664Y-55214354D01*
X53846575Y-55153906D01*
X53747446Y-55072554D01*
X53666094Y-54973425D01*
X53605646Y-54860336D01*
X53595960Y-54828404D01*
X53568420Y-54737618D01*
X53555851Y-54610000D01*
X53568420Y-54482382D01*
X53605645Y-54359668D01*
X53605646Y-54359664D01*
X53666094Y-54246575D01*
X53747446Y-54147446D01*
X53846575Y-54066094D01*
X53959664Y-54005646D01*
X54007946Y-53991000D01*
X54082382Y-53968420D01*
X54146145Y-53962140D01*
X54178026Y-53959000D01*
X55041974Y-53959000D01*
X55073855Y-53962140D01*
G37*
G36*
X27971347Y-52709209D02*
G01*
X28090734Y-52758661D01*
X28198173Y-52830449D01*
X28289551Y-52921827D01*
X28361339Y-53029266D01*
X28410791Y-53148653D01*
X28436000Y-53275388D01*
X28436000Y-53404612D01*
X28410791Y-53531347D01*
X28361339Y-53650734D01*
X28289551Y-53758173D01*
X28198173Y-53849551D01*
X28090734Y-53921339D01*
X27971347Y-53970791D01*
X27844612Y-53996000D01*
X27715388Y-53996000D01*
X27588653Y-53970791D01*
X27469266Y-53921339D01*
X27361827Y-53849551D01*
X27270449Y-53758173D01*
X27198661Y-53650734D01*
X27149209Y-53531347D01*
X27124000Y-53404612D01*
X27124000Y-53275388D01*
X27149209Y-53148653D01*
X27198661Y-53029266D01*
X27270449Y-52921827D01*
X27361827Y-52830449D01*
X27469266Y-52758661D01*
X27588653Y-52709209D01*
X27715388Y-52684000D01*
X27844612Y-52684000D01*
X27971347Y-52709209D01*
G37*
G36*
X35911347Y-52709209D02*
G01*
X36030734Y-52758661D01*
X36138173Y-52830449D01*
X36229551Y-52921827D01*
X36301339Y-53029266D01*
X36350791Y-53148653D01*
X36376000Y-53275388D01*
X36376000Y-53404612D01*
X36350791Y-53531347D01*
X36301339Y-53650734D01*
X36229551Y-53758173D01*
X36138173Y-53849551D01*
X36030734Y-53921339D01*
X35911347Y-53970791D01*
X35784612Y-53996000D01*
X35655388Y-53996000D01*
X35528653Y-53970791D01*
X35409266Y-53921339D01*
X35301827Y-53849551D01*
X35210449Y-53758173D01*
X35138661Y-53650734D01*
X35089209Y-53531347D01*
X35064000Y-53404612D01*
X35064000Y-53275388D01*
X35089209Y-53148653D01*
X35138661Y-53029266D01*
X35210449Y-52921827D01*
X35301827Y-52830449D01*
X35409266Y-52758661D01*
X35528653Y-52709209D01*
X35655388Y-52684000D01*
X35784612Y-52684000D01*
X35911347Y-52709209D01*
G37*
G36*
X48673855Y-52692140D02*
G01*
X48737618Y-52698420D01*
X48812054Y-52721000D01*
X48860336Y-52735646D01*
X48973425Y-52796094D01*
X49072554Y-52877446D01*
X49153906Y-52976575D01*
X49214354Y-53089664D01*
X49214355Y-53089668D01*
X49251580Y-53212382D01*
X49264149Y-53340000D01*
X49251580Y-53467618D01*
X49224040Y-53558404D01*
X49214354Y-53590336D01*
X49153906Y-53703425D01*
X49072554Y-53802554D01*
X48973425Y-53883906D01*
X48860336Y-53944354D01*
X48828404Y-53954040D01*
X48737618Y-53981580D01*
X48673855Y-53987860D01*
X48641974Y-53991000D01*
X47778026Y-53991000D01*
X47746145Y-53987860D01*
X47682382Y-53981580D01*
X47591596Y-53954040D01*
X47559664Y-53944354D01*
X47446575Y-53883906D01*
X47347446Y-53802554D01*
X47266094Y-53703425D01*
X47205646Y-53590336D01*
X47195960Y-53558404D01*
X47168420Y-53467618D01*
X47155851Y-53340000D01*
X47168420Y-53212382D01*
X47205645Y-53089668D01*
X47205646Y-53089664D01*
X47266094Y-52976575D01*
X47347446Y-52877446D01*
X47446575Y-52796094D01*
X47559664Y-52735646D01*
X47607946Y-52721000D01*
X47682382Y-52698420D01*
X47746145Y-52692140D01*
X47778026Y-52689000D01*
X48641974Y-52689000D01*
X48673855Y-52692140D01*
G37*
G36*
X41153855Y-52692140D02*
G01*
X41217618Y-52698420D01*
X41292054Y-52721000D01*
X41340336Y-52735646D01*
X41453425Y-52796094D01*
X41552554Y-52877446D01*
X41633906Y-52976575D01*
X41694354Y-53089664D01*
X41694355Y-53089668D01*
X41731580Y-53212382D01*
X41744149Y-53340000D01*
X41731580Y-53467618D01*
X41704040Y-53558404D01*
X41694354Y-53590336D01*
X41633906Y-53703425D01*
X41552554Y-53802554D01*
X41453425Y-53883906D01*
X41340336Y-53944354D01*
X41308404Y-53954040D01*
X41217618Y-53981580D01*
X41153855Y-53987860D01*
X41121974Y-53991000D01*
X40258026Y-53991000D01*
X40226145Y-53987860D01*
X40162382Y-53981580D01*
X40071596Y-53954040D01*
X40039664Y-53944354D01*
X39926575Y-53883906D01*
X39827446Y-53802554D01*
X39746094Y-53703425D01*
X39685646Y-53590336D01*
X39675960Y-53558404D01*
X39648420Y-53467618D01*
X39635851Y-53340000D01*
X39648420Y-53212382D01*
X39685645Y-53089668D01*
X39685646Y-53089664D01*
X39746094Y-52976575D01*
X39827446Y-52877446D01*
X39926575Y-52796094D01*
X40039664Y-52735646D01*
X40087946Y-52721000D01*
X40162382Y-52698420D01*
X40226145Y-52692140D01*
X40258026Y-52689000D01*
X41121974Y-52689000D01*
X41153855Y-52692140D01*
G37*
G36*
X55073855Y-51422140D02*
G01*
X55137618Y-51428420D01*
X55212054Y-51451000D01*
X55260336Y-51465646D01*
X55373425Y-51526094D01*
X55472554Y-51607446D01*
X55553906Y-51706575D01*
X55614354Y-51819664D01*
X55614355Y-51819668D01*
X55651580Y-51942382D01*
X55664149Y-52070000D01*
X55651580Y-52197618D01*
X55624040Y-52288404D01*
X55614354Y-52320336D01*
X55553906Y-52433425D01*
X55472554Y-52532554D01*
X55373425Y-52613906D01*
X55260336Y-52674354D01*
X55228537Y-52684000D01*
X55137618Y-52711580D01*
X55073855Y-52717860D01*
X55041974Y-52721000D01*
X54178026Y-52721000D01*
X54146145Y-52717860D01*
X54082382Y-52711580D01*
X53991463Y-52684000D01*
X53959664Y-52674354D01*
X53846575Y-52613906D01*
X53747446Y-52532554D01*
X53666094Y-52433425D01*
X53605646Y-52320336D01*
X53595960Y-52288404D01*
X53568420Y-52197618D01*
X53555851Y-52070000D01*
X53568420Y-51942382D01*
X53605645Y-51819668D01*
X53605646Y-51819664D01*
X53666094Y-51706575D01*
X53747446Y-51607446D01*
X53846575Y-51526094D01*
X53959664Y-51465646D01*
X54007946Y-51451000D01*
X54082382Y-51428420D01*
X54146145Y-51422140D01*
X54178026Y-51419000D01*
X55041974Y-51419000D01*
X55073855Y-51422140D01*
G37*
G36*
X122383855Y-51422140D02*
G01*
X122447618Y-51428420D01*
X122522054Y-51451000D01*
X122570336Y-51465646D01*
X122683425Y-51526094D01*
X122782554Y-51607446D01*
X122863906Y-51706575D01*
X122924354Y-51819664D01*
X122924355Y-51819668D01*
X122961580Y-51942382D01*
X122974149Y-52070000D01*
X122961580Y-52197618D01*
X122934040Y-52288404D01*
X122924354Y-52320336D01*
X122863906Y-52433425D01*
X122782554Y-52532554D01*
X122683425Y-52613906D01*
X122570336Y-52674354D01*
X122538537Y-52684000D01*
X122447618Y-52711580D01*
X122383855Y-52717860D01*
X122351974Y-52721000D01*
X121488026Y-52721000D01*
X121456145Y-52717860D01*
X121392382Y-52711580D01*
X121301463Y-52684000D01*
X121269664Y-52674354D01*
X121156575Y-52613906D01*
X121057446Y-52532554D01*
X120976094Y-52433425D01*
X120915646Y-52320336D01*
X120905960Y-52288404D01*
X120878420Y-52197618D01*
X120865851Y-52070000D01*
X120878420Y-51942382D01*
X120915645Y-51819668D01*
X120915646Y-51819664D01*
X120976094Y-51706575D01*
X121057446Y-51607446D01*
X121156575Y-51526094D01*
X121269664Y-51465646D01*
X121317946Y-51451000D01*
X121392382Y-51428420D01*
X121456145Y-51422140D01*
X121488026Y-51419000D01*
X122351974Y-51419000D01*
X122383855Y-51422140D01*
G37*
G36*
X24257617Y-49808420D02*
G01*
X24348403Y-49835960D01*
X24380335Y-49845646D01*
X24493424Y-49906094D01*
X24592554Y-49987447D01*
X24673906Y-50086575D01*
X24734354Y-50199664D01*
X24744040Y-50231596D01*
X24771580Y-50322382D01*
X24781000Y-50418027D01*
X24781000Y-51281973D01*
X24771580Y-51377618D01*
X24763469Y-51404355D01*
X24734354Y-51500336D01*
X24673906Y-51613425D01*
X24592554Y-51712554D01*
X24493425Y-51793906D01*
X24380336Y-51854354D01*
X24348404Y-51864040D01*
X24257618Y-51891580D01*
X24130000Y-51904149D01*
X24002383Y-51891580D01*
X23911597Y-51864040D01*
X23879665Y-51854354D01*
X23766576Y-51793906D01*
X23667447Y-51712554D01*
X23586095Y-51613425D01*
X23525647Y-51500336D01*
X23515124Y-51465646D01*
X23488420Y-51377618D01*
X23479000Y-51281973D01*
X23479000Y-50418028D01*
X23488420Y-50322383D01*
X23525645Y-50199669D01*
X23525646Y-50199665D01*
X23586094Y-50086576D01*
X23667447Y-49987446D01*
X23766575Y-49906094D01*
X23879664Y-49845646D01*
X23911596Y-49835960D01*
X24002382Y-49808420D01*
X24130000Y-49795851D01*
X24257617Y-49808420D01*
G37*
G36*
X19177617Y-49808420D02*
G01*
X19268403Y-49835960D01*
X19300335Y-49845646D01*
X19413424Y-49906094D01*
X19512554Y-49987447D01*
X19593906Y-50086575D01*
X19654354Y-50199664D01*
X19664040Y-50231596D01*
X19691580Y-50322382D01*
X19701000Y-50418027D01*
X19701000Y-51281973D01*
X19691580Y-51377618D01*
X19683469Y-51404355D01*
X19654354Y-51500336D01*
X19593906Y-51613425D01*
X19512554Y-51712554D01*
X19413425Y-51793906D01*
X19300336Y-51854354D01*
X19268404Y-51864040D01*
X19177618Y-51891580D01*
X19050000Y-51904149D01*
X18922383Y-51891580D01*
X18831597Y-51864040D01*
X18799665Y-51854354D01*
X18686576Y-51793906D01*
X18587447Y-51712554D01*
X18506095Y-51613425D01*
X18445647Y-51500336D01*
X18435124Y-51465646D01*
X18408420Y-51377618D01*
X18399000Y-51281973D01*
X18399000Y-50418028D01*
X18408420Y-50322383D01*
X18445645Y-50199669D01*
X18445646Y-50199665D01*
X18506094Y-50086576D01*
X18587447Y-49987446D01*
X18686575Y-49906094D01*
X18799664Y-49845646D01*
X18831596Y-49835960D01*
X18922382Y-49808420D01*
X19050000Y-49795851D01*
X19177617Y-49808420D01*
G37*
G36*
X16637617Y-49808420D02*
G01*
X16728403Y-49835960D01*
X16760335Y-49845646D01*
X16873424Y-49906094D01*
X16972554Y-49987447D01*
X17053906Y-50086575D01*
X17114354Y-50199664D01*
X17124040Y-50231596D01*
X17151580Y-50322382D01*
X17161000Y-50418027D01*
X17161000Y-51281973D01*
X17151580Y-51377618D01*
X17143469Y-51404355D01*
X17114354Y-51500336D01*
X17053906Y-51613425D01*
X16972554Y-51712554D01*
X16873425Y-51793906D01*
X16760336Y-51854354D01*
X16728404Y-51864040D01*
X16637618Y-51891580D01*
X16510000Y-51904149D01*
X16382383Y-51891580D01*
X16291597Y-51864040D01*
X16259665Y-51854354D01*
X16146576Y-51793906D01*
X16047447Y-51712554D01*
X15966095Y-51613425D01*
X15905647Y-51500336D01*
X15895124Y-51465646D01*
X15868420Y-51377618D01*
X15859000Y-51281973D01*
X15859000Y-50418028D01*
X15868420Y-50322383D01*
X15905645Y-50199669D01*
X15905646Y-50199665D01*
X15966094Y-50086576D01*
X16047447Y-49987446D01*
X16146575Y-49906094D01*
X16259664Y-49845646D01*
X16291596Y-49835960D01*
X16382382Y-49808420D01*
X16510000Y-49795851D01*
X16637617Y-49808420D01*
G37*
G36*
X21717617Y-49808420D02*
G01*
X21808403Y-49835960D01*
X21840335Y-49845646D01*
X21953424Y-49906094D01*
X22052554Y-49987447D01*
X22133906Y-50086575D01*
X22194354Y-50199664D01*
X22204040Y-50231596D01*
X22231580Y-50322382D01*
X22241000Y-50418027D01*
X22241000Y-51281973D01*
X22231580Y-51377618D01*
X22223469Y-51404355D01*
X22194354Y-51500336D01*
X22133906Y-51613425D01*
X22052554Y-51712554D01*
X21953425Y-51793906D01*
X21840336Y-51854354D01*
X21808404Y-51864040D01*
X21717618Y-51891580D01*
X21590000Y-51904149D01*
X21462383Y-51891580D01*
X21371597Y-51864040D01*
X21339665Y-51854354D01*
X21226576Y-51793906D01*
X21127447Y-51712554D01*
X21046095Y-51613425D01*
X20985647Y-51500336D01*
X20975124Y-51465646D01*
X20948420Y-51377618D01*
X20939000Y-51281973D01*
X20939000Y-50418028D01*
X20948420Y-50322383D01*
X20985645Y-50199669D01*
X20985646Y-50199665D01*
X21046094Y-50086576D01*
X21127447Y-49987446D01*
X21226575Y-49906094D01*
X21339664Y-49845646D01*
X21371596Y-49835960D01*
X21462382Y-49808420D01*
X21590000Y-49795851D01*
X21717617Y-49808420D01*
G37*
G36*
X11557617Y-49808420D02*
G01*
X11648403Y-49835960D01*
X11680335Y-49845646D01*
X11793424Y-49906094D01*
X11892554Y-49987447D01*
X11973906Y-50086575D01*
X12034354Y-50199664D01*
X12044040Y-50231596D01*
X12071580Y-50322382D01*
X12081000Y-50418027D01*
X12081000Y-51281973D01*
X12071580Y-51377618D01*
X12063469Y-51404355D01*
X12034354Y-51500336D01*
X11973906Y-51613425D01*
X11892554Y-51712554D01*
X11793425Y-51793906D01*
X11680336Y-51854354D01*
X11648404Y-51864040D01*
X11557618Y-51891580D01*
X11430000Y-51904149D01*
X11302383Y-51891580D01*
X11211597Y-51864040D01*
X11179665Y-51854354D01*
X11066576Y-51793906D01*
X10967447Y-51712554D01*
X10886095Y-51613425D01*
X10825647Y-51500336D01*
X10815124Y-51465646D01*
X10788420Y-51377618D01*
X10779000Y-51281973D01*
X10779000Y-50418028D01*
X10788420Y-50322383D01*
X10825645Y-50199669D01*
X10825646Y-50199665D01*
X10886094Y-50086576D01*
X10967447Y-49987446D01*
X11066575Y-49906094D01*
X11179664Y-49845646D01*
X11211596Y-49835960D01*
X11302382Y-49808420D01*
X11430000Y-49795851D01*
X11557617Y-49808420D01*
G37*
G36*
X9017617Y-49808420D02*
G01*
X9108403Y-49835960D01*
X9140335Y-49845646D01*
X9253424Y-49906094D01*
X9352554Y-49987447D01*
X9433906Y-50086575D01*
X9494354Y-50199664D01*
X9504040Y-50231596D01*
X9531580Y-50322382D01*
X9541000Y-50418027D01*
X9541000Y-51281973D01*
X9531580Y-51377618D01*
X9523469Y-51404355D01*
X9494354Y-51500336D01*
X9433906Y-51613425D01*
X9352554Y-51712554D01*
X9253425Y-51793906D01*
X9140336Y-51854354D01*
X9108404Y-51864040D01*
X9017618Y-51891580D01*
X8890000Y-51904149D01*
X8762383Y-51891580D01*
X8671597Y-51864040D01*
X8639665Y-51854354D01*
X8526576Y-51793906D01*
X8427447Y-51712554D01*
X8346095Y-51613425D01*
X8285647Y-51500336D01*
X8275124Y-51465646D01*
X8248420Y-51377618D01*
X8239000Y-51281973D01*
X8239000Y-50418028D01*
X8248420Y-50322383D01*
X8285645Y-50199669D01*
X8285646Y-50199665D01*
X8346094Y-50086576D01*
X8427447Y-49987446D01*
X8526575Y-49906094D01*
X8639664Y-49845646D01*
X8671596Y-49835960D01*
X8762382Y-49808420D01*
X8890000Y-49795851D01*
X9017617Y-49808420D01*
G37*
G36*
X3937617Y-49808420D02*
G01*
X4028403Y-49835960D01*
X4060335Y-49845646D01*
X4173424Y-49906094D01*
X4272554Y-49987447D01*
X4353906Y-50086575D01*
X4414354Y-50199664D01*
X4424040Y-50231596D01*
X4451580Y-50322382D01*
X4461000Y-50418027D01*
X4461000Y-51281973D01*
X4451580Y-51377618D01*
X4443469Y-51404355D01*
X4414354Y-51500336D01*
X4353906Y-51613425D01*
X4272554Y-51712554D01*
X4173425Y-51793906D01*
X4060336Y-51854354D01*
X4028404Y-51864040D01*
X3937618Y-51891580D01*
X3810000Y-51904149D01*
X3682383Y-51891580D01*
X3591597Y-51864040D01*
X3559665Y-51854354D01*
X3446576Y-51793906D01*
X3347447Y-51712554D01*
X3266095Y-51613425D01*
X3205647Y-51500336D01*
X3195124Y-51465646D01*
X3168420Y-51377618D01*
X3159000Y-51281973D01*
X3159000Y-50418028D01*
X3168420Y-50322383D01*
X3205645Y-50199669D01*
X3205646Y-50199665D01*
X3266094Y-50086576D01*
X3347447Y-49987446D01*
X3446575Y-49906094D01*
X3559664Y-49845646D01*
X3591596Y-49835960D01*
X3682382Y-49808420D01*
X3810000Y-49795851D01*
X3937617Y-49808420D01*
G37*
G36*
X14097617Y-49808420D02*
G01*
X14188403Y-49835960D01*
X14220335Y-49845646D01*
X14333424Y-49906094D01*
X14432554Y-49987447D01*
X14513906Y-50086575D01*
X14574354Y-50199664D01*
X14584040Y-50231596D01*
X14611580Y-50322382D01*
X14621000Y-50418027D01*
X14621000Y-51281973D01*
X14611580Y-51377618D01*
X14603469Y-51404355D01*
X14574354Y-51500336D01*
X14513906Y-51613425D01*
X14432554Y-51712554D01*
X14333425Y-51793906D01*
X14220336Y-51854354D01*
X14188404Y-51864040D01*
X14097618Y-51891580D01*
X13970000Y-51904149D01*
X13842383Y-51891580D01*
X13751597Y-51864040D01*
X13719665Y-51854354D01*
X13606576Y-51793906D01*
X13507447Y-51712554D01*
X13426095Y-51613425D01*
X13365647Y-51500336D01*
X13355124Y-51465646D01*
X13328420Y-51377618D01*
X13319000Y-51281973D01*
X13319000Y-50418028D01*
X13328420Y-50322383D01*
X13365645Y-50199669D01*
X13365646Y-50199665D01*
X13426094Y-50086576D01*
X13507447Y-49987446D01*
X13606575Y-49906094D01*
X13719664Y-49845646D01*
X13751596Y-49835960D01*
X13842382Y-49808420D01*
X13970000Y-49795851D01*
X14097617Y-49808420D01*
G37*
G36*
X6477617Y-49808420D02*
G01*
X6568403Y-49835960D01*
X6600335Y-49845646D01*
X6713424Y-49906094D01*
X6812554Y-49987447D01*
X6893906Y-50086575D01*
X6954354Y-50199664D01*
X6964040Y-50231596D01*
X6991580Y-50322382D01*
X7001000Y-50418027D01*
X7001000Y-51281973D01*
X6991580Y-51377618D01*
X6983469Y-51404355D01*
X6954354Y-51500336D01*
X6893906Y-51613425D01*
X6812554Y-51712554D01*
X6713425Y-51793906D01*
X6600336Y-51854354D01*
X6568404Y-51864040D01*
X6477618Y-51891580D01*
X6350000Y-51904149D01*
X6222383Y-51891580D01*
X6131597Y-51864040D01*
X6099665Y-51854354D01*
X5986576Y-51793906D01*
X5887447Y-51712554D01*
X5806095Y-51613425D01*
X5745647Y-51500336D01*
X5735124Y-51465646D01*
X5708420Y-51377618D01*
X5699000Y-51281973D01*
X5699000Y-50418028D01*
X5708420Y-50322383D01*
X5745645Y-50199669D01*
X5745646Y-50199665D01*
X5806094Y-50086576D01*
X5887447Y-49987446D01*
X5986575Y-49906094D01*
X6099664Y-49845646D01*
X6131596Y-49835960D01*
X6222382Y-49808420D01*
X6350000Y-49795851D01*
X6477617Y-49808420D01*
G37*
G36*
X27971347Y-50169209D02*
G01*
X28090734Y-50218661D01*
X28198173Y-50290449D01*
X28289551Y-50381827D01*
X28361339Y-50489266D01*
X28410791Y-50608653D01*
X28436000Y-50735388D01*
X28436000Y-50864612D01*
X28410791Y-50991347D01*
X28361339Y-51110734D01*
X28289551Y-51218173D01*
X28198173Y-51309551D01*
X28090734Y-51381339D01*
X27971347Y-51430791D01*
X27844612Y-51456000D01*
X27715388Y-51456000D01*
X27588653Y-51430791D01*
X27469266Y-51381339D01*
X27361827Y-51309551D01*
X27270449Y-51218173D01*
X27198661Y-51110734D01*
X27149209Y-50991347D01*
X27124000Y-50864612D01*
X27124000Y-50735388D01*
X27149209Y-50608653D01*
X27198661Y-50489266D01*
X27270449Y-50381827D01*
X27361827Y-50290449D01*
X27469266Y-50218661D01*
X27588653Y-50169209D01*
X27715388Y-50144000D01*
X27844612Y-50144000D01*
X27971347Y-50169209D01*
G37*
G36*
X35911347Y-50169209D02*
G01*
X36030734Y-50218661D01*
X36138173Y-50290449D01*
X36229551Y-50381827D01*
X36301339Y-50489266D01*
X36350791Y-50608653D01*
X36376000Y-50735388D01*
X36376000Y-50864612D01*
X36350791Y-50991347D01*
X36301339Y-51110734D01*
X36229551Y-51218173D01*
X36138173Y-51309551D01*
X36030734Y-51381339D01*
X35911347Y-51430791D01*
X35784612Y-51456000D01*
X35655388Y-51456000D01*
X35528653Y-51430791D01*
X35409266Y-51381339D01*
X35301827Y-51309551D01*
X35210449Y-51218173D01*
X35138661Y-51110734D01*
X35089209Y-50991347D01*
X35064000Y-50864612D01*
X35064000Y-50735388D01*
X35089209Y-50608653D01*
X35138661Y-50489266D01*
X35210449Y-50381827D01*
X35301827Y-50290449D01*
X35409266Y-50218661D01*
X35528653Y-50169209D01*
X35655388Y-50144000D01*
X35784612Y-50144000D01*
X35911347Y-50169209D01*
G37*
G36*
X41153855Y-50152140D02*
G01*
X41217618Y-50158420D01*
X41292054Y-50181000D01*
X41340336Y-50195646D01*
X41453425Y-50256094D01*
X41552554Y-50337446D01*
X41633906Y-50436575D01*
X41694354Y-50549664D01*
X41694355Y-50549668D01*
X41731580Y-50672382D01*
X41744149Y-50800000D01*
X41731580Y-50927618D01*
X41704040Y-51018404D01*
X41694354Y-51050336D01*
X41633906Y-51163425D01*
X41552554Y-51262554D01*
X41453425Y-51343906D01*
X41340336Y-51404354D01*
X41308404Y-51414040D01*
X41217618Y-51441580D01*
X41153855Y-51447860D01*
X41121974Y-51451000D01*
X40258026Y-51451000D01*
X40226145Y-51447860D01*
X40162382Y-51441580D01*
X40071596Y-51414040D01*
X40039664Y-51404354D01*
X39926575Y-51343906D01*
X39827446Y-51262554D01*
X39746094Y-51163425D01*
X39685646Y-51050336D01*
X39675960Y-51018404D01*
X39648420Y-50927618D01*
X39635851Y-50800000D01*
X39648420Y-50672382D01*
X39685645Y-50549668D01*
X39685646Y-50549664D01*
X39746094Y-50436575D01*
X39827446Y-50337446D01*
X39926575Y-50256094D01*
X40039664Y-50195646D01*
X40087946Y-50181000D01*
X40162382Y-50158420D01*
X40226145Y-50152140D01*
X40258026Y-50149000D01*
X41121974Y-50149000D01*
X41153855Y-50152140D01*
G37*
G36*
X48673855Y-50152140D02*
G01*
X48737618Y-50158420D01*
X48812054Y-50181000D01*
X48860336Y-50195646D01*
X48973425Y-50256094D01*
X49072554Y-50337446D01*
X49153906Y-50436575D01*
X49214354Y-50549664D01*
X49214355Y-50549668D01*
X49251580Y-50672382D01*
X49264149Y-50800000D01*
X49251580Y-50927618D01*
X49224040Y-51018404D01*
X49214354Y-51050336D01*
X49153906Y-51163425D01*
X49072554Y-51262554D01*
X48973425Y-51343906D01*
X48860336Y-51404354D01*
X48828404Y-51414040D01*
X48737618Y-51441580D01*
X48673855Y-51447860D01*
X48641974Y-51451000D01*
X47778026Y-51451000D01*
X47746145Y-51447860D01*
X47682382Y-51441580D01*
X47591596Y-51414040D01*
X47559664Y-51404354D01*
X47446575Y-51343906D01*
X47347446Y-51262554D01*
X47266094Y-51163425D01*
X47205646Y-51050336D01*
X47195960Y-51018404D01*
X47168420Y-50927618D01*
X47155851Y-50800000D01*
X47168420Y-50672382D01*
X47205645Y-50549668D01*
X47205646Y-50549664D01*
X47266094Y-50436575D01*
X47347446Y-50337446D01*
X47446575Y-50256094D01*
X47559664Y-50195646D01*
X47607946Y-50181000D01*
X47682382Y-50158420D01*
X47746145Y-50152140D01*
X47778026Y-50149000D01*
X48641974Y-50149000D01*
X48673855Y-50152140D01*
G37*
G36*
X55661000Y-50181000D02*
G01*
X53559000Y-50181000D01*
X53559000Y-48879000D01*
X55661000Y-48879000D01*
X55661000Y-50181000D01*
G37*
G36*
X122971000Y-50181000D02*
G01*
X120869000Y-50181000D01*
X120869000Y-48879000D01*
X122971000Y-48879000D01*
X122971000Y-50181000D01*
G37*
G36*
X35911347Y-47629209D02*
G01*
X36030734Y-47678661D01*
X36138173Y-47750449D01*
X36229551Y-47841827D01*
X36301339Y-47949266D01*
X36350791Y-48068653D01*
X36376000Y-48195388D01*
X36376000Y-48324612D01*
X36350791Y-48451347D01*
X36301339Y-48570734D01*
X36229551Y-48678173D01*
X36138173Y-48769551D01*
X36030734Y-48841339D01*
X35911347Y-48890791D01*
X35784612Y-48916000D01*
X35655388Y-48916000D01*
X35528653Y-48890791D01*
X35409266Y-48841339D01*
X35301827Y-48769551D01*
X35210449Y-48678173D01*
X35138661Y-48570734D01*
X35089209Y-48451347D01*
X35064000Y-48324612D01*
X35064000Y-48195388D01*
X35089209Y-48068653D01*
X35138661Y-47949266D01*
X35210449Y-47841827D01*
X35301827Y-47750449D01*
X35409266Y-47678661D01*
X35528653Y-47629209D01*
X35655388Y-47604000D01*
X35784612Y-47604000D01*
X35911347Y-47629209D01*
G37*
G36*
X27971347Y-47629209D02*
G01*
X28090734Y-47678661D01*
X28198173Y-47750449D01*
X28289551Y-47841827D01*
X28361339Y-47949266D01*
X28410791Y-48068653D01*
X28436000Y-48195388D01*
X28436000Y-48324612D01*
X28410791Y-48451347D01*
X28361339Y-48570734D01*
X28289551Y-48678173D01*
X28198173Y-48769551D01*
X28090734Y-48841339D01*
X27971347Y-48890791D01*
X27844612Y-48916000D01*
X27715388Y-48916000D01*
X27588653Y-48890791D01*
X27469266Y-48841339D01*
X27361827Y-48769551D01*
X27270449Y-48678173D01*
X27198661Y-48570734D01*
X27149209Y-48451347D01*
X27124000Y-48324612D01*
X27124000Y-48195388D01*
X27149209Y-48068653D01*
X27198661Y-47949266D01*
X27270449Y-47841827D01*
X27361827Y-47750449D01*
X27469266Y-47678661D01*
X27588653Y-47629209D01*
X27715388Y-47604000D01*
X27844612Y-47604000D01*
X27971347Y-47629209D01*
G37*
G36*
X48673855Y-47612140D02*
G01*
X48737618Y-47618420D01*
X48828404Y-47645960D01*
X48860336Y-47655646D01*
X48973425Y-47716094D01*
X49072554Y-47797446D01*
X49153906Y-47896575D01*
X49214354Y-48009664D01*
X49214355Y-48009668D01*
X49251580Y-48132382D01*
X49264149Y-48260000D01*
X49251580Y-48387618D01*
X49224040Y-48478404D01*
X49214354Y-48510336D01*
X49153906Y-48623425D01*
X49072554Y-48722554D01*
X48973425Y-48803906D01*
X48860336Y-48864354D01*
X48828404Y-48874040D01*
X48737618Y-48901580D01*
X48673855Y-48907860D01*
X48641974Y-48911000D01*
X47778026Y-48911000D01*
X47746145Y-48907860D01*
X47682382Y-48901580D01*
X47591596Y-48874040D01*
X47559664Y-48864354D01*
X47446575Y-48803906D01*
X47347446Y-48722554D01*
X47266094Y-48623425D01*
X47205646Y-48510336D01*
X47195960Y-48478404D01*
X47168420Y-48387618D01*
X47155851Y-48260000D01*
X47168420Y-48132382D01*
X47205645Y-48009668D01*
X47205646Y-48009664D01*
X47266094Y-47896575D01*
X47347446Y-47797446D01*
X47446575Y-47716094D01*
X47559664Y-47655646D01*
X47591596Y-47645960D01*
X47682382Y-47618420D01*
X47746145Y-47612140D01*
X47778026Y-47609000D01*
X48641974Y-47609000D01*
X48673855Y-47612140D01*
G37*
G36*
X41153855Y-47612140D02*
G01*
X41217618Y-47618420D01*
X41308404Y-47645960D01*
X41340336Y-47655646D01*
X41453425Y-47716094D01*
X41552554Y-47797446D01*
X41633906Y-47896575D01*
X41694354Y-48009664D01*
X41694355Y-48009668D01*
X41731580Y-48132382D01*
X41744149Y-48260000D01*
X41731580Y-48387618D01*
X41704040Y-48478404D01*
X41694354Y-48510336D01*
X41633906Y-48623425D01*
X41552554Y-48722554D01*
X41453425Y-48803906D01*
X41340336Y-48864354D01*
X41308404Y-48874040D01*
X41217618Y-48901580D01*
X41153855Y-48907860D01*
X41121974Y-48911000D01*
X40258026Y-48911000D01*
X40226145Y-48907860D01*
X40162382Y-48901580D01*
X40071596Y-48874040D01*
X40039664Y-48864354D01*
X39926575Y-48803906D01*
X39827446Y-48722554D01*
X39746094Y-48623425D01*
X39685646Y-48510336D01*
X39675960Y-48478404D01*
X39648420Y-48387618D01*
X39635851Y-48260000D01*
X39648420Y-48132382D01*
X39685645Y-48009668D01*
X39685646Y-48009664D01*
X39746094Y-47896575D01*
X39827446Y-47797446D01*
X39926575Y-47716094D01*
X40039664Y-47655646D01*
X40071596Y-47645960D01*
X40162382Y-47618420D01*
X40226145Y-47612140D01*
X40258026Y-47609000D01*
X41121974Y-47609000D01*
X41153855Y-47612140D01*
G37*
G36*
X4058228Y-44901703D02*
G01*
X4213100Y-44965853D01*
X4352481Y-45058985D01*
X4471015Y-45177519D01*
X4564147Y-45316900D01*
X4628297Y-45471772D01*
X4661000Y-45636184D01*
X4661000Y-45803816D01*
X4628297Y-45968228D01*
X4564147Y-46123100D01*
X4471015Y-46262481D01*
X4352481Y-46381015D01*
X4213100Y-46474147D01*
X4058228Y-46538297D01*
X3893816Y-46571000D01*
X3726184Y-46571000D01*
X3561772Y-46538297D01*
X3406900Y-46474147D01*
X3267519Y-46381015D01*
X3148985Y-46262481D01*
X3055853Y-46123100D01*
X2991703Y-45968228D01*
X2959000Y-45803816D01*
X2959000Y-45636184D01*
X2991703Y-45471772D01*
X3055853Y-45316900D01*
X3148985Y-45177519D01*
X3267519Y-45058985D01*
X3406900Y-44965853D01*
X3561772Y-44901703D01*
X3726184Y-44869000D01*
X3893816Y-44869000D01*
X4058228Y-44901703D01*
G37*
G36*
X6598228Y-44901703D02*
G01*
X6753100Y-44965853D01*
X6892481Y-45058985D01*
X7011015Y-45177519D01*
X7104147Y-45316900D01*
X7168297Y-45471772D01*
X7201000Y-45636184D01*
X7201000Y-45803816D01*
X7168297Y-45968228D01*
X7104147Y-46123100D01*
X7011015Y-46262481D01*
X6892481Y-46381015D01*
X6753100Y-46474147D01*
X6598228Y-46538297D01*
X6433816Y-46571000D01*
X6266184Y-46571000D01*
X6101772Y-46538297D01*
X5946900Y-46474147D01*
X5807519Y-46381015D01*
X5688985Y-46262481D01*
X5595853Y-46123100D01*
X5531703Y-45968228D01*
X5499000Y-45803816D01*
X5499000Y-45636184D01*
X5531703Y-45471772D01*
X5595853Y-45316900D01*
X5688985Y-45177519D01*
X5807519Y-45058985D01*
X5946900Y-44965853D01*
X6101772Y-44901703D01*
X6266184Y-44869000D01*
X6433816Y-44869000D01*
X6598228Y-44901703D01*
G37*
G36*
X9138228Y-44901703D02*
G01*
X9293100Y-44965853D01*
X9432481Y-45058985D01*
X9551015Y-45177519D01*
X9644147Y-45316900D01*
X9708297Y-45471772D01*
X9741000Y-45636184D01*
X9741000Y-45803816D01*
X9708297Y-45968228D01*
X9644147Y-46123100D01*
X9551015Y-46262481D01*
X9432481Y-46381015D01*
X9293100Y-46474147D01*
X9138228Y-46538297D01*
X8973816Y-46571000D01*
X8806184Y-46571000D01*
X8641772Y-46538297D01*
X8486900Y-46474147D01*
X8347519Y-46381015D01*
X8228985Y-46262481D01*
X8135853Y-46123100D01*
X8071703Y-45968228D01*
X8039000Y-45803816D01*
X8039000Y-45636184D01*
X8071703Y-45471772D01*
X8135853Y-45316900D01*
X8228985Y-45177519D01*
X8347519Y-45058985D01*
X8486900Y-44965853D01*
X8641772Y-44901703D01*
X8806184Y-44869000D01*
X8973816Y-44869000D01*
X9138228Y-44901703D01*
G37*
G36*
X11678228Y-44901703D02*
G01*
X11833100Y-44965853D01*
X11972481Y-45058985D01*
X12091015Y-45177519D01*
X12184147Y-45316900D01*
X12248297Y-45471772D01*
X12281000Y-45636184D01*
X12281000Y-45803816D01*
X12248297Y-45968228D01*
X12184147Y-46123100D01*
X12091015Y-46262481D01*
X11972481Y-46381015D01*
X11833100Y-46474147D01*
X11678228Y-46538297D01*
X11513816Y-46571000D01*
X11346184Y-46571000D01*
X11181772Y-46538297D01*
X11026900Y-46474147D01*
X10887519Y-46381015D01*
X10768985Y-46262481D01*
X10675853Y-46123100D01*
X10611703Y-45968228D01*
X10579000Y-45803816D01*
X10579000Y-45636184D01*
X10611703Y-45471772D01*
X10675853Y-45316900D01*
X10768985Y-45177519D01*
X10887519Y-45058985D01*
X11026900Y-44965853D01*
X11181772Y-44901703D01*
X11346184Y-44869000D01*
X11513816Y-44869000D01*
X11678228Y-44901703D01*
G37*
G36*
X16758228Y-44901703D02*
G01*
X16913100Y-44965853D01*
X17052481Y-45058985D01*
X17171015Y-45177519D01*
X17264147Y-45316900D01*
X17328297Y-45471772D01*
X17361000Y-45636184D01*
X17361000Y-45803816D01*
X17328297Y-45968228D01*
X17264147Y-46123100D01*
X17171015Y-46262481D01*
X17052481Y-46381015D01*
X16913100Y-46474147D01*
X16758228Y-46538297D01*
X16593816Y-46571000D01*
X16426184Y-46571000D01*
X16261772Y-46538297D01*
X16106900Y-46474147D01*
X15967519Y-46381015D01*
X15848985Y-46262481D01*
X15755853Y-46123100D01*
X15691703Y-45968228D01*
X15659000Y-45803816D01*
X15659000Y-45636184D01*
X15691703Y-45471772D01*
X15755853Y-45316900D01*
X15848985Y-45177519D01*
X15967519Y-45058985D01*
X16106900Y-44965853D01*
X16261772Y-44901703D01*
X16426184Y-44869000D01*
X16593816Y-44869000D01*
X16758228Y-44901703D01*
G37*
G36*
X21838228Y-44901703D02*
G01*
X21993100Y-44965853D01*
X22132481Y-45058985D01*
X22251015Y-45177519D01*
X22344147Y-45316900D01*
X22408297Y-45471772D01*
X22441000Y-45636184D01*
X22441000Y-45803816D01*
X22408297Y-45968228D01*
X22344147Y-46123100D01*
X22251015Y-46262481D01*
X22132481Y-46381015D01*
X21993100Y-46474147D01*
X21838228Y-46538297D01*
X21673816Y-46571000D01*
X21506184Y-46571000D01*
X21341772Y-46538297D01*
X21186900Y-46474147D01*
X21047519Y-46381015D01*
X20928985Y-46262481D01*
X20835853Y-46123100D01*
X20771703Y-45968228D01*
X20739000Y-45803816D01*
X20739000Y-45636184D01*
X20771703Y-45471772D01*
X20835853Y-45316900D01*
X20928985Y-45177519D01*
X21047519Y-45058985D01*
X21186900Y-44965853D01*
X21341772Y-44901703D01*
X21506184Y-44869000D01*
X21673816Y-44869000D01*
X21838228Y-44901703D01*
G37*
G36*
X19298228Y-44901703D02*
G01*
X19453100Y-44965853D01*
X19592481Y-45058985D01*
X19711015Y-45177519D01*
X19804147Y-45316900D01*
X19868297Y-45471772D01*
X19901000Y-45636184D01*
X19901000Y-45803816D01*
X19868297Y-45968228D01*
X19804147Y-46123100D01*
X19711015Y-46262481D01*
X19592481Y-46381015D01*
X19453100Y-46474147D01*
X19298228Y-46538297D01*
X19133816Y-46571000D01*
X18966184Y-46571000D01*
X18801772Y-46538297D01*
X18646900Y-46474147D01*
X18507519Y-46381015D01*
X18388985Y-46262481D01*
X18295853Y-46123100D01*
X18231703Y-45968228D01*
X18199000Y-45803816D01*
X18199000Y-45636184D01*
X18231703Y-45471772D01*
X18295853Y-45316900D01*
X18388985Y-45177519D01*
X18507519Y-45058985D01*
X18646900Y-44965853D01*
X18801772Y-44901703D01*
X18966184Y-44869000D01*
X19133816Y-44869000D01*
X19298228Y-44901703D01*
G37*
G36*
X14218228Y-44901703D02*
G01*
X14373100Y-44965853D01*
X14512481Y-45058985D01*
X14631015Y-45177519D01*
X14724147Y-45316900D01*
X14788297Y-45471772D01*
X14821000Y-45636184D01*
X14821000Y-45803816D01*
X14788297Y-45968228D01*
X14724147Y-46123100D01*
X14631015Y-46262481D01*
X14512481Y-46381015D01*
X14373100Y-46474147D01*
X14218228Y-46538297D01*
X14053816Y-46571000D01*
X13886184Y-46571000D01*
X13721772Y-46538297D01*
X13566900Y-46474147D01*
X13427519Y-46381015D01*
X13308985Y-46262481D01*
X13215853Y-46123100D01*
X13151703Y-45968228D01*
X13119000Y-45803816D01*
X13119000Y-45636184D01*
X13151703Y-45471772D01*
X13215853Y-45316900D01*
X13308985Y-45177519D01*
X13427519Y-45058985D01*
X13566900Y-44965853D01*
X13721772Y-44901703D01*
X13886184Y-44869000D01*
X14053816Y-44869000D01*
X14218228Y-44901703D01*
G37*
G36*
X35911347Y-45089209D02*
G01*
X36030734Y-45138661D01*
X36138173Y-45210449D01*
X36229551Y-45301827D01*
X36301339Y-45409266D01*
X36350791Y-45528653D01*
X36376000Y-45655388D01*
X36376000Y-45784612D01*
X36350791Y-45911347D01*
X36301339Y-46030734D01*
X36229551Y-46138173D01*
X36138173Y-46229551D01*
X36030734Y-46301339D01*
X35911347Y-46350791D01*
X35784612Y-46376000D01*
X35655388Y-46376000D01*
X35528653Y-46350791D01*
X35409266Y-46301339D01*
X35301827Y-46229551D01*
X35210449Y-46138173D01*
X35138661Y-46030734D01*
X35089209Y-45911347D01*
X35064000Y-45784612D01*
X35064000Y-45655388D01*
X35089209Y-45528653D01*
X35138661Y-45409266D01*
X35210449Y-45301827D01*
X35301827Y-45210449D01*
X35409266Y-45138661D01*
X35528653Y-45089209D01*
X35655388Y-45064000D01*
X35784612Y-45064000D01*
X35911347Y-45089209D01*
G37*
G36*
X27971347Y-45089209D02*
G01*
X28090734Y-45138661D01*
X28198173Y-45210449D01*
X28289551Y-45301827D01*
X28361339Y-45409266D01*
X28410791Y-45528653D01*
X28436000Y-45655388D01*
X28436000Y-45784612D01*
X28410791Y-45911347D01*
X28361339Y-46030734D01*
X28289551Y-46138173D01*
X28198173Y-46229551D01*
X28090734Y-46301339D01*
X27971347Y-46350791D01*
X27844612Y-46376000D01*
X27715388Y-46376000D01*
X27588653Y-46350791D01*
X27469266Y-46301339D01*
X27361827Y-46229551D01*
X27270449Y-46138173D01*
X27198661Y-46030734D01*
X27149209Y-45911347D01*
X27124000Y-45784612D01*
X27124000Y-45655388D01*
X27149209Y-45528653D01*
X27198661Y-45409266D01*
X27270449Y-45301827D01*
X27361827Y-45210449D01*
X27469266Y-45138661D01*
X27588653Y-45089209D01*
X27715388Y-45064000D01*
X27844612Y-45064000D01*
X27971347Y-45089209D01*
G37*
G36*
X48673855Y-45072140D02*
G01*
X48737618Y-45078420D01*
X48828404Y-45105960D01*
X48860336Y-45115646D01*
X48973425Y-45176094D01*
X49072554Y-45257446D01*
X49153906Y-45356575D01*
X49214354Y-45469664D01*
X49214355Y-45469668D01*
X49251580Y-45592382D01*
X49264149Y-45720000D01*
X49251580Y-45847618D01*
X49224040Y-45938404D01*
X49214354Y-45970336D01*
X49153906Y-46083425D01*
X49072554Y-46182554D01*
X48973425Y-46263906D01*
X48860336Y-46324354D01*
X48828404Y-46334040D01*
X48737618Y-46361580D01*
X48673855Y-46367860D01*
X48641974Y-46371000D01*
X47778026Y-46371000D01*
X47746145Y-46367860D01*
X47682382Y-46361580D01*
X47591596Y-46334040D01*
X47559664Y-46324354D01*
X47446575Y-46263906D01*
X47347446Y-46182554D01*
X47266094Y-46083425D01*
X47205646Y-45970336D01*
X47195960Y-45938404D01*
X47168420Y-45847618D01*
X47155851Y-45720000D01*
X47168420Y-45592382D01*
X47205645Y-45469668D01*
X47205646Y-45469664D01*
X47266094Y-45356575D01*
X47347446Y-45257446D01*
X47446575Y-45176094D01*
X47559664Y-45115646D01*
X47591596Y-45105960D01*
X47682382Y-45078420D01*
X47746145Y-45072140D01*
X47778026Y-45069000D01*
X48641974Y-45069000D01*
X48673855Y-45072140D01*
G37*
G36*
X41153855Y-45072140D02*
G01*
X41217618Y-45078420D01*
X41308404Y-45105960D01*
X41340336Y-45115646D01*
X41453425Y-45176094D01*
X41552554Y-45257446D01*
X41633906Y-45356575D01*
X41694354Y-45469664D01*
X41694355Y-45469668D01*
X41731580Y-45592382D01*
X41744149Y-45720000D01*
X41731580Y-45847618D01*
X41704040Y-45938404D01*
X41694354Y-45970336D01*
X41633906Y-46083425D01*
X41552554Y-46182554D01*
X41453425Y-46263906D01*
X41340336Y-46324354D01*
X41308404Y-46334040D01*
X41217618Y-46361580D01*
X41153855Y-46367860D01*
X41121974Y-46371000D01*
X40258026Y-46371000D01*
X40226145Y-46367860D01*
X40162382Y-46361580D01*
X40071596Y-46334040D01*
X40039664Y-46324354D01*
X39926575Y-46263906D01*
X39827446Y-46182554D01*
X39746094Y-46083425D01*
X39685646Y-45970336D01*
X39675960Y-45938404D01*
X39648420Y-45847618D01*
X39635851Y-45720000D01*
X39648420Y-45592382D01*
X39685645Y-45469668D01*
X39685646Y-45469664D01*
X39746094Y-45356575D01*
X39827446Y-45257446D01*
X39926575Y-45176094D01*
X40039664Y-45115646D01*
X40071596Y-45105960D01*
X40162382Y-45078420D01*
X40226145Y-45072140D01*
X40258026Y-45069000D01*
X41121974Y-45069000D01*
X41153855Y-45072140D01*
G37*
G36*
X27971347Y-42549209D02*
G01*
X28090734Y-42598661D01*
X28198173Y-42670449D01*
X28289551Y-42761827D01*
X28361339Y-42869266D01*
X28410791Y-42988653D01*
X28436000Y-43115388D01*
X28436000Y-43244612D01*
X28410791Y-43371347D01*
X28361339Y-43490734D01*
X28289551Y-43598173D01*
X28198173Y-43689551D01*
X28090734Y-43761339D01*
X27971347Y-43810791D01*
X27844612Y-43836000D01*
X27715388Y-43836000D01*
X27588653Y-43810791D01*
X27469266Y-43761339D01*
X27361827Y-43689551D01*
X27270449Y-43598173D01*
X27198661Y-43490734D01*
X27149209Y-43371347D01*
X27124000Y-43244612D01*
X27124000Y-43115388D01*
X27149209Y-42988653D01*
X27198661Y-42869266D01*
X27270449Y-42761827D01*
X27361827Y-42670449D01*
X27469266Y-42598661D01*
X27588653Y-42549209D01*
X27715388Y-42524000D01*
X27844612Y-42524000D01*
X27971347Y-42549209D01*
G37*
G36*
X35911347Y-42549209D02*
G01*
X36030734Y-42598661D01*
X36138173Y-42670449D01*
X36229551Y-42761827D01*
X36301339Y-42869266D01*
X36350791Y-42988653D01*
X36376000Y-43115388D01*
X36376000Y-43244612D01*
X36350791Y-43371347D01*
X36301339Y-43490734D01*
X36229551Y-43598173D01*
X36138173Y-43689551D01*
X36030734Y-43761339D01*
X35911347Y-43810791D01*
X35784612Y-43836000D01*
X35655388Y-43836000D01*
X35528653Y-43810791D01*
X35409266Y-43761339D01*
X35301827Y-43689551D01*
X35210449Y-43598173D01*
X35138661Y-43490734D01*
X35089209Y-43371347D01*
X35064000Y-43244612D01*
X35064000Y-43115388D01*
X35089209Y-42988653D01*
X35138661Y-42869266D01*
X35210449Y-42761827D01*
X35301827Y-42670449D01*
X35409266Y-42598661D01*
X35528653Y-42549209D01*
X35655388Y-42524000D01*
X35784612Y-42524000D01*
X35911347Y-42549209D01*
G37*
G36*
X48673855Y-42532140D02*
G01*
X48737618Y-42538420D01*
X48828404Y-42565960D01*
X48860336Y-42575646D01*
X48973425Y-42636094D01*
X49072554Y-42717446D01*
X49153906Y-42816575D01*
X49214354Y-42929664D01*
X49214355Y-42929668D01*
X49251580Y-43052382D01*
X49264149Y-43180000D01*
X49251580Y-43307618D01*
X49224040Y-43398404D01*
X49214354Y-43430336D01*
X49153906Y-43543425D01*
X49072554Y-43642554D01*
X48973425Y-43723906D01*
X48860336Y-43784354D01*
X48828404Y-43794040D01*
X48737618Y-43821580D01*
X48673855Y-43827860D01*
X48641974Y-43831000D01*
X47778026Y-43831000D01*
X47746145Y-43827860D01*
X47682382Y-43821580D01*
X47591596Y-43794040D01*
X47559664Y-43784354D01*
X47446575Y-43723906D01*
X47347446Y-43642554D01*
X47266094Y-43543425D01*
X47205646Y-43430336D01*
X47195960Y-43398404D01*
X47168420Y-43307618D01*
X47155851Y-43180000D01*
X47168420Y-43052382D01*
X47205645Y-42929668D01*
X47205646Y-42929664D01*
X47266094Y-42816575D01*
X47347446Y-42717446D01*
X47446575Y-42636094D01*
X47559664Y-42575646D01*
X47591596Y-42565960D01*
X47682382Y-42538420D01*
X47746145Y-42532140D01*
X47778026Y-42529000D01*
X48641974Y-42529000D01*
X48673855Y-42532140D01*
G37*
G36*
X41153855Y-42532140D02*
G01*
X41217618Y-42538420D01*
X41308404Y-42565960D01*
X41340336Y-42575646D01*
X41453425Y-42636094D01*
X41552554Y-42717446D01*
X41633906Y-42816575D01*
X41694354Y-42929664D01*
X41694355Y-42929668D01*
X41731580Y-43052382D01*
X41744149Y-43180000D01*
X41731580Y-43307618D01*
X41704040Y-43398404D01*
X41694354Y-43430336D01*
X41633906Y-43543425D01*
X41552554Y-43642554D01*
X41453425Y-43723906D01*
X41340336Y-43784354D01*
X41308404Y-43794040D01*
X41217618Y-43821580D01*
X41153855Y-43827860D01*
X41121974Y-43831000D01*
X40258026Y-43831000D01*
X40226145Y-43827860D01*
X40162382Y-43821580D01*
X40071596Y-43794040D01*
X40039664Y-43784354D01*
X39926575Y-43723906D01*
X39827446Y-43642554D01*
X39746094Y-43543425D01*
X39685646Y-43430336D01*
X39675960Y-43398404D01*
X39648420Y-43307618D01*
X39635851Y-43180000D01*
X39648420Y-43052382D01*
X39685645Y-42929668D01*
X39685646Y-42929664D01*
X39746094Y-42816575D01*
X39827446Y-42717446D01*
X39926575Y-42636094D01*
X40039664Y-42575646D01*
X40071596Y-42565960D01*
X40162382Y-42538420D01*
X40226145Y-42532140D01*
X40258026Y-42529000D01*
X41121974Y-42529000D01*
X41153855Y-42532140D01*
G37*
G36*
X27971347Y-40009209D02*
G01*
X28090734Y-40058661D01*
X28198173Y-40130449D01*
X28289551Y-40221827D01*
X28361339Y-40329266D01*
X28410791Y-40448653D01*
X28436000Y-40575388D01*
X28436000Y-40704612D01*
X28410791Y-40831347D01*
X28361339Y-40950734D01*
X28289551Y-41058173D01*
X28198173Y-41149551D01*
X28090734Y-41221339D01*
X27971347Y-41270791D01*
X27844612Y-41296000D01*
X27715388Y-41296000D01*
X27588653Y-41270791D01*
X27469266Y-41221339D01*
X27361827Y-41149551D01*
X27270449Y-41058173D01*
X27198661Y-40950734D01*
X27149209Y-40831347D01*
X27124000Y-40704612D01*
X27124000Y-40575388D01*
X27149209Y-40448653D01*
X27198661Y-40329266D01*
X27270449Y-40221827D01*
X27361827Y-40130449D01*
X27469266Y-40058661D01*
X27588653Y-40009209D01*
X27715388Y-39984000D01*
X27844612Y-39984000D01*
X27971347Y-40009209D01*
G37*
G36*
X35911347Y-40009209D02*
G01*
X36030734Y-40058661D01*
X36138173Y-40130449D01*
X36229551Y-40221827D01*
X36301339Y-40329266D01*
X36350791Y-40448653D01*
X36376000Y-40575388D01*
X36376000Y-40704612D01*
X36350791Y-40831347D01*
X36301339Y-40950734D01*
X36229551Y-41058173D01*
X36138173Y-41149551D01*
X36030734Y-41221339D01*
X35911347Y-41270791D01*
X35784612Y-41296000D01*
X35655388Y-41296000D01*
X35528653Y-41270791D01*
X35409266Y-41221339D01*
X35301827Y-41149551D01*
X35210449Y-41058173D01*
X35138661Y-40950734D01*
X35089209Y-40831347D01*
X35064000Y-40704612D01*
X35064000Y-40575388D01*
X35089209Y-40448653D01*
X35138661Y-40329266D01*
X35210449Y-40221827D01*
X35301827Y-40130449D01*
X35409266Y-40058661D01*
X35528653Y-40009209D01*
X35655388Y-39984000D01*
X35784612Y-39984000D01*
X35911347Y-40009209D01*
G37*
G36*
X41153855Y-39992140D02*
G01*
X41217618Y-39998420D01*
X41308404Y-40025960D01*
X41340336Y-40035646D01*
X41453425Y-40096094D01*
X41552554Y-40177446D01*
X41633906Y-40276575D01*
X41694354Y-40389664D01*
X41694355Y-40389668D01*
X41731580Y-40512382D01*
X41744149Y-40640000D01*
X41731580Y-40767618D01*
X41704040Y-40858404D01*
X41694354Y-40890336D01*
X41633906Y-41003425D01*
X41552554Y-41102554D01*
X41453425Y-41183906D01*
X41340336Y-41244354D01*
X41308404Y-41254040D01*
X41217618Y-41281580D01*
X41153855Y-41287860D01*
X41121974Y-41291000D01*
X40258026Y-41291000D01*
X40226145Y-41287860D01*
X40162382Y-41281580D01*
X40071596Y-41254040D01*
X40039664Y-41244354D01*
X39926575Y-41183906D01*
X39827446Y-41102554D01*
X39746094Y-41003425D01*
X39685646Y-40890336D01*
X39675960Y-40858404D01*
X39648420Y-40767618D01*
X39635851Y-40640000D01*
X39648420Y-40512382D01*
X39685645Y-40389668D01*
X39685646Y-40389664D01*
X39746094Y-40276575D01*
X39827446Y-40177446D01*
X39926575Y-40096094D01*
X40039664Y-40035646D01*
X40071596Y-40025960D01*
X40162382Y-39998420D01*
X40226145Y-39992140D01*
X40258026Y-39989000D01*
X41121974Y-39989000D01*
X41153855Y-39992140D01*
G37*
G36*
X48673855Y-39992140D02*
G01*
X48737618Y-39998420D01*
X48828404Y-40025960D01*
X48860336Y-40035646D01*
X48973425Y-40096094D01*
X49072554Y-40177446D01*
X49153906Y-40276575D01*
X49214354Y-40389664D01*
X49214355Y-40389668D01*
X49251580Y-40512382D01*
X49264149Y-40640000D01*
X49251580Y-40767618D01*
X49224040Y-40858404D01*
X49214354Y-40890336D01*
X49153906Y-41003425D01*
X49072554Y-41102554D01*
X48973425Y-41183906D01*
X48860336Y-41244354D01*
X48828404Y-41254040D01*
X48737618Y-41281580D01*
X48673855Y-41287860D01*
X48641974Y-41291000D01*
X47778026Y-41291000D01*
X47746145Y-41287860D01*
X47682382Y-41281580D01*
X47591596Y-41254040D01*
X47559664Y-41244354D01*
X47446575Y-41183906D01*
X47347446Y-41102554D01*
X47266094Y-41003425D01*
X47205646Y-40890336D01*
X47195960Y-40858404D01*
X47168420Y-40767618D01*
X47155851Y-40640000D01*
X47168420Y-40512382D01*
X47205645Y-40389668D01*
X47205646Y-40389664D01*
X47266094Y-40276575D01*
X47347446Y-40177446D01*
X47446575Y-40096094D01*
X47559664Y-40035646D01*
X47591596Y-40025960D01*
X47682382Y-39998420D01*
X47746145Y-39992140D01*
X47778026Y-39989000D01*
X48641974Y-39989000D01*
X48673855Y-39992140D01*
G37*
G36*
X55822585Y-36008802D02*
G01*
X55972410Y-36038604D01*
X56254674Y-36155521D01*
X56508705Y-36325259D01*
X56724741Y-36541295D01*
X56894479Y-36795326D01*
X57011396Y-37077590D01*
X57071000Y-37377240D01*
X57071000Y-37682760D01*
X57011396Y-37982410D01*
X56894479Y-38264674D01*
X56724741Y-38518705D01*
X56508705Y-38734741D01*
X56254674Y-38904479D01*
X55972410Y-39021396D01*
X55822585Y-39051198D01*
X55672761Y-39081000D01*
X55367239Y-39081000D01*
X55217415Y-39051198D01*
X55067590Y-39021396D01*
X54785326Y-38904479D01*
X54531295Y-38734741D01*
X54315259Y-38518705D01*
X54145521Y-38264674D01*
X54028604Y-37982410D01*
X53969000Y-37682760D01*
X53969000Y-37377240D01*
X54028604Y-37077590D01*
X54145521Y-36795326D01*
X54315259Y-36541295D01*
X54531295Y-36325259D01*
X54785326Y-36155521D01*
X55067590Y-36038604D01*
X55217415Y-36008802D01*
X55367239Y-35979000D01*
X55672761Y-35979000D01*
X55822585Y-36008802D01*
G37*
G36*
X121822585Y-36008802D02*
G01*
X121972410Y-36038604D01*
X122254674Y-36155521D01*
X122508705Y-36325259D01*
X122724741Y-36541295D01*
X122894479Y-36795326D01*
X123011396Y-37077590D01*
X123071000Y-37377240D01*
X123071000Y-37682760D01*
X123011396Y-37982410D01*
X122894479Y-38264674D01*
X122724741Y-38518705D01*
X122508705Y-38734741D01*
X122254674Y-38904479D01*
X121972410Y-39021396D01*
X121822585Y-39051198D01*
X121672761Y-39081000D01*
X121367239Y-39081000D01*
X121217415Y-39051198D01*
X121067590Y-39021396D01*
X120785326Y-38904479D01*
X120531295Y-38734741D01*
X120315259Y-38518705D01*
X120145521Y-38264674D01*
X120028604Y-37982410D01*
X119969000Y-37682760D01*
X119969000Y-37377240D01*
X120028604Y-37077590D01*
X120145521Y-36795326D01*
X120315259Y-36541295D01*
X120531295Y-36325259D01*
X120785326Y-36155521D01*
X121067590Y-36038604D01*
X121217415Y-36008802D01*
X121367239Y-35979000D01*
X121672761Y-35979000D01*
X121822585Y-36008802D01*
G37*
G36*
X27971347Y-37469209D02*
G01*
X28090734Y-37518661D01*
X28198173Y-37590449D01*
X28289551Y-37681827D01*
X28361339Y-37789266D01*
X28410791Y-37908653D01*
X28436000Y-38035388D01*
X28436000Y-38164612D01*
X28410791Y-38291347D01*
X28361339Y-38410734D01*
X28289551Y-38518173D01*
X28198173Y-38609551D01*
X28090734Y-38681339D01*
X27971347Y-38730791D01*
X27844612Y-38756000D01*
X27715388Y-38756000D01*
X27588653Y-38730791D01*
X27469266Y-38681339D01*
X27361827Y-38609551D01*
X27270449Y-38518173D01*
X27198661Y-38410734D01*
X27149209Y-38291347D01*
X27124000Y-38164612D01*
X27124000Y-38035388D01*
X27149209Y-37908653D01*
X27198661Y-37789266D01*
X27270449Y-37681827D01*
X27361827Y-37590449D01*
X27469266Y-37518661D01*
X27588653Y-37469209D01*
X27715388Y-37444000D01*
X27844612Y-37444000D01*
X27971347Y-37469209D01*
G37*
G36*
X35911347Y-37469209D02*
G01*
X36030734Y-37518661D01*
X36138173Y-37590449D01*
X36229551Y-37681827D01*
X36301339Y-37789266D01*
X36350791Y-37908653D01*
X36376000Y-38035388D01*
X36376000Y-38164612D01*
X36350791Y-38291347D01*
X36301339Y-38410734D01*
X36229551Y-38518173D01*
X36138173Y-38609551D01*
X36030734Y-38681339D01*
X35911347Y-38730791D01*
X35784612Y-38756000D01*
X35655388Y-38756000D01*
X35528653Y-38730791D01*
X35409266Y-38681339D01*
X35301827Y-38609551D01*
X35210449Y-38518173D01*
X35138661Y-38410734D01*
X35089209Y-38291347D01*
X35064000Y-38164612D01*
X35064000Y-38035388D01*
X35089209Y-37908653D01*
X35138661Y-37789266D01*
X35210449Y-37681827D01*
X35301827Y-37590449D01*
X35409266Y-37518661D01*
X35528653Y-37469209D01*
X35655388Y-37444000D01*
X35784612Y-37444000D01*
X35911347Y-37469209D01*
G37*
G36*
X48673855Y-37452140D02*
G01*
X48737618Y-37458420D01*
X48828404Y-37485960D01*
X48860336Y-37495646D01*
X48973425Y-37556094D01*
X49072554Y-37637446D01*
X49153906Y-37736575D01*
X49214354Y-37849664D01*
X49214355Y-37849668D01*
X49251580Y-37972382D01*
X49264149Y-38100000D01*
X49251580Y-38227618D01*
X49224040Y-38318404D01*
X49214354Y-38350336D01*
X49153906Y-38463425D01*
X49072554Y-38562554D01*
X48973425Y-38643906D01*
X48860336Y-38704354D01*
X48828404Y-38714040D01*
X48737618Y-38741580D01*
X48673855Y-38747860D01*
X48641974Y-38751000D01*
X47778026Y-38751000D01*
X47746145Y-38747860D01*
X47682382Y-38741580D01*
X47591596Y-38714040D01*
X47559664Y-38704354D01*
X47446575Y-38643906D01*
X47347446Y-38562554D01*
X47266094Y-38463425D01*
X47205646Y-38350336D01*
X47195960Y-38318404D01*
X47168420Y-38227618D01*
X47155851Y-38100000D01*
X47168420Y-37972382D01*
X47205645Y-37849668D01*
X47205646Y-37849664D01*
X47266094Y-37736575D01*
X47347446Y-37637446D01*
X47446575Y-37556094D01*
X47559664Y-37495646D01*
X47591596Y-37485960D01*
X47682382Y-37458420D01*
X47746145Y-37452140D01*
X47778026Y-37449000D01*
X48641974Y-37449000D01*
X48673855Y-37452140D01*
G37*
G36*
X41153855Y-37452140D02*
G01*
X41217618Y-37458420D01*
X41308404Y-37485960D01*
X41340336Y-37495646D01*
X41453425Y-37556094D01*
X41552554Y-37637446D01*
X41633906Y-37736575D01*
X41694354Y-37849664D01*
X41694355Y-37849668D01*
X41731580Y-37972382D01*
X41744149Y-38100000D01*
X41731580Y-38227618D01*
X41704040Y-38318404D01*
X41694354Y-38350336D01*
X41633906Y-38463425D01*
X41552554Y-38562554D01*
X41453425Y-38643906D01*
X41340336Y-38704354D01*
X41308404Y-38714040D01*
X41217618Y-38741580D01*
X41153855Y-38747860D01*
X41121974Y-38751000D01*
X40258026Y-38751000D01*
X40226145Y-38747860D01*
X40162382Y-38741580D01*
X40071596Y-38714040D01*
X40039664Y-38704354D01*
X39926575Y-38643906D01*
X39827446Y-38562554D01*
X39746094Y-38463425D01*
X39685646Y-38350336D01*
X39675960Y-38318404D01*
X39648420Y-38227618D01*
X39635851Y-38100000D01*
X39648420Y-37972382D01*
X39685645Y-37849668D01*
X39685646Y-37849664D01*
X39746094Y-37736575D01*
X39827446Y-37637446D01*
X39926575Y-37556094D01*
X40039664Y-37495646D01*
X40071596Y-37485960D01*
X40162382Y-37458420D01*
X40226145Y-37452140D01*
X40258026Y-37449000D01*
X41121974Y-37449000D01*
X41153855Y-37452140D01*
G37*
G36*
X11678228Y-34741703D02*
G01*
X11833100Y-34805853D01*
X11972481Y-34898985D01*
X12091015Y-35017519D01*
X12184147Y-35156900D01*
X12248297Y-35311772D01*
X12281000Y-35476184D01*
X12281000Y-35643816D01*
X12248297Y-35808228D01*
X12184147Y-35963100D01*
X12091015Y-36102481D01*
X11972481Y-36221015D01*
X11833100Y-36314147D01*
X11678228Y-36378297D01*
X11513816Y-36411000D01*
X11346184Y-36411000D01*
X11181772Y-36378297D01*
X11026900Y-36314147D01*
X10887519Y-36221015D01*
X10768985Y-36102481D01*
X10675853Y-35963100D01*
X10611703Y-35808228D01*
X10579000Y-35643816D01*
X10579000Y-35476184D01*
X10611703Y-35311772D01*
X10675853Y-35156900D01*
X10768985Y-35017519D01*
X10887519Y-34898985D01*
X11026900Y-34805853D01*
X11181772Y-34741703D01*
X11346184Y-34709000D01*
X11513816Y-34709000D01*
X11678228Y-34741703D01*
G37*
G36*
X6598228Y-34741703D02*
G01*
X6753100Y-34805853D01*
X6892481Y-34898985D01*
X7011015Y-35017519D01*
X7104147Y-35156900D01*
X7168297Y-35311772D01*
X7201000Y-35476184D01*
X7201000Y-35643816D01*
X7168297Y-35808228D01*
X7104147Y-35963100D01*
X7011015Y-36102481D01*
X6892481Y-36221015D01*
X6753100Y-36314147D01*
X6598228Y-36378297D01*
X6433816Y-36411000D01*
X6266184Y-36411000D01*
X6101772Y-36378297D01*
X5946900Y-36314147D01*
X5807519Y-36221015D01*
X5688985Y-36102481D01*
X5595853Y-35963100D01*
X5531703Y-35808228D01*
X5499000Y-35643816D01*
X5499000Y-35476184D01*
X5531703Y-35311772D01*
X5595853Y-35156900D01*
X5688985Y-35017519D01*
X5807519Y-34898985D01*
X5946900Y-34805853D01*
X6101772Y-34741703D01*
X6266184Y-34709000D01*
X6433816Y-34709000D01*
X6598228Y-34741703D01*
G37*
G36*
X4058228Y-34741703D02*
G01*
X4213100Y-34805853D01*
X4352481Y-34898985D01*
X4471015Y-35017519D01*
X4564147Y-35156900D01*
X4628297Y-35311772D01*
X4661000Y-35476184D01*
X4661000Y-35643816D01*
X4628297Y-35808228D01*
X4564147Y-35963100D01*
X4471015Y-36102481D01*
X4352481Y-36221015D01*
X4213100Y-36314147D01*
X4058228Y-36378297D01*
X3893816Y-36411000D01*
X3726184Y-36411000D01*
X3561772Y-36378297D01*
X3406900Y-36314147D01*
X3267519Y-36221015D01*
X3148985Y-36102481D01*
X3055853Y-35963100D01*
X2991703Y-35808228D01*
X2959000Y-35643816D01*
X2959000Y-35476184D01*
X2991703Y-35311772D01*
X3055853Y-35156900D01*
X3148985Y-35017519D01*
X3267519Y-34898985D01*
X3406900Y-34805853D01*
X3561772Y-34741703D01*
X3726184Y-34709000D01*
X3893816Y-34709000D01*
X4058228Y-34741703D01*
G37*
G36*
X9138228Y-34741703D02*
G01*
X9293100Y-34805853D01*
X9432481Y-34898985D01*
X9551015Y-35017519D01*
X9644147Y-35156900D01*
X9708297Y-35311772D01*
X9741000Y-35476184D01*
X9741000Y-35643816D01*
X9708297Y-35808228D01*
X9644147Y-35963100D01*
X9551015Y-36102481D01*
X9432481Y-36221015D01*
X9293100Y-36314147D01*
X9138228Y-36378297D01*
X8973816Y-36411000D01*
X8806184Y-36411000D01*
X8641772Y-36378297D01*
X8486900Y-36314147D01*
X8347519Y-36221015D01*
X8228985Y-36102481D01*
X8135853Y-35963100D01*
X8071703Y-35808228D01*
X8039000Y-35643816D01*
X8039000Y-35476184D01*
X8071703Y-35311772D01*
X8135853Y-35156900D01*
X8228985Y-35017519D01*
X8347519Y-34898985D01*
X8486900Y-34805853D01*
X8641772Y-34741703D01*
X8806184Y-34709000D01*
X8973816Y-34709000D01*
X9138228Y-34741703D01*
G37*
G36*
X19298228Y-34741703D02*
G01*
X19453100Y-34805853D01*
X19592481Y-34898985D01*
X19711015Y-35017519D01*
X19804147Y-35156900D01*
X19868297Y-35311772D01*
X19901000Y-35476184D01*
X19901000Y-35643816D01*
X19868297Y-35808228D01*
X19804147Y-35963100D01*
X19711015Y-36102481D01*
X19592481Y-36221015D01*
X19453100Y-36314147D01*
X19298228Y-36378297D01*
X19133816Y-36411000D01*
X18966184Y-36411000D01*
X18801772Y-36378297D01*
X18646900Y-36314147D01*
X18507519Y-36221015D01*
X18388985Y-36102481D01*
X18295853Y-35963100D01*
X18231703Y-35808228D01*
X18199000Y-35643816D01*
X18199000Y-35476184D01*
X18231703Y-35311772D01*
X18295853Y-35156900D01*
X18388985Y-35017519D01*
X18507519Y-34898985D01*
X18646900Y-34805853D01*
X18801772Y-34741703D01*
X18966184Y-34709000D01*
X19133816Y-34709000D01*
X19298228Y-34741703D01*
G37*
G36*
X21838228Y-34741703D02*
G01*
X21993100Y-34805853D01*
X22132481Y-34898985D01*
X22251015Y-35017519D01*
X22344147Y-35156900D01*
X22408297Y-35311772D01*
X22441000Y-35476184D01*
X22441000Y-35643816D01*
X22408297Y-35808228D01*
X22344147Y-35963100D01*
X22251015Y-36102481D01*
X22132481Y-36221015D01*
X21993100Y-36314147D01*
X21838228Y-36378297D01*
X21673816Y-36411000D01*
X21506184Y-36411000D01*
X21341772Y-36378297D01*
X21186900Y-36314147D01*
X21047519Y-36221015D01*
X20928985Y-36102481D01*
X20835853Y-35963100D01*
X20771703Y-35808228D01*
X20739000Y-35643816D01*
X20739000Y-35476184D01*
X20771703Y-35311772D01*
X20835853Y-35156900D01*
X20928985Y-35017519D01*
X21047519Y-34898985D01*
X21186900Y-34805853D01*
X21341772Y-34741703D01*
X21506184Y-34709000D01*
X21673816Y-34709000D01*
X21838228Y-34741703D01*
G37*
G36*
X16758228Y-34741703D02*
G01*
X16913100Y-34805853D01*
X17052481Y-34898985D01*
X17171015Y-35017519D01*
X17264147Y-35156900D01*
X17328297Y-35311772D01*
X17361000Y-35476184D01*
X17361000Y-35643816D01*
X17328297Y-35808228D01*
X17264147Y-35963100D01*
X17171015Y-36102481D01*
X17052481Y-36221015D01*
X16913100Y-36314147D01*
X16758228Y-36378297D01*
X16593816Y-36411000D01*
X16426184Y-36411000D01*
X16261772Y-36378297D01*
X16106900Y-36314147D01*
X15967519Y-36221015D01*
X15848985Y-36102481D01*
X15755853Y-35963100D01*
X15691703Y-35808228D01*
X15659000Y-35643816D01*
X15659000Y-35476184D01*
X15691703Y-35311772D01*
X15755853Y-35156900D01*
X15848985Y-35017519D01*
X15967519Y-34898985D01*
X16106900Y-34805853D01*
X16261772Y-34741703D01*
X16426184Y-34709000D01*
X16593816Y-34709000D01*
X16758228Y-34741703D01*
G37*
G36*
X14218228Y-34741703D02*
G01*
X14373100Y-34805853D01*
X14512481Y-34898985D01*
X14631015Y-35017519D01*
X14724147Y-35156900D01*
X14788297Y-35311772D01*
X14821000Y-35476184D01*
X14821000Y-35643816D01*
X14788297Y-35808228D01*
X14724147Y-35963100D01*
X14631015Y-36102481D01*
X14512481Y-36221015D01*
X14373100Y-36314147D01*
X14218228Y-36378297D01*
X14053816Y-36411000D01*
X13886184Y-36411000D01*
X13721772Y-36378297D01*
X13566900Y-36314147D01*
X13427519Y-36221015D01*
X13308985Y-36102481D01*
X13215853Y-35963100D01*
X13151703Y-35808228D01*
X13119000Y-35643816D01*
X13119000Y-35476184D01*
X13151703Y-35311772D01*
X13215853Y-35156900D01*
X13308985Y-35017519D01*
X13427519Y-34898985D01*
X13566900Y-34805853D01*
X13721772Y-34741703D01*
X13886184Y-34709000D01*
X14053816Y-34709000D01*
X14218228Y-34741703D01*
G37*
G36*
X27971347Y-34929209D02*
G01*
X28090734Y-34978661D01*
X28198173Y-35050449D01*
X28289551Y-35141827D01*
X28361339Y-35249266D01*
X28410791Y-35368653D01*
X28436000Y-35495388D01*
X28436000Y-35624612D01*
X28410791Y-35751347D01*
X28361339Y-35870734D01*
X28289551Y-35978173D01*
X28198173Y-36069551D01*
X28090734Y-36141339D01*
X27971347Y-36190791D01*
X27844612Y-36216000D01*
X27715388Y-36216000D01*
X27588653Y-36190791D01*
X27469266Y-36141339D01*
X27361827Y-36069551D01*
X27270449Y-35978173D01*
X27198661Y-35870734D01*
X27149209Y-35751347D01*
X27124000Y-35624612D01*
X27124000Y-35495388D01*
X27149209Y-35368653D01*
X27198661Y-35249266D01*
X27270449Y-35141827D01*
X27361827Y-35050449D01*
X27469266Y-34978661D01*
X27588653Y-34929209D01*
X27715388Y-34904000D01*
X27844612Y-34904000D01*
X27971347Y-34929209D01*
G37*
G36*
X35911347Y-34929209D02*
G01*
X36030734Y-34978661D01*
X36138173Y-35050449D01*
X36229551Y-35141827D01*
X36301339Y-35249266D01*
X36350791Y-35368653D01*
X36376000Y-35495388D01*
X36376000Y-35624612D01*
X36350791Y-35751347D01*
X36301339Y-35870734D01*
X36229551Y-35978173D01*
X36138173Y-36069551D01*
X36030734Y-36141339D01*
X35911347Y-36190791D01*
X35784612Y-36216000D01*
X35655388Y-36216000D01*
X35528653Y-36190791D01*
X35409266Y-36141339D01*
X35301827Y-36069551D01*
X35210449Y-35978173D01*
X35138661Y-35870734D01*
X35089209Y-35751347D01*
X35064000Y-35624612D01*
X35064000Y-35495388D01*
X35089209Y-35368653D01*
X35138661Y-35249266D01*
X35210449Y-35141827D01*
X35301827Y-35050449D01*
X35409266Y-34978661D01*
X35528653Y-34929209D01*
X35655388Y-34904000D01*
X35784612Y-34904000D01*
X35911347Y-34929209D01*
G37*
G36*
X41153855Y-34912140D02*
G01*
X41217618Y-34918420D01*
X41308404Y-34945960D01*
X41340336Y-34955646D01*
X41453425Y-35016094D01*
X41552554Y-35097446D01*
X41633906Y-35196575D01*
X41694354Y-35309664D01*
X41694355Y-35309668D01*
X41731580Y-35432382D01*
X41744149Y-35560000D01*
X41731580Y-35687618D01*
X41704040Y-35778404D01*
X41694354Y-35810336D01*
X41633906Y-35923425D01*
X41552554Y-36022554D01*
X41453425Y-36103906D01*
X41340336Y-36164354D01*
X41308404Y-36174040D01*
X41217618Y-36201580D01*
X41153855Y-36207860D01*
X41121974Y-36211000D01*
X40258026Y-36211000D01*
X40226145Y-36207860D01*
X40162382Y-36201580D01*
X40071596Y-36174040D01*
X40039664Y-36164354D01*
X39926575Y-36103906D01*
X39827446Y-36022554D01*
X39746094Y-35923425D01*
X39685646Y-35810336D01*
X39675960Y-35778404D01*
X39648420Y-35687618D01*
X39635851Y-35560000D01*
X39648420Y-35432382D01*
X39685645Y-35309668D01*
X39685646Y-35309664D01*
X39746094Y-35196575D01*
X39827446Y-35097446D01*
X39926575Y-35016094D01*
X40039664Y-34955646D01*
X40071596Y-34945960D01*
X40162382Y-34918420D01*
X40226145Y-34912140D01*
X40258026Y-34909000D01*
X41121974Y-34909000D01*
X41153855Y-34912140D01*
G37*
G36*
X48673855Y-34912140D02*
G01*
X48737618Y-34918420D01*
X48828404Y-34945960D01*
X48860336Y-34955646D01*
X48973425Y-35016094D01*
X49072554Y-35097446D01*
X49153906Y-35196575D01*
X49214354Y-35309664D01*
X49214355Y-35309668D01*
X49251580Y-35432382D01*
X49264149Y-35560000D01*
X49251580Y-35687618D01*
X49224040Y-35778404D01*
X49214354Y-35810336D01*
X49153906Y-35923425D01*
X49072554Y-36022554D01*
X48973425Y-36103906D01*
X48860336Y-36164354D01*
X48828404Y-36174040D01*
X48737618Y-36201580D01*
X48673855Y-36207860D01*
X48641974Y-36211000D01*
X47778026Y-36211000D01*
X47746145Y-36207860D01*
X47682382Y-36201580D01*
X47591596Y-36174040D01*
X47559664Y-36164354D01*
X47446575Y-36103906D01*
X47347446Y-36022554D01*
X47266094Y-35923425D01*
X47205646Y-35810336D01*
X47195960Y-35778404D01*
X47168420Y-35687618D01*
X47155851Y-35560000D01*
X47168420Y-35432382D01*
X47205645Y-35309668D01*
X47205646Y-35309664D01*
X47266094Y-35196575D01*
X47347446Y-35097446D01*
X47446575Y-35016094D01*
X47559664Y-34955646D01*
X47591596Y-34945960D01*
X47682382Y-34918420D01*
X47746145Y-34912140D01*
X47778026Y-34909000D01*
X48641974Y-34909000D01*
X48673855Y-34912140D01*
G37*
G36*
X114427617Y-26898420D02*
G01*
X114518403Y-26925960D01*
X114550335Y-26935646D01*
X114663424Y-26996094D01*
X114762554Y-27077447D01*
X114843906Y-27176575D01*
X114904354Y-27289664D01*
X114914040Y-27321596D01*
X114941580Y-27412382D01*
X114951000Y-27508027D01*
X114951000Y-28371973D01*
X114941580Y-28467618D01*
X114914040Y-28558404D01*
X114904354Y-28590336D01*
X114843906Y-28703425D01*
X114762554Y-28802554D01*
X114663425Y-28883906D01*
X114550336Y-28944354D01*
X114518404Y-28954040D01*
X114427618Y-28981580D01*
X114300000Y-28994149D01*
X114172383Y-28981580D01*
X114081597Y-28954040D01*
X114049665Y-28944354D01*
X113936576Y-28883906D01*
X113837447Y-28802554D01*
X113756095Y-28703425D01*
X113695647Y-28590336D01*
X113691282Y-28575946D01*
X113658420Y-28467618D01*
X113649000Y-28371973D01*
X113649000Y-27508028D01*
X113658420Y-27412383D01*
X113695645Y-27289669D01*
X113695646Y-27289665D01*
X113756094Y-27176576D01*
X113837447Y-27077446D01*
X113936575Y-26996094D01*
X114049664Y-26935646D01*
X114081596Y-26925960D01*
X114172382Y-26898420D01*
X114300000Y-26885851D01*
X114427617Y-26898420D01*
G37*
G36*
X119507617Y-26898420D02*
G01*
X119598403Y-26925960D01*
X119630335Y-26935646D01*
X119743424Y-26996094D01*
X119842554Y-27077447D01*
X119923906Y-27176575D01*
X119984354Y-27289664D01*
X119994040Y-27321596D01*
X120021580Y-27412382D01*
X120031000Y-27508027D01*
X120031000Y-28371973D01*
X120021580Y-28467618D01*
X119994040Y-28558404D01*
X119984354Y-28590336D01*
X119923906Y-28703425D01*
X119842554Y-28802554D01*
X119743425Y-28883906D01*
X119630336Y-28944354D01*
X119598404Y-28954040D01*
X119507618Y-28981580D01*
X119380000Y-28994149D01*
X119252383Y-28981580D01*
X119161597Y-28954040D01*
X119129665Y-28944354D01*
X119016576Y-28883906D01*
X118917447Y-28802554D01*
X118836095Y-28703425D01*
X118775647Y-28590336D01*
X118771282Y-28575946D01*
X118738420Y-28467618D01*
X118729000Y-28371973D01*
X118729000Y-27508028D01*
X118738420Y-27412383D01*
X118775645Y-27289669D01*
X118775646Y-27289665D01*
X118836094Y-27176576D01*
X118917447Y-27077446D01*
X119016575Y-26996094D01*
X119129664Y-26935646D01*
X119161596Y-26925960D01*
X119252382Y-26898420D01*
X119380000Y-26885851D01*
X119507617Y-26898420D01*
G37*
G36*
X100457617Y-26898420D02*
G01*
X100548403Y-26925960D01*
X100580335Y-26935646D01*
X100693424Y-26996094D01*
X100792554Y-27077447D01*
X100873906Y-27176575D01*
X100934354Y-27289664D01*
X100944040Y-27321596D01*
X100971580Y-27412382D01*
X100981000Y-27508027D01*
X100981000Y-28371973D01*
X100971580Y-28467618D01*
X100944040Y-28558404D01*
X100934354Y-28590336D01*
X100873906Y-28703425D01*
X100792554Y-28802554D01*
X100693425Y-28883906D01*
X100580336Y-28944354D01*
X100548404Y-28954040D01*
X100457618Y-28981580D01*
X100330000Y-28994149D01*
X100202383Y-28981580D01*
X100111597Y-28954040D01*
X100079665Y-28944354D01*
X99966576Y-28883906D01*
X99867447Y-28802554D01*
X99786095Y-28703425D01*
X99725647Y-28590336D01*
X99721282Y-28575946D01*
X99688420Y-28467618D01*
X99679000Y-28371973D01*
X99679000Y-27508028D01*
X99688420Y-27412383D01*
X99725645Y-27289669D01*
X99725646Y-27289665D01*
X99786094Y-27176576D01*
X99867447Y-27077446D01*
X99966575Y-26996094D01*
X100079664Y-26935646D01*
X100111596Y-26925960D01*
X100202382Y-26898420D01*
X100330000Y-26885851D01*
X100457617Y-26898420D01*
G37*
G36*
X102997617Y-26898420D02*
G01*
X103088403Y-26925960D01*
X103120335Y-26935646D01*
X103233424Y-26996094D01*
X103332554Y-27077447D01*
X103413906Y-27176575D01*
X103474354Y-27289664D01*
X103484040Y-27321596D01*
X103511580Y-27412382D01*
X103521000Y-27508027D01*
X103521000Y-28371973D01*
X103511580Y-28467618D01*
X103484040Y-28558404D01*
X103474354Y-28590336D01*
X103413906Y-28703425D01*
X103332554Y-28802554D01*
X103233425Y-28883906D01*
X103120336Y-28944354D01*
X103088404Y-28954040D01*
X102997618Y-28981580D01*
X102870000Y-28994149D01*
X102742383Y-28981580D01*
X102651597Y-28954040D01*
X102619665Y-28944354D01*
X102506576Y-28883906D01*
X102407447Y-28802554D01*
X102326095Y-28703425D01*
X102265647Y-28590336D01*
X102261282Y-28575946D01*
X102228420Y-28467618D01*
X102219000Y-28371973D01*
X102219000Y-27508028D01*
X102228420Y-27412383D01*
X102265645Y-27289669D01*
X102265646Y-27289665D01*
X102326094Y-27176576D01*
X102407447Y-27077446D01*
X102506575Y-26996094D01*
X102619664Y-26935646D01*
X102651596Y-26925960D01*
X102742382Y-26898420D01*
X102870000Y-26885851D01*
X102997617Y-26898420D01*
G37*
G36*
X40767617Y-26898420D02*
G01*
X40858403Y-26925960D01*
X40890335Y-26935646D01*
X41003424Y-26996094D01*
X41102554Y-27077447D01*
X41183906Y-27176575D01*
X41244354Y-27289664D01*
X41254040Y-27321596D01*
X41281580Y-27412382D01*
X41291000Y-27508027D01*
X41291000Y-28371973D01*
X41281580Y-28467618D01*
X41254040Y-28558404D01*
X41244354Y-28590336D01*
X41183906Y-28703425D01*
X41102554Y-28802554D01*
X41003425Y-28883906D01*
X40890336Y-28944354D01*
X40858404Y-28954040D01*
X40767618Y-28981580D01*
X40640000Y-28994149D01*
X40512383Y-28981580D01*
X40421597Y-28954040D01*
X40389665Y-28944354D01*
X40276576Y-28883906D01*
X40177447Y-28802554D01*
X40096095Y-28703425D01*
X40035647Y-28590336D01*
X40031282Y-28575946D01*
X39998420Y-28467618D01*
X39989000Y-28371973D01*
X39989000Y-27508028D01*
X39998420Y-27412383D01*
X40035645Y-27289669D01*
X40035646Y-27289665D01*
X40096094Y-27176576D01*
X40177447Y-27077446D01*
X40276575Y-26996094D01*
X40389664Y-26935646D01*
X40421596Y-26925960D01*
X40512382Y-26898420D01*
X40640000Y-26885851D01*
X40767617Y-26898420D01*
G37*
G36*
X108077617Y-26898420D02*
G01*
X108168403Y-26925960D01*
X108200335Y-26935646D01*
X108313424Y-26996094D01*
X108412554Y-27077447D01*
X108493906Y-27176575D01*
X108554354Y-27289664D01*
X108564040Y-27321596D01*
X108591580Y-27412382D01*
X108601000Y-27508027D01*
X108601000Y-28371973D01*
X108591580Y-28467618D01*
X108564040Y-28558404D01*
X108554354Y-28590336D01*
X108493906Y-28703425D01*
X108412554Y-28802554D01*
X108313425Y-28883906D01*
X108200336Y-28944354D01*
X108168404Y-28954040D01*
X108077618Y-28981580D01*
X107950000Y-28994149D01*
X107822383Y-28981580D01*
X107731597Y-28954040D01*
X107699665Y-28944354D01*
X107586576Y-28883906D01*
X107487447Y-28802554D01*
X107406095Y-28703425D01*
X107345647Y-28590336D01*
X107341282Y-28575946D01*
X107308420Y-28467618D01*
X107299000Y-28371973D01*
X107299000Y-27508028D01*
X107308420Y-27412383D01*
X107345645Y-27289669D01*
X107345646Y-27289665D01*
X107406094Y-27176576D01*
X107487447Y-27077446D01*
X107586575Y-26996094D01*
X107699664Y-26935646D01*
X107731596Y-26925960D01*
X107822382Y-26898420D01*
X107950000Y-26885851D01*
X108077617Y-26898420D01*
G37*
G36*
X94107617Y-26898420D02*
G01*
X94198403Y-26925960D01*
X94230335Y-26935646D01*
X94343424Y-26996094D01*
X94442554Y-27077447D01*
X94523906Y-27176575D01*
X94584354Y-27289664D01*
X94594040Y-27321596D01*
X94621580Y-27412382D01*
X94631000Y-27508027D01*
X94631000Y-28371973D01*
X94621580Y-28467618D01*
X94594040Y-28558404D01*
X94584354Y-28590336D01*
X94523906Y-28703425D01*
X94442554Y-28802554D01*
X94343425Y-28883906D01*
X94230336Y-28944354D01*
X94198404Y-28954040D01*
X94107618Y-28981580D01*
X93980000Y-28994149D01*
X93852383Y-28981580D01*
X93761597Y-28954040D01*
X93729665Y-28944354D01*
X93616576Y-28883906D01*
X93517447Y-28802554D01*
X93436095Y-28703425D01*
X93375647Y-28590336D01*
X93371282Y-28575946D01*
X93338420Y-28467618D01*
X93329000Y-28371973D01*
X93329000Y-27508028D01*
X93338420Y-27412383D01*
X93375645Y-27289669D01*
X93375646Y-27289665D01*
X93436094Y-27176576D01*
X93517447Y-27077446D01*
X93616575Y-26996094D01*
X93729664Y-26935646D01*
X93761596Y-26925960D01*
X93852382Y-26898420D01*
X93980000Y-26885851D01*
X94107617Y-26898420D01*
G37*
G36*
X91567617Y-26898420D02*
G01*
X91658403Y-26925960D01*
X91690335Y-26935646D01*
X91803424Y-26996094D01*
X91902554Y-27077447D01*
X91983906Y-27176575D01*
X92044354Y-27289664D01*
X92054040Y-27321596D01*
X92081580Y-27412382D01*
X92091000Y-27508027D01*
X92091000Y-28371973D01*
X92081580Y-28467618D01*
X92054040Y-28558404D01*
X92044354Y-28590336D01*
X91983906Y-28703425D01*
X91902554Y-28802554D01*
X91803425Y-28883906D01*
X91690336Y-28944354D01*
X91658404Y-28954040D01*
X91567618Y-28981580D01*
X91440000Y-28994149D01*
X91312383Y-28981580D01*
X91221597Y-28954040D01*
X91189665Y-28944354D01*
X91076576Y-28883906D01*
X90977447Y-28802554D01*
X90896095Y-28703425D01*
X90835647Y-28590336D01*
X90831282Y-28575946D01*
X90798420Y-28467618D01*
X90789000Y-28371973D01*
X90789000Y-27508028D01*
X90798420Y-27412383D01*
X90835645Y-27289669D01*
X90835646Y-27289665D01*
X90896094Y-27176576D01*
X90977447Y-27077446D01*
X91076575Y-26996094D01*
X91189664Y-26935646D01*
X91221596Y-26925960D01*
X91312382Y-26898420D01*
X91440000Y-26885851D01*
X91567617Y-26898420D01*
G37*
G36*
X89027617Y-26898420D02*
G01*
X89118403Y-26925960D01*
X89150335Y-26935646D01*
X89263424Y-26996094D01*
X89362554Y-27077447D01*
X89443906Y-27176575D01*
X89504354Y-27289664D01*
X89514040Y-27321596D01*
X89541580Y-27412382D01*
X89551000Y-27508027D01*
X89551000Y-28371973D01*
X89541580Y-28467618D01*
X89514040Y-28558404D01*
X89504354Y-28590336D01*
X89443906Y-28703425D01*
X89362554Y-28802554D01*
X89263425Y-28883906D01*
X89150336Y-28944354D01*
X89118404Y-28954040D01*
X89027618Y-28981580D01*
X88900000Y-28994149D01*
X88772383Y-28981580D01*
X88681597Y-28954040D01*
X88649665Y-28944354D01*
X88536576Y-28883906D01*
X88437447Y-28802554D01*
X88356095Y-28703425D01*
X88295647Y-28590336D01*
X88291282Y-28575946D01*
X88258420Y-28467618D01*
X88249000Y-28371973D01*
X88249000Y-27508028D01*
X88258420Y-27412383D01*
X88295645Y-27289669D01*
X88295646Y-27289665D01*
X88356094Y-27176576D01*
X88437447Y-27077446D01*
X88536575Y-26996094D01*
X88649664Y-26935646D01*
X88681596Y-26925960D01*
X88772382Y-26898420D01*
X88900000Y-26885851D01*
X89027617Y-26898420D01*
G37*
G36*
X86487617Y-26898420D02*
G01*
X86578403Y-26925960D01*
X86610335Y-26935646D01*
X86723424Y-26996094D01*
X86822554Y-27077447D01*
X86903906Y-27176575D01*
X86964354Y-27289664D01*
X86974040Y-27321596D01*
X87001580Y-27412382D01*
X87011000Y-27508027D01*
X87011000Y-28371973D01*
X87001580Y-28467618D01*
X86974040Y-28558404D01*
X86964354Y-28590336D01*
X86903906Y-28703425D01*
X86822554Y-28802554D01*
X86723425Y-28883906D01*
X86610336Y-28944354D01*
X86578404Y-28954040D01*
X86487618Y-28981580D01*
X86360000Y-28994149D01*
X86232383Y-28981580D01*
X86141597Y-28954040D01*
X86109665Y-28944354D01*
X85996576Y-28883906D01*
X85897447Y-28802554D01*
X85816095Y-28703425D01*
X85755647Y-28590336D01*
X85751282Y-28575946D01*
X85718420Y-28467618D01*
X85709000Y-28371973D01*
X85709000Y-27508028D01*
X85718420Y-27412383D01*
X85755645Y-27289669D01*
X85755646Y-27289665D01*
X85816094Y-27176576D01*
X85897447Y-27077446D01*
X85996575Y-26996094D01*
X86109664Y-26935646D01*
X86141596Y-26925960D01*
X86232382Y-26898420D01*
X86360000Y-26885851D01*
X86487617Y-26898420D01*
G37*
G36*
X59817617Y-26898420D02*
G01*
X59908403Y-26925960D01*
X59940335Y-26935646D01*
X60053424Y-26996094D01*
X60152554Y-27077447D01*
X60233906Y-27176575D01*
X60294354Y-27289664D01*
X60304040Y-27321596D01*
X60331580Y-27412382D01*
X60341000Y-27508027D01*
X60341000Y-28371973D01*
X60331580Y-28467618D01*
X60304040Y-28558404D01*
X60294354Y-28590336D01*
X60233906Y-28703425D01*
X60152554Y-28802554D01*
X60053425Y-28883906D01*
X59940336Y-28944354D01*
X59908404Y-28954040D01*
X59817618Y-28981580D01*
X59690000Y-28994149D01*
X59562383Y-28981580D01*
X59471597Y-28954040D01*
X59439665Y-28944354D01*
X59326576Y-28883906D01*
X59227447Y-28802554D01*
X59146095Y-28703425D01*
X59085647Y-28590336D01*
X59081282Y-28575946D01*
X59048420Y-28467618D01*
X59039000Y-28371973D01*
X59039000Y-27508028D01*
X59048420Y-27412383D01*
X59085645Y-27289669D01*
X59085646Y-27289665D01*
X59146094Y-27176576D01*
X59227447Y-27077446D01*
X59326575Y-26996094D01*
X59439664Y-26935646D01*
X59471596Y-26925960D01*
X59562382Y-26898420D01*
X59690000Y-26885851D01*
X59817617Y-26898420D01*
G37*
G36*
X57277617Y-26898420D02*
G01*
X57368403Y-26925960D01*
X57400335Y-26935646D01*
X57513424Y-26996094D01*
X57612554Y-27077447D01*
X57693906Y-27176575D01*
X57754354Y-27289664D01*
X57764040Y-27321596D01*
X57791580Y-27412382D01*
X57801000Y-27508027D01*
X57801000Y-28371973D01*
X57791580Y-28467618D01*
X57764040Y-28558404D01*
X57754354Y-28590336D01*
X57693906Y-28703425D01*
X57612554Y-28802554D01*
X57513425Y-28883906D01*
X57400336Y-28944354D01*
X57368404Y-28954040D01*
X57277618Y-28981580D01*
X57150000Y-28994149D01*
X57022383Y-28981580D01*
X56931597Y-28954040D01*
X56899665Y-28944354D01*
X56786576Y-28883906D01*
X56687447Y-28802554D01*
X56606095Y-28703425D01*
X56545647Y-28590336D01*
X56541282Y-28575946D01*
X56508420Y-28467618D01*
X56499000Y-28371973D01*
X56499000Y-27508028D01*
X56508420Y-27412383D01*
X56545645Y-27289669D01*
X56545646Y-27289665D01*
X56606094Y-27176576D01*
X56687447Y-27077446D01*
X56786575Y-26996094D01*
X56899664Y-26935646D01*
X56931596Y-26925960D01*
X57022382Y-26898420D01*
X57150000Y-26885851D01*
X57277617Y-26898420D01*
G37*
G36*
X54737617Y-26898420D02*
G01*
X54828403Y-26925960D01*
X54860335Y-26935646D01*
X54973424Y-26996094D01*
X55072554Y-27077447D01*
X55153906Y-27176575D01*
X55214354Y-27289664D01*
X55224040Y-27321596D01*
X55251580Y-27412382D01*
X55261000Y-27508027D01*
X55261000Y-28371973D01*
X55251580Y-28467618D01*
X55224040Y-28558404D01*
X55214354Y-28590336D01*
X55153906Y-28703425D01*
X55072554Y-28802554D01*
X54973425Y-28883906D01*
X54860336Y-28944354D01*
X54828404Y-28954040D01*
X54737618Y-28981580D01*
X54610000Y-28994149D01*
X54482383Y-28981580D01*
X54391597Y-28954040D01*
X54359665Y-28944354D01*
X54246576Y-28883906D01*
X54147447Y-28802554D01*
X54066095Y-28703425D01*
X54005647Y-28590336D01*
X54001282Y-28575946D01*
X53968420Y-28467618D01*
X53959000Y-28371973D01*
X53959000Y-27508028D01*
X53968420Y-27412383D01*
X54005645Y-27289669D01*
X54005646Y-27289665D01*
X54066094Y-27176576D01*
X54147447Y-27077446D01*
X54246575Y-26996094D01*
X54359664Y-26935646D01*
X54391596Y-26925960D01*
X54482382Y-26898420D01*
X54610000Y-26885851D01*
X54737617Y-26898420D01*
G37*
G36*
X75057617Y-26898420D02*
G01*
X75148403Y-26925960D01*
X75180335Y-26935646D01*
X75293424Y-26996094D01*
X75392554Y-27077447D01*
X75473906Y-27176575D01*
X75534354Y-27289664D01*
X75544040Y-27321596D01*
X75571580Y-27412382D01*
X75581000Y-27508027D01*
X75581000Y-28371973D01*
X75571580Y-28467618D01*
X75544040Y-28558404D01*
X75534354Y-28590336D01*
X75473906Y-28703425D01*
X75392554Y-28802554D01*
X75293425Y-28883906D01*
X75180336Y-28944354D01*
X75148404Y-28954040D01*
X75057618Y-28981580D01*
X74930000Y-28994149D01*
X74802383Y-28981580D01*
X74711597Y-28954040D01*
X74679665Y-28944354D01*
X74566576Y-28883906D01*
X74467447Y-28802554D01*
X74386095Y-28703425D01*
X74325647Y-28590336D01*
X74321282Y-28575946D01*
X74288420Y-28467618D01*
X74279000Y-28371973D01*
X74279000Y-27508028D01*
X74288420Y-27412383D01*
X74325645Y-27289669D01*
X74325646Y-27289665D01*
X74386094Y-27176576D01*
X74467447Y-27077446D01*
X74566575Y-26996094D01*
X74679664Y-26935646D01*
X74711596Y-26925960D01*
X74802382Y-26898420D01*
X74930000Y-26885851D01*
X75057617Y-26898420D01*
G37*
G36*
X80137617Y-26898420D02*
G01*
X80228403Y-26925960D01*
X80260335Y-26935646D01*
X80373424Y-26996094D01*
X80472554Y-27077447D01*
X80553906Y-27176575D01*
X80614354Y-27289664D01*
X80624040Y-27321596D01*
X80651580Y-27412382D01*
X80661000Y-27508027D01*
X80661000Y-28371973D01*
X80651580Y-28467618D01*
X80624040Y-28558404D01*
X80614354Y-28590336D01*
X80553906Y-28703425D01*
X80472554Y-28802554D01*
X80373425Y-28883906D01*
X80260336Y-28944354D01*
X80228404Y-28954040D01*
X80137618Y-28981580D01*
X80010000Y-28994149D01*
X79882383Y-28981580D01*
X79791597Y-28954040D01*
X79759665Y-28944354D01*
X79646576Y-28883906D01*
X79547447Y-28802554D01*
X79466095Y-28703425D01*
X79405647Y-28590336D01*
X79401282Y-28575946D01*
X79368420Y-28467618D01*
X79359000Y-28371973D01*
X79359000Y-27508028D01*
X79368420Y-27412383D01*
X79405645Y-27289669D01*
X79405646Y-27289665D01*
X79466094Y-27176576D01*
X79547447Y-27077446D01*
X79646575Y-26996094D01*
X79759664Y-26935646D01*
X79791596Y-26925960D01*
X79882382Y-26898420D01*
X80010000Y-26885851D01*
X80137617Y-26898420D01*
G37*
G36*
X77597617Y-26898420D02*
G01*
X77688403Y-26925960D01*
X77720335Y-26935646D01*
X77833424Y-26996094D01*
X77932554Y-27077447D01*
X78013906Y-27176575D01*
X78074354Y-27289664D01*
X78084040Y-27321596D01*
X78111580Y-27412382D01*
X78121000Y-27508027D01*
X78121000Y-28371973D01*
X78111580Y-28467618D01*
X78084040Y-28558404D01*
X78074354Y-28590336D01*
X78013906Y-28703425D01*
X77932554Y-28802554D01*
X77833425Y-28883906D01*
X77720336Y-28944354D01*
X77688404Y-28954040D01*
X77597618Y-28981580D01*
X77470000Y-28994149D01*
X77342383Y-28981580D01*
X77251597Y-28954040D01*
X77219665Y-28944354D01*
X77106576Y-28883906D01*
X77007447Y-28802554D01*
X76926095Y-28703425D01*
X76865647Y-28590336D01*
X76861282Y-28575946D01*
X76828420Y-28467618D01*
X76819000Y-28371973D01*
X76819000Y-27508028D01*
X76828420Y-27412383D01*
X76865645Y-27289669D01*
X76865646Y-27289665D01*
X76926094Y-27176576D01*
X77007447Y-27077446D01*
X77106575Y-26996094D01*
X77219664Y-26935646D01*
X77251596Y-26925960D01*
X77342382Y-26898420D01*
X77470000Y-26885851D01*
X77597617Y-26898420D01*
G37*
G36*
X105537617Y-26898420D02*
G01*
X105628403Y-26925960D01*
X105660335Y-26935646D01*
X105773424Y-26996094D01*
X105872554Y-27077447D01*
X105953906Y-27176575D01*
X106014354Y-27289664D01*
X106024040Y-27321596D01*
X106051580Y-27412382D01*
X106061000Y-27508027D01*
X106061000Y-28371973D01*
X106051580Y-28467618D01*
X106024040Y-28558404D01*
X106014354Y-28590336D01*
X105953906Y-28703425D01*
X105872554Y-28802554D01*
X105773425Y-28883906D01*
X105660336Y-28944354D01*
X105628404Y-28954040D01*
X105537618Y-28981580D01*
X105410000Y-28994149D01*
X105282383Y-28981580D01*
X105191597Y-28954040D01*
X105159665Y-28944354D01*
X105046576Y-28883906D01*
X104947447Y-28802554D01*
X104866095Y-28703425D01*
X104805647Y-28590336D01*
X104801282Y-28575946D01*
X104768420Y-28467618D01*
X104759000Y-28371973D01*
X104759000Y-27508028D01*
X104768420Y-27412383D01*
X104805645Y-27289669D01*
X104805646Y-27289665D01*
X104866094Y-27176576D01*
X104947447Y-27077446D01*
X105046575Y-26996094D01*
X105159664Y-26935646D01*
X105191596Y-26925960D01*
X105282382Y-26898420D01*
X105410000Y-26885851D01*
X105537617Y-26898420D01*
G37*
G36*
X17907617Y-26898420D02*
G01*
X17998403Y-26925960D01*
X18030335Y-26935646D01*
X18143424Y-26996094D01*
X18242554Y-27077447D01*
X18323906Y-27176575D01*
X18384354Y-27289664D01*
X18394040Y-27321596D01*
X18421580Y-27412382D01*
X18431000Y-27508027D01*
X18431000Y-28371973D01*
X18421580Y-28467618D01*
X18394040Y-28558404D01*
X18384354Y-28590336D01*
X18323906Y-28703425D01*
X18242554Y-28802554D01*
X18143425Y-28883906D01*
X18030336Y-28944354D01*
X17998404Y-28954040D01*
X17907618Y-28981580D01*
X17780000Y-28994149D01*
X17652383Y-28981580D01*
X17561597Y-28954040D01*
X17529665Y-28944354D01*
X17416576Y-28883906D01*
X17317447Y-28802554D01*
X17236095Y-28703425D01*
X17175647Y-28590336D01*
X17171282Y-28575946D01*
X17138420Y-28467618D01*
X17129000Y-28371973D01*
X17129000Y-27508028D01*
X17138420Y-27412383D01*
X17175645Y-27289669D01*
X17175646Y-27289665D01*
X17236094Y-27176576D01*
X17317447Y-27077446D01*
X17416575Y-26996094D01*
X17529664Y-26935646D01*
X17561596Y-26925960D01*
X17652382Y-26898420D01*
X17780000Y-26885851D01*
X17907617Y-26898420D01*
G37*
G36*
X38227617Y-26898420D02*
G01*
X38318403Y-26925960D01*
X38350335Y-26935646D01*
X38463424Y-26996094D01*
X38562554Y-27077447D01*
X38643906Y-27176575D01*
X38704354Y-27289664D01*
X38714040Y-27321596D01*
X38741580Y-27412382D01*
X38751000Y-27508027D01*
X38751000Y-28371973D01*
X38741580Y-28467618D01*
X38714040Y-28558404D01*
X38704354Y-28590336D01*
X38643906Y-28703425D01*
X38562554Y-28802554D01*
X38463425Y-28883906D01*
X38350336Y-28944354D01*
X38318404Y-28954040D01*
X38227618Y-28981580D01*
X38100000Y-28994149D01*
X37972383Y-28981580D01*
X37881597Y-28954040D01*
X37849665Y-28944354D01*
X37736576Y-28883906D01*
X37637447Y-28802554D01*
X37556095Y-28703425D01*
X37495647Y-28590336D01*
X37491282Y-28575946D01*
X37458420Y-28467618D01*
X37449000Y-28371973D01*
X37449000Y-27508028D01*
X37458420Y-27412383D01*
X37495645Y-27289669D01*
X37495646Y-27289665D01*
X37556094Y-27176576D01*
X37637447Y-27077446D01*
X37736575Y-26996094D01*
X37849664Y-26935646D01*
X37881596Y-26925960D01*
X37972382Y-26898420D01*
X38100000Y-26885851D01*
X38227617Y-26898420D01*
G37*
G36*
X43307617Y-26898420D02*
G01*
X43398403Y-26925960D01*
X43430335Y-26935646D01*
X43543424Y-26996094D01*
X43642554Y-27077447D01*
X43723906Y-27176575D01*
X43784354Y-27289664D01*
X43794040Y-27321596D01*
X43821580Y-27412382D01*
X43831000Y-27508027D01*
X43831000Y-28371973D01*
X43821580Y-28467618D01*
X43794040Y-28558404D01*
X43784354Y-28590336D01*
X43723906Y-28703425D01*
X43642554Y-28802554D01*
X43543425Y-28883906D01*
X43430336Y-28944354D01*
X43398404Y-28954040D01*
X43307618Y-28981580D01*
X43180000Y-28994149D01*
X43052383Y-28981580D01*
X42961597Y-28954040D01*
X42929665Y-28944354D01*
X42816576Y-28883906D01*
X42717447Y-28802554D01*
X42636095Y-28703425D01*
X42575647Y-28590336D01*
X42571282Y-28575946D01*
X42538420Y-28467618D01*
X42529000Y-28371973D01*
X42529000Y-27508028D01*
X42538420Y-27412383D01*
X42575645Y-27289669D01*
X42575646Y-27289665D01*
X42636094Y-27176576D01*
X42717447Y-27077446D01*
X42816575Y-26996094D01*
X42929664Y-26935646D01*
X42961596Y-26925960D01*
X43052382Y-26898420D01*
X43180000Y-26885851D01*
X43307617Y-26898420D01*
G37*
G36*
X45847617Y-26898420D02*
G01*
X45938403Y-26925960D01*
X45970335Y-26935646D01*
X46083424Y-26996094D01*
X46182554Y-27077447D01*
X46263906Y-27176575D01*
X46324354Y-27289664D01*
X46334040Y-27321596D01*
X46361580Y-27412382D01*
X46371000Y-27508027D01*
X46371000Y-28371973D01*
X46361580Y-28467618D01*
X46334040Y-28558404D01*
X46324354Y-28590336D01*
X46263906Y-28703425D01*
X46182554Y-28802554D01*
X46083425Y-28883906D01*
X45970336Y-28944354D01*
X45938404Y-28954040D01*
X45847618Y-28981580D01*
X45720000Y-28994149D01*
X45592383Y-28981580D01*
X45501597Y-28954040D01*
X45469665Y-28944354D01*
X45356576Y-28883906D01*
X45257447Y-28802554D01*
X45176095Y-28703425D01*
X45115647Y-28590336D01*
X45111282Y-28575946D01*
X45078420Y-28467618D01*
X45069000Y-28371973D01*
X45069000Y-27508028D01*
X45078420Y-27412383D01*
X45115645Y-27289669D01*
X45115646Y-27289665D01*
X45176094Y-27176576D01*
X45257447Y-27077446D01*
X45356575Y-26996094D01*
X45469664Y-26935646D01*
X45501596Y-26925960D01*
X45592382Y-26898420D01*
X45720000Y-26885851D01*
X45847617Y-26898420D01*
G37*
G36*
X24257617Y-26898420D02*
G01*
X24348403Y-26925960D01*
X24380335Y-26935646D01*
X24493424Y-26996094D01*
X24592554Y-27077447D01*
X24673906Y-27176575D01*
X24734354Y-27289664D01*
X24744040Y-27321596D01*
X24771580Y-27412382D01*
X24781000Y-27508027D01*
X24781000Y-28371973D01*
X24771580Y-28467618D01*
X24744040Y-28558404D01*
X24734354Y-28590336D01*
X24673906Y-28703425D01*
X24592554Y-28802554D01*
X24493425Y-28883906D01*
X24380336Y-28944354D01*
X24348404Y-28954040D01*
X24257618Y-28981580D01*
X24130000Y-28994149D01*
X24002383Y-28981580D01*
X23911597Y-28954040D01*
X23879665Y-28944354D01*
X23766576Y-28883906D01*
X23667447Y-28802554D01*
X23586095Y-28703425D01*
X23525647Y-28590336D01*
X23521282Y-28575946D01*
X23488420Y-28467618D01*
X23479000Y-28371973D01*
X23479000Y-27508028D01*
X23488420Y-27412383D01*
X23525645Y-27289669D01*
X23525646Y-27289665D01*
X23586094Y-27176576D01*
X23667447Y-27077446D01*
X23766575Y-26996094D01*
X23879664Y-26935646D01*
X23911596Y-26925960D01*
X24002382Y-26898420D01*
X24130000Y-26885851D01*
X24257617Y-26898420D01*
G37*
G36*
X26797617Y-26898420D02*
G01*
X26888403Y-26925960D01*
X26920335Y-26935646D01*
X27033424Y-26996094D01*
X27132554Y-27077447D01*
X27213906Y-27176575D01*
X27274354Y-27289664D01*
X27284040Y-27321596D01*
X27311580Y-27412382D01*
X27321000Y-27508027D01*
X27321000Y-28371973D01*
X27311580Y-28467618D01*
X27284040Y-28558404D01*
X27274354Y-28590336D01*
X27213906Y-28703425D01*
X27132554Y-28802554D01*
X27033425Y-28883906D01*
X26920336Y-28944354D01*
X26888404Y-28954040D01*
X26797618Y-28981580D01*
X26670000Y-28994149D01*
X26542383Y-28981580D01*
X26451597Y-28954040D01*
X26419665Y-28944354D01*
X26306576Y-28883906D01*
X26207447Y-28802554D01*
X26126095Y-28703425D01*
X26065647Y-28590336D01*
X26061282Y-28575946D01*
X26028420Y-28467618D01*
X26019000Y-28371973D01*
X26019000Y-27508028D01*
X26028420Y-27412383D01*
X26065645Y-27289669D01*
X26065646Y-27289665D01*
X26126094Y-27176576D01*
X26207447Y-27077446D01*
X26306575Y-26996094D01*
X26419664Y-26935646D01*
X26451596Y-26925960D01*
X26542382Y-26898420D01*
X26670000Y-26885851D01*
X26797617Y-26898420D01*
G37*
G36*
X29337617Y-26898420D02*
G01*
X29428403Y-26925960D01*
X29460335Y-26935646D01*
X29573424Y-26996094D01*
X29672554Y-27077447D01*
X29753906Y-27176575D01*
X29814354Y-27289664D01*
X29824040Y-27321596D01*
X29851580Y-27412382D01*
X29861000Y-27508027D01*
X29861000Y-28371973D01*
X29851580Y-28467618D01*
X29824040Y-28558404D01*
X29814354Y-28590336D01*
X29753906Y-28703425D01*
X29672554Y-28802554D01*
X29573425Y-28883906D01*
X29460336Y-28944354D01*
X29428404Y-28954040D01*
X29337618Y-28981580D01*
X29210000Y-28994149D01*
X29082383Y-28981580D01*
X28991597Y-28954040D01*
X28959665Y-28944354D01*
X28846576Y-28883906D01*
X28747447Y-28802554D01*
X28666095Y-28703425D01*
X28605647Y-28590336D01*
X28601282Y-28575946D01*
X28568420Y-28467618D01*
X28559000Y-28371973D01*
X28559000Y-27508028D01*
X28568420Y-27412383D01*
X28605645Y-27289669D01*
X28605646Y-27289665D01*
X28666094Y-27176576D01*
X28747447Y-27077446D01*
X28846575Y-26996094D01*
X28959664Y-26935646D01*
X28991596Y-26925960D01*
X29082382Y-26898420D01*
X29210000Y-26885851D01*
X29337617Y-26898420D01*
G37*
G36*
X31877617Y-26898420D02*
G01*
X31968403Y-26925960D01*
X32000335Y-26935646D01*
X32113424Y-26996094D01*
X32212554Y-27077447D01*
X32293906Y-27176575D01*
X32354354Y-27289664D01*
X32364040Y-27321596D01*
X32391580Y-27412382D01*
X32401000Y-27508027D01*
X32401000Y-28371973D01*
X32391580Y-28467618D01*
X32364040Y-28558404D01*
X32354354Y-28590336D01*
X32293906Y-28703425D01*
X32212554Y-28802554D01*
X32113425Y-28883906D01*
X32000336Y-28944354D01*
X31968404Y-28954040D01*
X31877618Y-28981580D01*
X31750000Y-28994149D01*
X31622383Y-28981580D01*
X31531597Y-28954040D01*
X31499665Y-28944354D01*
X31386576Y-28883906D01*
X31287447Y-28802554D01*
X31206095Y-28703425D01*
X31145647Y-28590336D01*
X31141282Y-28575946D01*
X31108420Y-28467618D01*
X31099000Y-28371973D01*
X31099000Y-27508028D01*
X31108420Y-27412383D01*
X31145645Y-27289669D01*
X31145646Y-27289665D01*
X31206094Y-27176576D01*
X31287447Y-27077446D01*
X31386575Y-26996094D01*
X31499664Y-26935646D01*
X31531596Y-26925960D01*
X31622382Y-26898420D01*
X31750000Y-26885851D01*
X31877617Y-26898420D01*
G37*
G36*
X52197617Y-26898420D02*
G01*
X52288403Y-26925960D01*
X52320335Y-26935646D01*
X52433424Y-26996094D01*
X52532554Y-27077447D01*
X52613906Y-27176575D01*
X52674354Y-27289664D01*
X52684040Y-27321596D01*
X52711580Y-27412382D01*
X52721000Y-27508027D01*
X52721000Y-28371973D01*
X52711580Y-28467618D01*
X52684040Y-28558404D01*
X52674354Y-28590336D01*
X52613906Y-28703425D01*
X52532554Y-28802554D01*
X52433425Y-28883906D01*
X52320336Y-28944354D01*
X52288404Y-28954040D01*
X52197618Y-28981580D01*
X52070000Y-28994149D01*
X51942383Y-28981580D01*
X51851597Y-28954040D01*
X51819665Y-28944354D01*
X51706576Y-28883906D01*
X51607447Y-28802554D01*
X51526095Y-28703425D01*
X51465647Y-28590336D01*
X51461282Y-28575946D01*
X51428420Y-28467618D01*
X51419000Y-28371973D01*
X51419000Y-27508028D01*
X51428420Y-27412383D01*
X51465645Y-27289669D01*
X51465646Y-27289665D01*
X51526094Y-27176576D01*
X51607447Y-27077446D01*
X51706575Y-26996094D01*
X51819664Y-26935646D01*
X51851596Y-26925960D01*
X51942382Y-26898420D01*
X52070000Y-26885851D01*
X52197617Y-26898420D01*
G37*
G36*
X15367617Y-26898420D02*
G01*
X15458403Y-26925960D01*
X15490335Y-26935646D01*
X15603424Y-26996094D01*
X15702554Y-27077447D01*
X15783906Y-27176575D01*
X15844354Y-27289664D01*
X15854040Y-27321596D01*
X15881580Y-27412382D01*
X15891000Y-27508027D01*
X15891000Y-28371973D01*
X15881580Y-28467618D01*
X15854040Y-28558404D01*
X15844354Y-28590336D01*
X15783906Y-28703425D01*
X15702554Y-28802554D01*
X15603425Y-28883906D01*
X15490336Y-28944354D01*
X15458404Y-28954040D01*
X15367618Y-28981580D01*
X15240000Y-28994149D01*
X15112383Y-28981580D01*
X15021597Y-28954040D01*
X14989665Y-28944354D01*
X14876576Y-28883906D01*
X14777447Y-28802554D01*
X14696095Y-28703425D01*
X14635647Y-28590336D01*
X14631282Y-28575946D01*
X14598420Y-28467618D01*
X14589000Y-28371973D01*
X14589000Y-27508028D01*
X14598420Y-27412383D01*
X14635645Y-27289669D01*
X14635646Y-27289665D01*
X14696094Y-27176576D01*
X14777447Y-27077446D01*
X14876575Y-26996094D01*
X14989664Y-26935646D01*
X15021596Y-26925960D01*
X15112382Y-26898420D01*
X15240000Y-26885851D01*
X15367617Y-26898420D01*
G37*
G36*
X12827617Y-26898420D02*
G01*
X12918403Y-26925960D01*
X12950335Y-26935646D01*
X13063424Y-26996094D01*
X13162554Y-27077447D01*
X13243906Y-27176575D01*
X13304354Y-27289664D01*
X13314040Y-27321596D01*
X13341580Y-27412382D01*
X13351000Y-27508027D01*
X13351000Y-28371973D01*
X13341580Y-28467618D01*
X13314040Y-28558404D01*
X13304354Y-28590336D01*
X13243906Y-28703425D01*
X13162554Y-28802554D01*
X13063425Y-28883906D01*
X12950336Y-28944354D01*
X12918404Y-28954040D01*
X12827618Y-28981580D01*
X12700000Y-28994149D01*
X12572383Y-28981580D01*
X12481597Y-28954040D01*
X12449665Y-28944354D01*
X12336576Y-28883906D01*
X12237447Y-28802554D01*
X12156095Y-28703425D01*
X12095647Y-28590336D01*
X12091282Y-28575946D01*
X12058420Y-28467618D01*
X12049000Y-28371973D01*
X12049000Y-27508028D01*
X12058420Y-27412383D01*
X12095645Y-27289669D01*
X12095646Y-27289665D01*
X12156094Y-27176576D01*
X12237447Y-27077446D01*
X12336575Y-26996094D01*
X12449664Y-26935646D01*
X12481596Y-26925960D01*
X12572382Y-26898420D01*
X12700000Y-26885851D01*
X12827617Y-26898420D01*
G37*
G36*
X10287617Y-26898420D02*
G01*
X10378403Y-26925960D01*
X10410335Y-26935646D01*
X10523424Y-26996094D01*
X10622554Y-27077447D01*
X10703906Y-27176575D01*
X10764354Y-27289664D01*
X10774040Y-27321596D01*
X10801580Y-27412382D01*
X10811000Y-27508027D01*
X10811000Y-28371973D01*
X10801580Y-28467618D01*
X10774040Y-28558404D01*
X10764354Y-28590336D01*
X10703906Y-28703425D01*
X10622554Y-28802554D01*
X10523425Y-28883906D01*
X10410336Y-28944354D01*
X10378404Y-28954040D01*
X10287618Y-28981580D01*
X10160000Y-28994149D01*
X10032383Y-28981580D01*
X9941597Y-28954040D01*
X9909665Y-28944354D01*
X9796576Y-28883906D01*
X9697447Y-28802554D01*
X9616095Y-28703425D01*
X9555647Y-28590336D01*
X9551282Y-28575946D01*
X9518420Y-28467618D01*
X9509000Y-28371973D01*
X9509000Y-27508028D01*
X9518420Y-27412383D01*
X9555645Y-27289669D01*
X9555646Y-27289665D01*
X9616094Y-27176576D01*
X9697447Y-27077446D01*
X9796575Y-26996094D01*
X9909664Y-26935646D01*
X9941596Y-26925960D01*
X10032382Y-26898420D01*
X10160000Y-26885851D01*
X10287617Y-26898420D01*
G37*
G36*
X72517617Y-26898420D02*
G01*
X72608403Y-26925960D01*
X72640335Y-26935646D01*
X72753424Y-26996094D01*
X72852554Y-27077447D01*
X72933906Y-27176575D01*
X72994354Y-27289664D01*
X73004040Y-27321596D01*
X73031580Y-27412382D01*
X73041000Y-27508027D01*
X73041000Y-28371973D01*
X73031580Y-28467618D01*
X73004040Y-28558404D01*
X72994354Y-28590336D01*
X72933906Y-28703425D01*
X72852554Y-28802554D01*
X72753425Y-28883906D01*
X72640336Y-28944354D01*
X72608404Y-28954040D01*
X72517618Y-28981580D01*
X72390000Y-28994149D01*
X72262383Y-28981580D01*
X72171597Y-28954040D01*
X72139665Y-28944354D01*
X72026576Y-28883906D01*
X71927447Y-28802554D01*
X71846095Y-28703425D01*
X71785647Y-28590336D01*
X71781282Y-28575946D01*
X71748420Y-28467618D01*
X71739000Y-28371973D01*
X71739000Y-27508028D01*
X71748420Y-27412383D01*
X71785645Y-27289669D01*
X71785646Y-27289665D01*
X71846094Y-27176576D01*
X71927447Y-27077446D01*
X72026575Y-26996094D01*
X72139664Y-26935646D01*
X72171596Y-26925960D01*
X72262382Y-26898420D01*
X72390000Y-26885851D01*
X72517617Y-26898420D01*
G37*
G36*
X122047617Y-26898420D02*
G01*
X122138403Y-26925960D01*
X122170335Y-26935646D01*
X122283424Y-26996094D01*
X122382554Y-27077447D01*
X122463906Y-27176575D01*
X122524354Y-27289664D01*
X122534040Y-27321596D01*
X122561580Y-27412382D01*
X122571000Y-27508027D01*
X122571000Y-28371973D01*
X122561580Y-28467618D01*
X122534040Y-28558404D01*
X122524354Y-28590336D01*
X122463906Y-28703425D01*
X122382554Y-28802554D01*
X122283425Y-28883906D01*
X122170336Y-28944354D01*
X122138404Y-28954040D01*
X122047618Y-28981580D01*
X121920000Y-28994149D01*
X121792383Y-28981580D01*
X121701597Y-28954040D01*
X121669665Y-28944354D01*
X121556576Y-28883906D01*
X121457447Y-28802554D01*
X121376095Y-28703425D01*
X121315647Y-28590336D01*
X121311282Y-28575946D01*
X121278420Y-28467618D01*
X121269000Y-28371973D01*
X121269000Y-27508028D01*
X121278420Y-27412383D01*
X121315645Y-27289669D01*
X121315646Y-27289665D01*
X121376094Y-27176576D01*
X121457447Y-27077446D01*
X121556575Y-26996094D01*
X121669664Y-26935646D01*
X121701596Y-26925960D01*
X121792382Y-26898420D01*
X121920000Y-26885851D01*
X122047617Y-26898420D01*
G37*
G36*
X116967617Y-26898420D02*
G01*
X117058403Y-26925960D01*
X117090335Y-26935646D01*
X117203424Y-26996094D01*
X117302554Y-27077447D01*
X117383906Y-27176575D01*
X117444354Y-27289664D01*
X117454040Y-27321596D01*
X117481580Y-27412382D01*
X117491000Y-27508027D01*
X117491000Y-28371973D01*
X117481580Y-28467618D01*
X117454040Y-28558404D01*
X117444354Y-28590336D01*
X117383906Y-28703425D01*
X117302554Y-28802554D01*
X117203425Y-28883906D01*
X117090336Y-28944354D01*
X117058404Y-28954040D01*
X116967618Y-28981580D01*
X116840000Y-28994149D01*
X116712383Y-28981580D01*
X116621597Y-28954040D01*
X116589665Y-28944354D01*
X116476576Y-28883906D01*
X116377447Y-28802554D01*
X116296095Y-28703425D01*
X116235647Y-28590336D01*
X116231282Y-28575946D01*
X116198420Y-28467618D01*
X116189000Y-28371973D01*
X116189000Y-27508028D01*
X116198420Y-27412383D01*
X116235645Y-27289669D01*
X116235646Y-27289665D01*
X116296094Y-27176576D01*
X116377447Y-27077446D01*
X116476575Y-26996094D01*
X116589664Y-26935646D01*
X116621596Y-26925960D01*
X116712382Y-26898420D01*
X116840000Y-26885851D01*
X116967617Y-26898420D01*
G37*
G36*
X84471000Y-28991000D02*
G01*
X83169000Y-28991000D01*
X83169000Y-26889000D01*
X84471000Y-26889000D01*
X84471000Y-28991000D01*
G37*
G36*
X98441000Y-28991000D02*
G01*
X97139000Y-28991000D01*
X97139000Y-26889000D01*
X98441000Y-26889000D01*
X98441000Y-28991000D01*
G37*
G36*
X112411000Y-28991000D02*
G01*
X111109000Y-28991000D01*
X111109000Y-26889000D01*
X112411000Y-26889000D01*
X112411000Y-28991000D01*
G37*
G36*
X22241000Y-28991000D02*
G01*
X20939000Y-28991000D01*
X20939000Y-26889000D01*
X22241000Y-26889000D01*
X22241000Y-28991000D01*
G37*
G36*
X36211000Y-28991000D02*
G01*
X34909000Y-28991000D01*
X34909000Y-26889000D01*
X36211000Y-26889000D01*
X36211000Y-28991000D01*
G37*
G36*
X8271000Y-28991000D02*
G01*
X6969000Y-28991000D01*
X6969000Y-26889000D01*
X8271000Y-26889000D01*
X8271000Y-28991000D01*
G37*
G36*
X70501000Y-28991000D02*
G01*
X69199000Y-28991000D01*
X69199000Y-26889000D01*
X70501000Y-26889000D01*
X70501000Y-28991000D01*
G37*
G36*
X50181000Y-28991000D02*
G01*
X48879000Y-28991000D01*
X48879000Y-26889000D01*
X50181000Y-26889000D01*
X50181000Y-28991000D01*
G37*
G36*
X29337617Y-6578420D02*
G01*
X29428403Y-6605960D01*
X29460335Y-6615646D01*
X29573424Y-6676094D01*
X29672554Y-6757447D01*
X29753906Y-6856575D01*
X29814354Y-6969664D01*
X29824040Y-7001596D01*
X29851580Y-7092382D01*
X29861000Y-7188027D01*
X29861000Y-8051973D01*
X29851580Y-8147618D01*
X29824040Y-8238404D01*
X29814354Y-8270336D01*
X29753906Y-8383425D01*
X29672554Y-8482554D01*
X29573425Y-8563906D01*
X29460336Y-8624354D01*
X29428404Y-8634040D01*
X29337618Y-8661580D01*
X29210000Y-8674149D01*
X29082383Y-8661580D01*
X28991597Y-8634040D01*
X28959665Y-8624354D01*
X28846576Y-8563906D01*
X28747447Y-8482554D01*
X28666095Y-8383425D01*
X28605647Y-8270336D01*
X28601282Y-8255946D01*
X28568420Y-8147618D01*
X28559000Y-8051973D01*
X28559000Y-7188028D01*
X28568420Y-7092383D01*
X28605645Y-6969669D01*
X28605646Y-6969665D01*
X28666094Y-6856576D01*
X28747447Y-6757446D01*
X28846575Y-6676094D01*
X28959664Y-6615646D01*
X28991596Y-6605960D01*
X29082382Y-6578420D01*
X29210000Y-6565851D01*
X29337617Y-6578420D01*
G37*
G36*
X15367617Y-6578420D02*
G01*
X15458403Y-6605960D01*
X15490335Y-6615646D01*
X15603424Y-6676094D01*
X15702554Y-6757447D01*
X15783906Y-6856575D01*
X15844354Y-6969664D01*
X15854040Y-7001596D01*
X15881580Y-7092382D01*
X15891000Y-7188027D01*
X15891000Y-8051973D01*
X15881580Y-8147618D01*
X15854040Y-8238404D01*
X15844354Y-8270336D01*
X15783906Y-8383425D01*
X15702554Y-8482554D01*
X15603425Y-8563906D01*
X15490336Y-8624354D01*
X15458404Y-8634040D01*
X15367618Y-8661580D01*
X15240000Y-8674149D01*
X15112383Y-8661580D01*
X15021597Y-8634040D01*
X14989665Y-8624354D01*
X14876576Y-8563906D01*
X14777447Y-8482554D01*
X14696095Y-8383425D01*
X14635647Y-8270336D01*
X14631282Y-8255946D01*
X14598420Y-8147618D01*
X14589000Y-8051973D01*
X14589000Y-7188028D01*
X14598420Y-7092383D01*
X14635645Y-6969669D01*
X14635646Y-6969665D01*
X14696094Y-6856576D01*
X14777447Y-6757446D01*
X14876575Y-6676094D01*
X14989664Y-6615646D01*
X15021596Y-6605960D01*
X15112382Y-6578420D01*
X15240000Y-6565851D01*
X15367617Y-6578420D01*
G37*
G36*
X83947617Y-6578420D02*
G01*
X84038403Y-6605960D01*
X84070335Y-6615646D01*
X84183424Y-6676094D01*
X84282554Y-6757447D01*
X84363906Y-6856575D01*
X84424354Y-6969664D01*
X84434040Y-7001596D01*
X84461580Y-7092382D01*
X84471000Y-7188027D01*
X84471000Y-8051973D01*
X84461580Y-8147618D01*
X84434040Y-8238404D01*
X84424354Y-8270336D01*
X84363906Y-8383425D01*
X84282554Y-8482554D01*
X84183425Y-8563906D01*
X84070336Y-8624354D01*
X84038404Y-8634040D01*
X83947618Y-8661580D01*
X83820000Y-8674149D01*
X83692383Y-8661580D01*
X83601597Y-8634040D01*
X83569665Y-8624354D01*
X83456576Y-8563906D01*
X83357447Y-8482554D01*
X83276095Y-8383425D01*
X83215647Y-8270336D01*
X83211282Y-8255946D01*
X83178420Y-8147618D01*
X83169000Y-8051973D01*
X83169000Y-7188028D01*
X83178420Y-7092383D01*
X83215645Y-6969669D01*
X83215646Y-6969665D01*
X83276094Y-6856576D01*
X83357447Y-6757446D01*
X83456575Y-6676094D01*
X83569664Y-6615646D01*
X83601596Y-6605960D01*
X83692382Y-6578420D01*
X83820000Y-6565851D01*
X83947617Y-6578420D01*
G37*
G36*
X21717617Y-6578420D02*
G01*
X21808403Y-6605960D01*
X21840335Y-6615646D01*
X21953424Y-6676094D01*
X22052554Y-6757447D01*
X22133906Y-6856575D01*
X22194354Y-6969664D01*
X22204040Y-7001596D01*
X22231580Y-7092382D01*
X22241000Y-7188027D01*
X22241000Y-8051973D01*
X22231580Y-8147618D01*
X22204040Y-8238404D01*
X22194354Y-8270336D01*
X22133906Y-8383425D01*
X22052554Y-8482554D01*
X21953425Y-8563906D01*
X21840336Y-8624354D01*
X21808404Y-8634040D01*
X21717618Y-8661580D01*
X21590000Y-8674149D01*
X21462383Y-8661580D01*
X21371597Y-8634040D01*
X21339665Y-8624354D01*
X21226576Y-8563906D01*
X21127447Y-8482554D01*
X21046095Y-8383425D01*
X20985647Y-8270336D01*
X20981282Y-8255946D01*
X20948420Y-8147618D01*
X20939000Y-8051973D01*
X20939000Y-7188028D01*
X20948420Y-7092383D01*
X20985645Y-6969669D01*
X20985646Y-6969665D01*
X21046094Y-6856576D01*
X21127447Y-6757446D01*
X21226575Y-6676094D01*
X21339664Y-6615646D01*
X21371596Y-6605960D01*
X21462382Y-6578420D01*
X21590000Y-6565851D01*
X21717617Y-6578420D01*
G37*
G36*
X80137617Y-6578420D02*
G01*
X80228403Y-6605960D01*
X80260335Y-6615646D01*
X80373424Y-6676094D01*
X80472554Y-6757447D01*
X80553906Y-6856575D01*
X80614354Y-6969664D01*
X80624040Y-7001596D01*
X80651580Y-7092382D01*
X80661000Y-7188027D01*
X80661000Y-8051973D01*
X80651580Y-8147618D01*
X80624040Y-8238404D01*
X80614354Y-8270336D01*
X80553906Y-8383425D01*
X80472554Y-8482554D01*
X80373425Y-8563906D01*
X80260336Y-8624354D01*
X80228404Y-8634040D01*
X80137618Y-8661580D01*
X80010000Y-8674149D01*
X79882383Y-8661580D01*
X79791597Y-8634040D01*
X79759665Y-8624354D01*
X79646576Y-8563906D01*
X79547447Y-8482554D01*
X79466095Y-8383425D01*
X79405647Y-8270336D01*
X79401282Y-8255946D01*
X79368420Y-8147618D01*
X79359000Y-8051973D01*
X79359000Y-7188028D01*
X79368420Y-7092383D01*
X79405645Y-6969669D01*
X79405646Y-6969665D01*
X79466094Y-6856576D01*
X79547447Y-6757446D01*
X79646575Y-6676094D01*
X79759664Y-6615646D01*
X79791596Y-6605960D01*
X79882382Y-6578420D01*
X80010000Y-6565851D01*
X80137617Y-6578420D01*
G37*
G36*
X77597617Y-6578420D02*
G01*
X77688403Y-6605960D01*
X77720335Y-6615646D01*
X77833424Y-6676094D01*
X77932554Y-6757447D01*
X78013906Y-6856575D01*
X78074354Y-6969664D01*
X78084040Y-7001596D01*
X78111580Y-7092382D01*
X78121000Y-7188027D01*
X78121000Y-8051973D01*
X78111580Y-8147618D01*
X78084040Y-8238404D01*
X78074354Y-8270336D01*
X78013906Y-8383425D01*
X77932554Y-8482554D01*
X77833425Y-8563906D01*
X77720336Y-8624354D01*
X77688404Y-8634040D01*
X77597618Y-8661580D01*
X77470000Y-8674149D01*
X77342383Y-8661580D01*
X77251597Y-8634040D01*
X77219665Y-8624354D01*
X77106576Y-8563906D01*
X77007447Y-8482554D01*
X76926095Y-8383425D01*
X76865647Y-8270336D01*
X76861282Y-8255946D01*
X76828420Y-8147618D01*
X76819000Y-8051973D01*
X76819000Y-7188028D01*
X76828420Y-7092383D01*
X76865645Y-6969669D01*
X76865646Y-6969665D01*
X76926094Y-6856576D01*
X77007447Y-6757446D01*
X77106575Y-6676094D01*
X77219664Y-6615646D01*
X77251596Y-6605960D01*
X77342382Y-6578420D01*
X77470000Y-6565851D01*
X77597617Y-6578420D01*
G37*
G36*
X69977617Y-6578420D02*
G01*
X70068403Y-6605960D01*
X70100335Y-6615646D01*
X70213424Y-6676094D01*
X70312554Y-6757447D01*
X70393906Y-6856575D01*
X70454354Y-6969664D01*
X70464040Y-7001596D01*
X70491580Y-7092382D01*
X70501000Y-7188027D01*
X70501000Y-8051973D01*
X70491580Y-8147618D01*
X70464040Y-8238404D01*
X70454354Y-8270336D01*
X70393906Y-8383425D01*
X70312554Y-8482554D01*
X70213425Y-8563906D01*
X70100336Y-8624354D01*
X70068404Y-8634040D01*
X69977618Y-8661580D01*
X69850000Y-8674149D01*
X69722383Y-8661580D01*
X69631597Y-8634040D01*
X69599665Y-8624354D01*
X69486576Y-8563906D01*
X69387447Y-8482554D01*
X69306095Y-8383425D01*
X69245647Y-8270336D01*
X69241282Y-8255946D01*
X69208420Y-8147618D01*
X69199000Y-8051973D01*
X69199000Y-7188028D01*
X69208420Y-7092383D01*
X69245645Y-6969669D01*
X69245646Y-6969665D01*
X69306094Y-6856576D01*
X69387447Y-6757446D01*
X69486575Y-6676094D01*
X69599664Y-6615646D01*
X69631596Y-6605960D01*
X69722382Y-6578420D01*
X69850000Y-6565851D01*
X69977617Y-6578420D01*
G37*
G36*
X7747617Y-6578420D02*
G01*
X7838403Y-6605960D01*
X7870335Y-6615646D01*
X7983424Y-6676094D01*
X8082554Y-6757447D01*
X8163906Y-6856575D01*
X8224354Y-6969664D01*
X8234040Y-7001596D01*
X8261580Y-7092382D01*
X8271000Y-7188027D01*
X8271000Y-8051973D01*
X8261580Y-8147618D01*
X8234040Y-8238404D01*
X8224354Y-8270336D01*
X8163906Y-8383425D01*
X8082554Y-8482554D01*
X7983425Y-8563906D01*
X7870336Y-8624354D01*
X7838404Y-8634040D01*
X7747618Y-8661580D01*
X7620000Y-8674149D01*
X7492383Y-8661580D01*
X7401597Y-8634040D01*
X7369665Y-8624354D01*
X7256576Y-8563906D01*
X7157447Y-8482554D01*
X7076095Y-8383425D01*
X7015647Y-8270336D01*
X7011282Y-8255946D01*
X6978420Y-8147618D01*
X6969000Y-8051973D01*
X6969000Y-7188028D01*
X6978420Y-7092383D01*
X7015645Y-6969669D01*
X7015646Y-6969665D01*
X7076094Y-6856576D01*
X7157447Y-6757446D01*
X7256575Y-6676094D01*
X7369664Y-6615646D01*
X7401596Y-6605960D01*
X7492382Y-6578420D01*
X7620000Y-6565851D01*
X7747617Y-6578420D01*
G37*
G36*
X54737617Y-6578420D02*
G01*
X54828403Y-6605960D01*
X54860335Y-6615646D01*
X54973424Y-6676094D01*
X55072554Y-6757447D01*
X55153906Y-6856575D01*
X55214354Y-6969664D01*
X55224040Y-7001596D01*
X55251580Y-7092382D01*
X55261000Y-7188027D01*
X55261000Y-8051973D01*
X55251580Y-8147618D01*
X55224040Y-8238404D01*
X55214354Y-8270336D01*
X55153906Y-8383425D01*
X55072554Y-8482554D01*
X54973425Y-8563906D01*
X54860336Y-8624354D01*
X54828404Y-8634040D01*
X54737618Y-8661580D01*
X54610000Y-8674149D01*
X54482383Y-8661580D01*
X54391597Y-8634040D01*
X54359665Y-8624354D01*
X54246576Y-8563906D01*
X54147447Y-8482554D01*
X54066095Y-8383425D01*
X54005647Y-8270336D01*
X54001282Y-8255946D01*
X53968420Y-8147618D01*
X53959000Y-8051973D01*
X53959000Y-7188028D01*
X53968420Y-7092383D01*
X54005645Y-6969669D01*
X54005646Y-6969665D01*
X54066094Y-6856576D01*
X54147447Y-6757446D01*
X54246575Y-6676094D01*
X54359664Y-6615646D01*
X54391596Y-6605960D01*
X54482382Y-6578420D01*
X54610000Y-6565851D01*
X54737617Y-6578420D01*
G37*
G36*
X24257617Y-6578420D02*
G01*
X24348403Y-6605960D01*
X24380335Y-6615646D01*
X24493424Y-6676094D01*
X24592554Y-6757447D01*
X24673906Y-6856575D01*
X24734354Y-6969664D01*
X24744040Y-7001596D01*
X24771580Y-7092382D01*
X24781000Y-7188027D01*
X24781000Y-8051973D01*
X24771580Y-8147618D01*
X24744040Y-8238404D01*
X24734354Y-8270336D01*
X24673906Y-8383425D01*
X24592554Y-8482554D01*
X24493425Y-8563906D01*
X24380336Y-8624354D01*
X24348404Y-8634040D01*
X24257618Y-8661580D01*
X24130000Y-8674149D01*
X24002383Y-8661580D01*
X23911597Y-8634040D01*
X23879665Y-8624354D01*
X23766576Y-8563906D01*
X23667447Y-8482554D01*
X23586095Y-8383425D01*
X23525647Y-8270336D01*
X23521282Y-8255946D01*
X23488420Y-8147618D01*
X23479000Y-8051973D01*
X23479000Y-7188028D01*
X23488420Y-7092383D01*
X23525645Y-6969669D01*
X23525646Y-6969665D01*
X23586094Y-6856576D01*
X23667447Y-6757446D01*
X23766575Y-6676094D01*
X23879664Y-6615646D01*
X23911596Y-6605960D01*
X24002382Y-6578420D01*
X24130000Y-6565851D01*
X24257617Y-6578420D01*
G37*
G36*
X26797617Y-6578420D02*
G01*
X26888403Y-6605960D01*
X26920335Y-6615646D01*
X27033424Y-6676094D01*
X27132554Y-6757447D01*
X27213906Y-6856575D01*
X27274354Y-6969664D01*
X27284040Y-7001596D01*
X27311580Y-7092382D01*
X27321000Y-7188027D01*
X27321000Y-8051973D01*
X27311580Y-8147618D01*
X27284040Y-8238404D01*
X27274354Y-8270336D01*
X27213906Y-8383425D01*
X27132554Y-8482554D01*
X27033425Y-8563906D01*
X26920336Y-8624354D01*
X26888404Y-8634040D01*
X26797618Y-8661580D01*
X26670000Y-8674149D01*
X26542383Y-8661580D01*
X26451597Y-8634040D01*
X26419665Y-8624354D01*
X26306576Y-8563906D01*
X26207447Y-8482554D01*
X26126095Y-8383425D01*
X26065647Y-8270336D01*
X26061282Y-8255946D01*
X26028420Y-8147618D01*
X26019000Y-8051973D01*
X26019000Y-7188028D01*
X26028420Y-7092383D01*
X26065645Y-6969669D01*
X26065646Y-6969665D01*
X26126094Y-6856576D01*
X26207447Y-6757446D01*
X26306575Y-6676094D01*
X26419664Y-6615646D01*
X26451596Y-6605960D01*
X26542382Y-6578420D01*
X26670000Y-6565851D01*
X26797617Y-6578420D01*
G37*
G36*
X31877617Y-6578420D02*
G01*
X31968403Y-6605960D01*
X32000335Y-6615646D01*
X32113424Y-6676094D01*
X32212554Y-6757447D01*
X32293906Y-6856575D01*
X32354354Y-6969664D01*
X32364040Y-7001596D01*
X32391580Y-7092382D01*
X32401000Y-7188027D01*
X32401000Y-8051973D01*
X32391580Y-8147618D01*
X32364040Y-8238404D01*
X32354354Y-8270336D01*
X32293906Y-8383425D01*
X32212554Y-8482554D01*
X32113425Y-8563906D01*
X32000336Y-8624354D01*
X31968404Y-8634040D01*
X31877618Y-8661580D01*
X31750000Y-8674149D01*
X31622383Y-8661580D01*
X31531597Y-8634040D01*
X31499665Y-8624354D01*
X31386576Y-8563906D01*
X31287447Y-8482554D01*
X31206095Y-8383425D01*
X31145647Y-8270336D01*
X31141282Y-8255946D01*
X31108420Y-8147618D01*
X31099000Y-8051973D01*
X31099000Y-7188028D01*
X31108420Y-7092383D01*
X31145645Y-6969669D01*
X31145646Y-6969665D01*
X31206094Y-6856576D01*
X31287447Y-6757446D01*
X31386575Y-6676094D01*
X31499664Y-6615646D01*
X31531596Y-6605960D01*
X31622382Y-6578420D01*
X31750000Y-6565851D01*
X31877617Y-6578420D01*
G37*
G36*
X57277617Y-6578420D02*
G01*
X57368403Y-6605960D01*
X57400335Y-6615646D01*
X57513424Y-6676094D01*
X57612554Y-6757447D01*
X57693906Y-6856575D01*
X57754354Y-6969664D01*
X57764040Y-7001596D01*
X57791580Y-7092382D01*
X57801000Y-7188027D01*
X57801000Y-8051973D01*
X57791580Y-8147618D01*
X57764040Y-8238404D01*
X57754354Y-8270336D01*
X57693906Y-8383425D01*
X57612554Y-8482554D01*
X57513425Y-8563906D01*
X57400336Y-8624354D01*
X57368404Y-8634040D01*
X57277618Y-8661580D01*
X57150000Y-8674149D01*
X57022383Y-8661580D01*
X56931597Y-8634040D01*
X56899665Y-8624354D01*
X56786576Y-8563906D01*
X56687447Y-8482554D01*
X56606095Y-8383425D01*
X56545647Y-8270336D01*
X56541282Y-8255946D01*
X56508420Y-8147618D01*
X56499000Y-8051973D01*
X56499000Y-7188028D01*
X56508420Y-7092383D01*
X56545645Y-6969669D01*
X56545646Y-6969665D01*
X56606094Y-6856576D01*
X56687447Y-6757446D01*
X56786575Y-6676094D01*
X56899664Y-6615646D01*
X56931596Y-6605960D01*
X57022382Y-6578420D01*
X57150000Y-6565851D01*
X57277617Y-6578420D01*
G37*
G36*
X38227617Y-6578420D02*
G01*
X38318403Y-6605960D01*
X38350335Y-6615646D01*
X38463424Y-6676094D01*
X38562554Y-6757447D01*
X38643906Y-6856575D01*
X38704354Y-6969664D01*
X38714040Y-7001596D01*
X38741580Y-7092382D01*
X38751000Y-7188027D01*
X38751000Y-8051973D01*
X38741580Y-8147618D01*
X38714040Y-8238404D01*
X38704354Y-8270336D01*
X38643906Y-8383425D01*
X38562554Y-8482554D01*
X38463425Y-8563906D01*
X38350336Y-8624354D01*
X38318404Y-8634040D01*
X38227618Y-8661580D01*
X38100000Y-8674149D01*
X37972383Y-8661580D01*
X37881597Y-8634040D01*
X37849665Y-8624354D01*
X37736576Y-8563906D01*
X37637447Y-8482554D01*
X37556095Y-8383425D01*
X37495647Y-8270336D01*
X37491282Y-8255946D01*
X37458420Y-8147618D01*
X37449000Y-8051973D01*
X37449000Y-7188028D01*
X37458420Y-7092383D01*
X37495645Y-6969669D01*
X37495646Y-6969665D01*
X37556094Y-6856576D01*
X37637447Y-6757446D01*
X37736575Y-6676094D01*
X37849664Y-6615646D01*
X37881596Y-6605960D01*
X37972382Y-6578420D01*
X38100000Y-6565851D01*
X38227617Y-6578420D01*
G37*
G36*
X40767617Y-6578420D02*
G01*
X40858403Y-6605960D01*
X40890335Y-6615646D01*
X41003424Y-6676094D01*
X41102554Y-6757447D01*
X41183906Y-6856575D01*
X41244354Y-6969664D01*
X41254040Y-7001596D01*
X41281580Y-7092382D01*
X41291000Y-7188027D01*
X41291000Y-8051973D01*
X41281580Y-8147618D01*
X41254040Y-8238404D01*
X41244354Y-8270336D01*
X41183906Y-8383425D01*
X41102554Y-8482554D01*
X41003425Y-8563906D01*
X40890336Y-8624354D01*
X40858404Y-8634040D01*
X40767618Y-8661580D01*
X40640000Y-8674149D01*
X40512383Y-8661580D01*
X40421597Y-8634040D01*
X40389665Y-8624354D01*
X40276576Y-8563906D01*
X40177447Y-8482554D01*
X40096095Y-8383425D01*
X40035647Y-8270336D01*
X40031282Y-8255946D01*
X39998420Y-8147618D01*
X39989000Y-8051973D01*
X39989000Y-7188028D01*
X39998420Y-7092383D01*
X40035645Y-6969669D01*
X40035646Y-6969665D01*
X40096094Y-6856576D01*
X40177447Y-6757446D01*
X40276575Y-6676094D01*
X40389664Y-6615646D01*
X40421596Y-6605960D01*
X40512382Y-6578420D01*
X40640000Y-6565851D01*
X40767617Y-6578420D01*
G37*
G36*
X43307617Y-6578420D02*
G01*
X43398403Y-6605960D01*
X43430335Y-6615646D01*
X43543424Y-6676094D01*
X43642554Y-6757447D01*
X43723906Y-6856575D01*
X43784354Y-6969664D01*
X43794040Y-7001596D01*
X43821580Y-7092382D01*
X43831000Y-7188027D01*
X43831000Y-8051973D01*
X43821580Y-8147618D01*
X43794040Y-8238404D01*
X43784354Y-8270336D01*
X43723906Y-8383425D01*
X43642554Y-8482554D01*
X43543425Y-8563906D01*
X43430336Y-8624354D01*
X43398404Y-8634040D01*
X43307618Y-8661580D01*
X43180000Y-8674149D01*
X43052383Y-8661580D01*
X42961597Y-8634040D01*
X42929665Y-8624354D01*
X42816576Y-8563906D01*
X42717447Y-8482554D01*
X42636095Y-8383425D01*
X42575647Y-8270336D01*
X42571282Y-8255946D01*
X42538420Y-8147618D01*
X42529000Y-8051973D01*
X42529000Y-7188028D01*
X42538420Y-7092383D01*
X42575645Y-6969669D01*
X42575646Y-6969665D01*
X42636094Y-6856576D01*
X42717447Y-6757446D01*
X42816575Y-6676094D01*
X42929664Y-6615646D01*
X42961596Y-6605960D01*
X43052382Y-6578420D01*
X43180000Y-6565851D01*
X43307617Y-6578420D01*
G37*
G36*
X45847617Y-6578420D02*
G01*
X45938403Y-6605960D01*
X45970335Y-6615646D01*
X46083424Y-6676094D01*
X46182554Y-6757447D01*
X46263906Y-6856575D01*
X46324354Y-6969664D01*
X46334040Y-7001596D01*
X46361580Y-7092382D01*
X46371000Y-7188027D01*
X46371000Y-8051973D01*
X46361580Y-8147618D01*
X46334040Y-8238404D01*
X46324354Y-8270336D01*
X46263906Y-8383425D01*
X46182554Y-8482554D01*
X46083425Y-8563906D01*
X45970336Y-8624354D01*
X45938404Y-8634040D01*
X45847618Y-8661580D01*
X45720000Y-8674149D01*
X45592383Y-8661580D01*
X45501597Y-8634040D01*
X45469665Y-8624354D01*
X45356576Y-8563906D01*
X45257447Y-8482554D01*
X45176095Y-8383425D01*
X45115647Y-8270336D01*
X45111282Y-8255946D01*
X45078420Y-8147618D01*
X45069000Y-8051973D01*
X45069000Y-7188028D01*
X45078420Y-7092383D01*
X45115645Y-6969669D01*
X45115646Y-6969665D01*
X45176094Y-6856576D01*
X45257447Y-6757446D01*
X45356575Y-6676094D01*
X45469664Y-6615646D01*
X45501596Y-6605960D01*
X45592382Y-6578420D01*
X45720000Y-6565851D01*
X45847617Y-6578420D01*
G37*
G36*
X52197617Y-6578420D02*
G01*
X52288403Y-6605960D01*
X52320335Y-6615646D01*
X52433424Y-6676094D01*
X52532554Y-6757447D01*
X52613906Y-6856575D01*
X52674354Y-6969664D01*
X52684040Y-7001596D01*
X52711580Y-7092382D01*
X52721000Y-7188027D01*
X52721000Y-8051973D01*
X52711580Y-8147618D01*
X52684040Y-8238404D01*
X52674354Y-8270336D01*
X52613906Y-8383425D01*
X52532554Y-8482554D01*
X52433425Y-8563906D01*
X52320336Y-8624354D01*
X52288404Y-8634040D01*
X52197618Y-8661580D01*
X52070000Y-8674149D01*
X51942383Y-8661580D01*
X51851597Y-8634040D01*
X51819665Y-8624354D01*
X51706576Y-8563906D01*
X51607447Y-8482554D01*
X51526095Y-8383425D01*
X51465647Y-8270336D01*
X51461282Y-8255946D01*
X51428420Y-8147618D01*
X51419000Y-8051973D01*
X51419000Y-7188028D01*
X51428420Y-7092383D01*
X51465645Y-6969669D01*
X51465646Y-6969665D01*
X51526094Y-6856576D01*
X51607447Y-6757446D01*
X51706575Y-6676094D01*
X51819664Y-6615646D01*
X51851596Y-6605960D01*
X51942382Y-6578420D01*
X52070000Y-6565851D01*
X52197617Y-6578420D01*
G37*
G36*
X49657617Y-6578420D02*
G01*
X49748403Y-6605960D01*
X49780335Y-6615646D01*
X49893424Y-6676094D01*
X49992554Y-6757447D01*
X50073906Y-6856575D01*
X50134354Y-6969664D01*
X50144040Y-7001596D01*
X50171580Y-7092382D01*
X50181000Y-7188027D01*
X50181000Y-8051973D01*
X50171580Y-8147618D01*
X50144040Y-8238404D01*
X50134354Y-8270336D01*
X50073906Y-8383425D01*
X49992554Y-8482554D01*
X49893425Y-8563906D01*
X49780336Y-8624354D01*
X49748404Y-8634040D01*
X49657618Y-8661580D01*
X49530000Y-8674149D01*
X49402383Y-8661580D01*
X49311597Y-8634040D01*
X49279665Y-8624354D01*
X49166576Y-8563906D01*
X49067447Y-8482554D01*
X48986095Y-8383425D01*
X48925647Y-8270336D01*
X48921282Y-8255946D01*
X48888420Y-8147618D01*
X48879000Y-8051973D01*
X48879000Y-7188028D01*
X48888420Y-7092383D01*
X48925645Y-6969669D01*
X48925646Y-6969665D01*
X48986094Y-6856576D01*
X49067447Y-6757446D01*
X49166575Y-6676094D01*
X49279664Y-6615646D01*
X49311596Y-6605960D01*
X49402382Y-6578420D01*
X49530000Y-6565851D01*
X49657617Y-6578420D01*
G37*
G36*
X59817617Y-6578420D02*
G01*
X59908403Y-6605960D01*
X59940335Y-6615646D01*
X60053424Y-6676094D01*
X60152554Y-6757447D01*
X60233906Y-6856575D01*
X60294354Y-6969664D01*
X60304040Y-7001596D01*
X60331580Y-7092382D01*
X60341000Y-7188027D01*
X60341000Y-8051973D01*
X60331580Y-8147618D01*
X60304040Y-8238404D01*
X60294354Y-8270336D01*
X60233906Y-8383425D01*
X60152554Y-8482554D01*
X60053425Y-8563906D01*
X59940336Y-8624354D01*
X59908404Y-8634040D01*
X59817618Y-8661580D01*
X59690000Y-8674149D01*
X59562383Y-8661580D01*
X59471597Y-8634040D01*
X59439665Y-8624354D01*
X59326576Y-8563906D01*
X59227447Y-8482554D01*
X59146095Y-8383425D01*
X59085647Y-8270336D01*
X59081282Y-8255946D01*
X59048420Y-8147618D01*
X59039000Y-8051973D01*
X59039000Y-7188028D01*
X59048420Y-7092383D01*
X59085645Y-6969669D01*
X59085646Y-6969665D01*
X59146094Y-6856576D01*
X59227447Y-6757446D01*
X59326575Y-6676094D01*
X59439664Y-6615646D01*
X59471596Y-6605960D01*
X59562382Y-6578420D01*
X59690000Y-6565851D01*
X59817617Y-6578420D01*
G37*
G36*
X12827617Y-6578420D02*
G01*
X12918403Y-6605960D01*
X12950335Y-6615646D01*
X13063424Y-6676094D01*
X13162554Y-6757447D01*
X13243906Y-6856575D01*
X13304354Y-6969664D01*
X13314040Y-7001596D01*
X13341580Y-7092382D01*
X13351000Y-7188027D01*
X13351000Y-8051973D01*
X13341580Y-8147618D01*
X13314040Y-8238404D01*
X13304354Y-8270336D01*
X13243906Y-8383425D01*
X13162554Y-8482554D01*
X13063425Y-8563906D01*
X12950336Y-8624354D01*
X12918404Y-8634040D01*
X12827618Y-8661580D01*
X12700000Y-8674149D01*
X12572383Y-8661580D01*
X12481597Y-8634040D01*
X12449665Y-8624354D01*
X12336576Y-8563906D01*
X12237447Y-8482554D01*
X12156095Y-8383425D01*
X12095647Y-8270336D01*
X12091282Y-8255946D01*
X12058420Y-8147618D01*
X12049000Y-8051973D01*
X12049000Y-7188028D01*
X12058420Y-7092383D01*
X12095645Y-6969669D01*
X12095646Y-6969665D01*
X12156094Y-6856576D01*
X12237447Y-6757446D01*
X12336575Y-6676094D01*
X12449664Y-6615646D01*
X12481596Y-6605960D01*
X12572382Y-6578420D01*
X12700000Y-6565851D01*
X12827617Y-6578420D01*
G37*
G36*
X122047617Y-6578420D02*
G01*
X122138403Y-6605960D01*
X122170335Y-6615646D01*
X122283424Y-6676094D01*
X122382554Y-6757447D01*
X122463906Y-6856575D01*
X122524354Y-6969664D01*
X122534040Y-7001596D01*
X122561580Y-7092382D01*
X122571000Y-7188027D01*
X122571000Y-8051973D01*
X122561580Y-8147618D01*
X122534040Y-8238404D01*
X122524354Y-8270336D01*
X122463906Y-8383425D01*
X122382554Y-8482554D01*
X122283425Y-8563906D01*
X122170336Y-8624354D01*
X122138404Y-8634040D01*
X122047618Y-8661580D01*
X121920000Y-8674149D01*
X121792383Y-8661580D01*
X121701597Y-8634040D01*
X121669665Y-8624354D01*
X121556576Y-8563906D01*
X121457447Y-8482554D01*
X121376095Y-8383425D01*
X121315647Y-8270336D01*
X121311282Y-8255946D01*
X121278420Y-8147618D01*
X121269000Y-8051973D01*
X121269000Y-7188028D01*
X121278420Y-7092383D01*
X121315645Y-6969669D01*
X121315646Y-6969665D01*
X121376094Y-6856576D01*
X121457447Y-6757446D01*
X121556575Y-6676094D01*
X121669664Y-6615646D01*
X121701596Y-6605960D01*
X121792382Y-6578420D01*
X121920000Y-6565851D01*
X122047617Y-6578420D01*
G37*
G36*
X111887617Y-6578420D02*
G01*
X111978403Y-6605960D01*
X112010335Y-6615646D01*
X112123424Y-6676094D01*
X112222554Y-6757447D01*
X112303906Y-6856575D01*
X112364354Y-6969664D01*
X112374040Y-7001596D01*
X112401580Y-7092382D01*
X112411000Y-7188027D01*
X112411000Y-8051973D01*
X112401580Y-8147618D01*
X112374040Y-8238404D01*
X112364354Y-8270336D01*
X112303906Y-8383425D01*
X112222554Y-8482554D01*
X112123425Y-8563906D01*
X112010336Y-8624354D01*
X111978404Y-8634040D01*
X111887618Y-8661580D01*
X111760000Y-8674149D01*
X111632383Y-8661580D01*
X111541597Y-8634040D01*
X111509665Y-8624354D01*
X111396576Y-8563906D01*
X111297447Y-8482554D01*
X111216095Y-8383425D01*
X111155647Y-8270336D01*
X111151282Y-8255946D01*
X111118420Y-8147618D01*
X111109000Y-8051973D01*
X111109000Y-7188028D01*
X111118420Y-7092383D01*
X111155645Y-6969669D01*
X111155646Y-6969665D01*
X111216094Y-6856576D01*
X111297447Y-6757446D01*
X111396575Y-6676094D01*
X111509664Y-6615646D01*
X111541596Y-6605960D01*
X111632382Y-6578420D01*
X111760000Y-6565851D01*
X111887617Y-6578420D01*
G37*
G36*
X97917617Y-6578420D02*
G01*
X98008403Y-6605960D01*
X98040335Y-6615646D01*
X98153424Y-6676094D01*
X98252554Y-6757447D01*
X98333906Y-6856575D01*
X98394354Y-6969664D01*
X98404040Y-7001596D01*
X98431580Y-7092382D01*
X98441000Y-7188027D01*
X98441000Y-8051973D01*
X98431580Y-8147618D01*
X98404040Y-8238404D01*
X98394354Y-8270336D01*
X98333906Y-8383425D01*
X98252554Y-8482554D01*
X98153425Y-8563906D01*
X98040336Y-8624354D01*
X98008404Y-8634040D01*
X97917618Y-8661580D01*
X97790000Y-8674149D01*
X97662383Y-8661580D01*
X97571597Y-8634040D01*
X97539665Y-8624354D01*
X97426576Y-8563906D01*
X97327447Y-8482554D01*
X97246095Y-8383425D01*
X97185647Y-8270336D01*
X97181282Y-8255946D01*
X97148420Y-8147618D01*
X97139000Y-8051973D01*
X97139000Y-7188028D01*
X97148420Y-7092383D01*
X97185645Y-6969669D01*
X97185646Y-6969665D01*
X97246094Y-6856576D01*
X97327447Y-6757446D01*
X97426575Y-6676094D01*
X97539664Y-6615646D01*
X97571596Y-6605960D01*
X97662382Y-6578420D01*
X97790000Y-6565851D01*
X97917617Y-6578420D01*
G37*
G36*
X114427617Y-6578420D02*
G01*
X114518403Y-6605960D01*
X114550335Y-6615646D01*
X114663424Y-6676094D01*
X114762554Y-6757447D01*
X114843906Y-6856575D01*
X114904354Y-6969664D01*
X114914040Y-7001596D01*
X114941580Y-7092382D01*
X114951000Y-7188027D01*
X114951000Y-8051973D01*
X114941580Y-8147618D01*
X114914040Y-8238404D01*
X114904354Y-8270336D01*
X114843906Y-8383425D01*
X114762554Y-8482554D01*
X114663425Y-8563906D01*
X114550336Y-8624354D01*
X114518404Y-8634040D01*
X114427618Y-8661580D01*
X114300000Y-8674149D01*
X114172383Y-8661580D01*
X114081597Y-8634040D01*
X114049665Y-8624354D01*
X113936576Y-8563906D01*
X113837447Y-8482554D01*
X113756095Y-8383425D01*
X113695647Y-8270336D01*
X113691282Y-8255946D01*
X113658420Y-8147618D01*
X113649000Y-8051973D01*
X113649000Y-7188028D01*
X113658420Y-7092383D01*
X113695645Y-6969669D01*
X113695646Y-6969665D01*
X113756094Y-6856576D01*
X113837447Y-6757446D01*
X113936575Y-6676094D01*
X114049664Y-6615646D01*
X114081596Y-6605960D01*
X114172382Y-6578420D01*
X114300000Y-6565851D01*
X114427617Y-6578420D01*
G37*
G36*
X116967617Y-6578420D02*
G01*
X117058403Y-6605960D01*
X117090335Y-6615646D01*
X117203424Y-6676094D01*
X117302554Y-6757447D01*
X117383906Y-6856575D01*
X117444354Y-6969664D01*
X117454040Y-7001596D01*
X117481580Y-7092382D01*
X117491000Y-7188027D01*
X117491000Y-8051973D01*
X117481580Y-8147618D01*
X117454040Y-8238404D01*
X117444354Y-8270336D01*
X117383906Y-8383425D01*
X117302554Y-8482554D01*
X117203425Y-8563906D01*
X117090336Y-8624354D01*
X117058404Y-8634040D01*
X116967618Y-8661580D01*
X116840000Y-8674149D01*
X116712383Y-8661580D01*
X116621597Y-8634040D01*
X116589665Y-8624354D01*
X116476576Y-8563906D01*
X116377447Y-8482554D01*
X116296095Y-8383425D01*
X116235647Y-8270336D01*
X116231282Y-8255946D01*
X116198420Y-8147618D01*
X116189000Y-8051973D01*
X116189000Y-7188028D01*
X116198420Y-7092383D01*
X116235645Y-6969669D01*
X116235646Y-6969665D01*
X116296094Y-6856576D01*
X116377447Y-6757446D01*
X116476575Y-6676094D01*
X116589664Y-6615646D01*
X116621596Y-6605960D01*
X116712382Y-6578420D01*
X116840000Y-6565851D01*
X116967617Y-6578420D01*
G37*
G36*
X100457617Y-6578420D02*
G01*
X100548403Y-6605960D01*
X100580335Y-6615646D01*
X100693424Y-6676094D01*
X100792554Y-6757447D01*
X100873906Y-6856575D01*
X100934354Y-6969664D01*
X100944040Y-7001596D01*
X100971580Y-7092382D01*
X100981000Y-7188027D01*
X100981000Y-8051973D01*
X100971580Y-8147618D01*
X100944040Y-8238404D01*
X100934354Y-8270336D01*
X100873906Y-8383425D01*
X100792554Y-8482554D01*
X100693425Y-8563906D01*
X100580336Y-8624354D01*
X100548404Y-8634040D01*
X100457618Y-8661580D01*
X100330000Y-8674149D01*
X100202383Y-8661580D01*
X100111597Y-8634040D01*
X100079665Y-8624354D01*
X99966576Y-8563906D01*
X99867447Y-8482554D01*
X99786095Y-8383425D01*
X99725647Y-8270336D01*
X99721282Y-8255946D01*
X99688420Y-8147618D01*
X99679000Y-8051973D01*
X99679000Y-7188028D01*
X99688420Y-7092383D01*
X99725645Y-6969669D01*
X99725646Y-6969665D01*
X99786094Y-6856576D01*
X99867447Y-6757446D01*
X99966575Y-6676094D01*
X100079664Y-6615646D01*
X100111596Y-6605960D01*
X100202382Y-6578420D01*
X100330000Y-6565851D01*
X100457617Y-6578420D01*
G37*
G36*
X72517617Y-6578420D02*
G01*
X72608403Y-6605960D01*
X72640335Y-6615646D01*
X72753424Y-6676094D01*
X72852554Y-6757447D01*
X72933906Y-6856575D01*
X72994354Y-6969664D01*
X73004040Y-7001596D01*
X73031580Y-7092382D01*
X73041000Y-7188027D01*
X73041000Y-8051973D01*
X73031580Y-8147618D01*
X73004040Y-8238404D01*
X72994354Y-8270336D01*
X72933906Y-8383425D01*
X72852554Y-8482554D01*
X72753425Y-8563906D01*
X72640336Y-8624354D01*
X72608404Y-8634040D01*
X72517618Y-8661580D01*
X72390000Y-8674149D01*
X72262383Y-8661580D01*
X72171597Y-8634040D01*
X72139665Y-8624354D01*
X72026576Y-8563906D01*
X71927447Y-8482554D01*
X71846095Y-8383425D01*
X71785647Y-8270336D01*
X71781282Y-8255946D01*
X71748420Y-8147618D01*
X71739000Y-8051973D01*
X71739000Y-7188028D01*
X71748420Y-7092383D01*
X71785645Y-6969669D01*
X71785646Y-6969665D01*
X71846094Y-6856576D01*
X71927447Y-6757446D01*
X72026575Y-6676094D01*
X72139664Y-6615646D01*
X72171596Y-6605960D01*
X72262382Y-6578420D01*
X72390000Y-6565851D01*
X72517617Y-6578420D01*
G37*
G36*
X119507617Y-6578420D02*
G01*
X119598403Y-6605960D01*
X119630335Y-6615646D01*
X119743424Y-6676094D01*
X119842554Y-6757447D01*
X119923906Y-6856575D01*
X119984354Y-6969664D01*
X119994040Y-7001596D01*
X120021580Y-7092382D01*
X120031000Y-7188027D01*
X120031000Y-8051973D01*
X120021580Y-8147618D01*
X119994040Y-8238404D01*
X119984354Y-8270336D01*
X119923906Y-8383425D01*
X119842554Y-8482554D01*
X119743425Y-8563906D01*
X119630336Y-8624354D01*
X119598404Y-8634040D01*
X119507618Y-8661580D01*
X119380000Y-8674149D01*
X119252383Y-8661580D01*
X119161597Y-8634040D01*
X119129665Y-8624354D01*
X119016576Y-8563906D01*
X118917447Y-8482554D01*
X118836095Y-8383425D01*
X118775647Y-8270336D01*
X118771282Y-8255946D01*
X118738420Y-8147618D01*
X118729000Y-8051973D01*
X118729000Y-7188028D01*
X118738420Y-7092383D01*
X118775645Y-6969669D01*
X118775646Y-6969665D01*
X118836094Y-6856576D01*
X118917447Y-6757446D01*
X119016575Y-6676094D01*
X119129664Y-6615646D01*
X119161596Y-6605960D01*
X119252382Y-6578420D01*
X119380000Y-6565851D01*
X119507617Y-6578420D01*
G37*
G36*
X86487617Y-6578420D02*
G01*
X86578403Y-6605960D01*
X86610335Y-6615646D01*
X86723424Y-6676094D01*
X86822554Y-6757447D01*
X86903906Y-6856575D01*
X86964354Y-6969664D01*
X86974040Y-7001596D01*
X87001580Y-7092382D01*
X87011000Y-7188027D01*
X87011000Y-8051973D01*
X87001580Y-8147618D01*
X86974040Y-8238404D01*
X86964354Y-8270336D01*
X86903906Y-8383425D01*
X86822554Y-8482554D01*
X86723425Y-8563906D01*
X86610336Y-8624354D01*
X86578404Y-8634040D01*
X86487618Y-8661580D01*
X86360000Y-8674149D01*
X86232383Y-8661580D01*
X86141597Y-8634040D01*
X86109665Y-8624354D01*
X85996576Y-8563906D01*
X85897447Y-8482554D01*
X85816095Y-8383425D01*
X85755647Y-8270336D01*
X85751282Y-8255946D01*
X85718420Y-8147618D01*
X85709000Y-8051973D01*
X85709000Y-7188028D01*
X85718420Y-7092383D01*
X85755645Y-6969669D01*
X85755646Y-6969665D01*
X85816094Y-6856576D01*
X85897447Y-6757446D01*
X85996575Y-6676094D01*
X86109664Y-6615646D01*
X86141596Y-6605960D01*
X86232382Y-6578420D01*
X86360000Y-6565851D01*
X86487617Y-6578420D01*
G37*
G36*
X94107617Y-6578420D02*
G01*
X94198403Y-6605960D01*
X94230335Y-6615646D01*
X94343424Y-6676094D01*
X94442554Y-6757447D01*
X94523906Y-6856575D01*
X94584354Y-6969664D01*
X94594040Y-7001596D01*
X94621580Y-7092382D01*
X94631000Y-7188027D01*
X94631000Y-8051973D01*
X94621580Y-8147618D01*
X94594040Y-8238404D01*
X94584354Y-8270336D01*
X94523906Y-8383425D01*
X94442554Y-8482554D01*
X94343425Y-8563906D01*
X94230336Y-8624354D01*
X94198404Y-8634040D01*
X94107618Y-8661580D01*
X93980000Y-8674149D01*
X93852383Y-8661580D01*
X93761597Y-8634040D01*
X93729665Y-8624354D01*
X93616576Y-8563906D01*
X93517447Y-8482554D01*
X93436095Y-8383425D01*
X93375647Y-8270336D01*
X93371282Y-8255946D01*
X93338420Y-8147618D01*
X93329000Y-8051973D01*
X93329000Y-7188028D01*
X93338420Y-7092383D01*
X93375645Y-6969669D01*
X93375646Y-6969665D01*
X93436094Y-6856576D01*
X93517447Y-6757446D01*
X93616575Y-6676094D01*
X93729664Y-6615646D01*
X93761596Y-6605960D01*
X93852382Y-6578420D01*
X93980000Y-6565851D01*
X94107617Y-6578420D01*
G37*
G36*
X102997617Y-6578420D02*
G01*
X103088403Y-6605960D01*
X103120335Y-6615646D01*
X103233424Y-6676094D01*
X103332554Y-6757447D01*
X103413906Y-6856575D01*
X103474354Y-6969664D01*
X103484040Y-7001596D01*
X103511580Y-7092382D01*
X103521000Y-7188027D01*
X103521000Y-8051973D01*
X103511580Y-8147618D01*
X103484040Y-8238404D01*
X103474354Y-8270336D01*
X103413906Y-8383425D01*
X103332554Y-8482554D01*
X103233425Y-8563906D01*
X103120336Y-8624354D01*
X103088404Y-8634040D01*
X102997618Y-8661580D01*
X102870000Y-8674149D01*
X102742383Y-8661580D01*
X102651597Y-8634040D01*
X102619665Y-8624354D01*
X102506576Y-8563906D01*
X102407447Y-8482554D01*
X102326095Y-8383425D01*
X102265647Y-8270336D01*
X102261282Y-8255946D01*
X102228420Y-8147618D01*
X102219000Y-8051973D01*
X102219000Y-7188028D01*
X102228420Y-7092383D01*
X102265645Y-6969669D01*
X102265646Y-6969665D01*
X102326094Y-6856576D01*
X102407447Y-6757446D01*
X102506575Y-6676094D01*
X102619664Y-6615646D01*
X102651596Y-6605960D01*
X102742382Y-6578420D01*
X102870000Y-6565851D01*
X102997617Y-6578420D01*
G37*
G36*
X105537617Y-6578420D02*
G01*
X105628403Y-6605960D01*
X105660335Y-6615646D01*
X105773424Y-6676094D01*
X105872554Y-6757447D01*
X105953906Y-6856575D01*
X106014354Y-6969664D01*
X106024040Y-7001596D01*
X106051580Y-7092382D01*
X106061000Y-7188027D01*
X106061000Y-8051973D01*
X106051580Y-8147618D01*
X106024040Y-8238404D01*
X106014354Y-8270336D01*
X105953906Y-8383425D01*
X105872554Y-8482554D01*
X105773425Y-8563906D01*
X105660336Y-8624354D01*
X105628404Y-8634040D01*
X105537618Y-8661580D01*
X105410000Y-8674149D01*
X105282383Y-8661580D01*
X105191597Y-8634040D01*
X105159665Y-8624354D01*
X105046576Y-8563906D01*
X104947447Y-8482554D01*
X104866095Y-8383425D01*
X104805647Y-8270336D01*
X104801282Y-8255946D01*
X104768420Y-8147618D01*
X104759000Y-8051973D01*
X104759000Y-7188028D01*
X104768420Y-7092383D01*
X104805645Y-6969669D01*
X104805646Y-6969665D01*
X104866094Y-6856576D01*
X104947447Y-6757446D01*
X105046575Y-6676094D01*
X105159664Y-6615646D01*
X105191596Y-6605960D01*
X105282382Y-6578420D01*
X105410000Y-6565851D01*
X105537617Y-6578420D01*
G37*
G36*
X91567617Y-6578420D02*
G01*
X91658403Y-6605960D01*
X91690335Y-6615646D01*
X91803424Y-6676094D01*
X91902554Y-6757447D01*
X91983906Y-6856575D01*
X92044354Y-6969664D01*
X92054040Y-7001596D01*
X92081580Y-7092382D01*
X92091000Y-7188027D01*
X92091000Y-8051973D01*
X92081580Y-8147618D01*
X92054040Y-8238404D01*
X92044354Y-8270336D01*
X91983906Y-8383425D01*
X91902554Y-8482554D01*
X91803425Y-8563906D01*
X91690336Y-8624354D01*
X91658404Y-8634040D01*
X91567618Y-8661580D01*
X91440000Y-8674149D01*
X91312383Y-8661580D01*
X91221597Y-8634040D01*
X91189665Y-8624354D01*
X91076576Y-8563906D01*
X90977447Y-8482554D01*
X90896095Y-8383425D01*
X90835647Y-8270336D01*
X90831282Y-8255946D01*
X90798420Y-8147618D01*
X90789000Y-8051973D01*
X90789000Y-7188028D01*
X90798420Y-7092383D01*
X90835645Y-6969669D01*
X90835646Y-6969665D01*
X90896094Y-6856576D01*
X90977447Y-6757446D01*
X91076575Y-6676094D01*
X91189664Y-6615646D01*
X91221596Y-6605960D01*
X91312382Y-6578420D01*
X91440000Y-6565851D01*
X91567617Y-6578420D01*
G37*
G36*
X108077617Y-6578420D02*
G01*
X108168403Y-6605960D01*
X108200335Y-6615646D01*
X108313424Y-6676094D01*
X108412554Y-6757447D01*
X108493906Y-6856575D01*
X108554354Y-6969664D01*
X108564040Y-7001596D01*
X108591580Y-7092382D01*
X108601000Y-7188027D01*
X108601000Y-8051973D01*
X108591580Y-8147618D01*
X108564040Y-8238404D01*
X108554354Y-8270336D01*
X108493906Y-8383425D01*
X108412554Y-8482554D01*
X108313425Y-8563906D01*
X108200336Y-8624354D01*
X108168404Y-8634040D01*
X108077618Y-8661580D01*
X107950000Y-8674149D01*
X107822383Y-8661580D01*
X107731597Y-8634040D01*
X107699665Y-8624354D01*
X107586576Y-8563906D01*
X107487447Y-8482554D01*
X107406095Y-8383425D01*
X107345647Y-8270336D01*
X107341282Y-8255946D01*
X107308420Y-8147618D01*
X107299000Y-8051973D01*
X107299000Y-7188028D01*
X107308420Y-7092383D01*
X107345645Y-6969669D01*
X107345646Y-6969665D01*
X107406094Y-6856576D01*
X107487447Y-6757446D01*
X107586575Y-6676094D01*
X107699664Y-6615646D01*
X107731596Y-6605960D01*
X107822382Y-6578420D01*
X107950000Y-6565851D01*
X108077617Y-6578420D01*
G37*
G36*
X89027617Y-6578420D02*
G01*
X89118403Y-6605960D01*
X89150335Y-6615646D01*
X89263424Y-6676094D01*
X89362554Y-6757447D01*
X89443906Y-6856575D01*
X89504354Y-6969664D01*
X89514040Y-7001596D01*
X89541580Y-7092382D01*
X89551000Y-7188027D01*
X89551000Y-8051973D01*
X89541580Y-8147618D01*
X89514040Y-8238404D01*
X89504354Y-8270336D01*
X89443906Y-8383425D01*
X89362554Y-8482554D01*
X89263425Y-8563906D01*
X89150336Y-8624354D01*
X89118404Y-8634040D01*
X89027618Y-8661580D01*
X88900000Y-8674149D01*
X88772383Y-8661580D01*
X88681597Y-8634040D01*
X88649665Y-8624354D01*
X88536576Y-8563906D01*
X88437447Y-8482554D01*
X88356095Y-8383425D01*
X88295647Y-8270336D01*
X88291282Y-8255946D01*
X88258420Y-8147618D01*
X88249000Y-8051973D01*
X88249000Y-7188028D01*
X88258420Y-7092383D01*
X88295645Y-6969669D01*
X88295646Y-6969665D01*
X88356094Y-6856576D01*
X88437447Y-6757446D01*
X88536575Y-6676094D01*
X88649664Y-6615646D01*
X88681596Y-6605960D01*
X88772382Y-6578420D01*
X88900000Y-6565851D01*
X89027617Y-6578420D01*
G37*
G36*
X75057617Y-6578420D02*
G01*
X75148403Y-6605960D01*
X75180335Y-6615646D01*
X75293424Y-6676094D01*
X75392554Y-6757447D01*
X75473906Y-6856575D01*
X75534354Y-6969664D01*
X75544040Y-7001596D01*
X75571580Y-7092382D01*
X75581000Y-7188027D01*
X75581000Y-8051973D01*
X75571580Y-8147618D01*
X75544040Y-8238404D01*
X75534354Y-8270336D01*
X75473906Y-8383425D01*
X75392554Y-8482554D01*
X75293425Y-8563906D01*
X75180336Y-8624354D01*
X75148404Y-8634040D01*
X75057618Y-8661580D01*
X74930000Y-8674149D01*
X74802383Y-8661580D01*
X74711597Y-8634040D01*
X74679665Y-8624354D01*
X74566576Y-8563906D01*
X74467447Y-8482554D01*
X74386095Y-8383425D01*
X74325647Y-8270336D01*
X74321282Y-8255946D01*
X74288420Y-8147618D01*
X74279000Y-8051973D01*
X74279000Y-7188028D01*
X74288420Y-7092383D01*
X74325645Y-6969669D01*
X74325646Y-6969665D01*
X74386094Y-6856576D01*
X74467447Y-6757446D01*
X74566575Y-6676094D01*
X74679664Y-6615646D01*
X74711596Y-6605960D01*
X74802382Y-6578420D01*
X74930000Y-6565851D01*
X75057617Y-6578420D01*
G37*
G36*
X35687617Y-6578420D02*
G01*
X35778403Y-6605960D01*
X35810335Y-6615646D01*
X35923424Y-6676094D01*
X36022554Y-6757447D01*
X36103906Y-6856575D01*
X36164354Y-6969664D01*
X36174040Y-7001596D01*
X36201580Y-7092382D01*
X36211000Y-7188027D01*
X36211000Y-8051973D01*
X36201580Y-8147618D01*
X36174040Y-8238404D01*
X36164354Y-8270336D01*
X36103906Y-8383425D01*
X36022554Y-8482554D01*
X35923425Y-8563906D01*
X35810336Y-8624354D01*
X35778404Y-8634040D01*
X35687618Y-8661580D01*
X35560000Y-8674149D01*
X35432383Y-8661580D01*
X35341597Y-8634040D01*
X35309665Y-8624354D01*
X35196576Y-8563906D01*
X35097447Y-8482554D01*
X35016095Y-8383425D01*
X34955647Y-8270336D01*
X34951282Y-8255946D01*
X34918420Y-8147618D01*
X34909000Y-8051973D01*
X34909000Y-7188028D01*
X34918420Y-7092383D01*
X34955645Y-6969669D01*
X34955646Y-6969665D01*
X35016094Y-6856576D01*
X35097447Y-6757446D01*
X35196575Y-6676094D01*
X35309664Y-6615646D01*
X35341596Y-6605960D01*
X35432382Y-6578420D01*
X35560000Y-6565851D01*
X35687617Y-6578420D01*
G37*
G36*
X10287617Y-6578420D02*
G01*
X10378403Y-6605960D01*
X10410335Y-6615646D01*
X10523424Y-6676094D01*
X10622554Y-6757447D01*
X10703906Y-6856575D01*
X10764354Y-6969664D01*
X10774040Y-7001596D01*
X10801580Y-7092382D01*
X10811000Y-7188027D01*
X10811000Y-8051973D01*
X10801580Y-8147618D01*
X10774040Y-8238404D01*
X10764354Y-8270336D01*
X10703906Y-8383425D01*
X10622554Y-8482554D01*
X10523425Y-8563906D01*
X10410336Y-8624354D01*
X10378404Y-8634040D01*
X10287618Y-8661580D01*
X10160000Y-8674149D01*
X10032383Y-8661580D01*
X9941597Y-8634040D01*
X9909665Y-8624354D01*
X9796576Y-8563906D01*
X9697447Y-8482554D01*
X9616095Y-8383425D01*
X9555647Y-8270336D01*
X9551282Y-8255946D01*
X9518420Y-8147618D01*
X9509000Y-8051973D01*
X9509000Y-7188028D01*
X9518420Y-7092383D01*
X9555645Y-6969669D01*
X9555646Y-6969665D01*
X9616094Y-6856576D01*
X9697447Y-6757446D01*
X9796575Y-6676094D01*
X9909664Y-6615646D01*
X9941596Y-6605960D01*
X10032382Y-6578420D01*
X10160000Y-6565851D01*
X10287617Y-6578420D01*
G37*
G36*
X17907617Y-6578420D02*
G01*
X17998403Y-6605960D01*
X18030335Y-6615646D01*
X18143424Y-6676094D01*
X18242554Y-6757447D01*
X18323906Y-6856575D01*
X18384354Y-6969664D01*
X18394040Y-7001596D01*
X18421580Y-7092382D01*
X18431000Y-7188027D01*
X18431000Y-8051973D01*
X18421580Y-8147618D01*
X18394040Y-8238404D01*
X18384354Y-8270336D01*
X18323906Y-8383425D01*
X18242554Y-8482554D01*
X18143425Y-8563906D01*
X18030336Y-8624354D01*
X17998404Y-8634040D01*
X17907618Y-8661580D01*
X17780000Y-8674149D01*
X17652383Y-8661580D01*
X17561597Y-8634040D01*
X17529665Y-8624354D01*
X17416576Y-8563906D01*
X17317447Y-8482554D01*
X17236095Y-8383425D01*
X17175647Y-8270336D01*
X17171282Y-8255946D01*
X17138420Y-8147618D01*
X17129000Y-8051973D01*
X17129000Y-7188028D01*
X17138420Y-7092383D01*
X17175645Y-6969669D01*
X17175646Y-6969665D01*
X17236094Y-6856576D01*
X17317447Y-6757446D01*
X17416575Y-6676094D01*
X17529664Y-6615646D01*
X17561596Y-6605960D01*
X17652382Y-6578420D01*
X17780000Y-6565851D01*
X17907617Y-6578420D01*
G37*
G36*
X3502585Y-1678802D02*
G01*
X3652410Y-1708604D01*
X3934674Y-1825521D01*
X4188705Y-1995259D01*
X4404741Y-2211295D01*
X4574479Y-2465326D01*
X4691396Y-2747590D01*
X4751000Y-3047240D01*
X4751000Y-3352760D01*
X4691396Y-3652410D01*
X4574479Y-3934674D01*
X4404741Y-4188705D01*
X4188705Y-4404741D01*
X3934674Y-4574479D01*
X3652410Y-4691396D01*
X3502585Y-4721198D01*
X3352761Y-4751000D01*
X3047239Y-4751000D01*
X2897415Y-4721198D01*
X2747590Y-4691396D01*
X2465326Y-4574479D01*
X2211295Y-4404741D01*
X1995259Y-4188705D01*
X1825521Y-3934674D01*
X1708604Y-3652410D01*
X1649000Y-3352760D01*
X1649000Y-3047240D01*
X1708604Y-2747590D01*
X1825521Y-2465326D01*
X1995259Y-2211295D01*
X2211295Y-1995259D01*
X2465326Y-1825521D01*
X2747590Y-1708604D01*
X2897415Y-1678802D01*
X3047239Y-1649000D01*
X3352761Y-1649000D01*
X3502585Y-1678802D01*
G37*
G36*
X127102585Y-1678802D02*
G01*
X127252410Y-1708604D01*
X127534674Y-1825521D01*
X127788705Y-1995259D01*
X128004741Y-2211295D01*
X128174479Y-2465326D01*
X128291396Y-2747590D01*
X128351000Y-3047240D01*
X128351000Y-3352760D01*
X128291396Y-3652410D01*
X128174479Y-3934674D01*
X128004741Y-4188705D01*
X127788705Y-4404741D01*
X127534674Y-4574479D01*
X127252410Y-4691396D01*
X127102585Y-4721198D01*
X126952761Y-4751000D01*
X126647239Y-4751000D01*
X126497415Y-4721198D01*
X126347590Y-4691396D01*
X126065326Y-4574479D01*
X125811295Y-4404741D01*
X125595259Y-4188705D01*
X125425521Y-3934674D01*
X125308604Y-3652410D01*
X125249000Y-3352760D01*
X125249000Y-3047240D01*
X125308604Y-2747590D01*
X125425521Y-2465326D01*
X125595259Y-2211295D01*
X125811295Y-1995259D01*
X126065326Y-1825521D01*
X126347590Y-1708604D01*
X126497415Y-1678802D01*
X126647239Y-1649000D01*
X126952761Y-1649000D01*
X127102585Y-1678802D01*
G37*
M02*
